<svg width="16" height="20" viewBox="0 0 16 20" fill="none" xmlns="http://www.w3.org/2000/svg">
<path fill-rule="evenodd" clip-rule="evenodd" d="M0 0.75C0 0.335786 0.335786 0 0.75 0H15.13C15.5442 0 15.88 0.335786 15.88 0.75C15.88 1.16421 15.5442 1.5 15.13 1.5H0.75C0.335786 1.5 0 1.16421 0 0.75Z" fill="#599E43"/>
<path fill-rule="evenodd" clip-rule="evenodd" d="M0 19.25C0 18.8358 0.335786 18.5 0.75 18.5H15.13C15.5442 18.5 15.88 18.8358 15.88 19.25C15.88 19.6642 15.5442 20 15.13 20H0.75C0.335786 20 0 19.6642 0 19.25Z" fill="#599E43"/>
<path fill-rule="evenodd" clip-rule="evenodd" d="M4.86957 1.5C4.14378 1.5 3.55957 2.08421 3.55957 2.81V4.00999C3.55957 4.35391 3.69254 4.68231 3.93991 4.92968L7.01808 8.00784C7.53788 8.51966 8.36443 8.51448 8.86925 8.00966L9.35879 8.4992L8.86925 8.00966L11.9493 4.92968C12.1852 4.69377 12.3333 4.35186 12.3496 3.99467V2.81C12.3496 2.08421 11.7654 1.5 11.0396 1.5H4.86957ZM2.05957 2.81C2.05957 1.25578 3.31535 0 4.86957 0H11.0396C12.5938 0 13.8496 1.25578 13.8496 2.81V4.00999C13.8496 4.01925 13.8494 4.0285 13.8491 4.03775C13.8225 4.75607 13.5313 5.46898 13.0099 5.99034L9.92991 9.07032L9.39958 8.53999L9.92991 9.07032C8.83521 10.165 7.06285 10.1603 5.96255 9.07361L5.95924 9.07033L5.95925 9.07032L2.87925 5.99034L3.40742 5.46216L2.87925 5.99034C2.34661 5.4577 2.05957 4.74608 2.05957 4.00999V2.81Z" fill="#599E43"/>
<path d="M13.0798 17.1904C13.0798 18.3304 12.1598 19.2504 11.0198 19.2504H4.8598C3.7198 19.2504 2.7998 18.3304 2.7998 17.1904H13.0798Z" fill="#599E43"/>
<path fill-rule="evenodd" clip-rule="evenodd" d="M2.0498 17.1904C2.0498 16.7762 2.38559 16.4404 2.7998 16.4404H13.0798C13.494 16.4404 13.8298 16.7762 13.8298 17.1904C13.8298 18.7447 12.574 20.0004 11.0198 20.0004H4.8598C3.30559 20.0004 2.0498 18.7446 2.0498 17.1904ZM3.78428 17.9404C4.02058 18.2794 4.41341 18.5004 4.8598 18.5004H11.0198C11.4662 18.5004 11.859 18.2794 12.0953 17.9404H3.78428Z" fill="#599E43"/>
<path fill-rule="evenodd" clip-rule="evenodd" d="M8.85947 11.9799C8.35236 11.4728 7.52724 11.4728 7.02014 11.9799L3.93014 15.0699C3.69084 15.3092 3.5498 15.6485 3.5498 15.9896V16.4396H12.3298V15.9896C12.3298 15.6485 12.1888 15.3092 11.9495 15.0699L8.85947 11.9799L9.38693 11.4525L8.85947 11.9799ZM5.95948 10.9193C7.05237 9.82639 8.82724 9.82639 9.92013 10.9193L9.3898 11.4496L9.92013 10.9193L13.0101 14.0093C13.5308 14.53 13.8298 15.2508 13.8298 15.9896V17.1896C13.8298 17.6038 13.494 17.9396 13.0798 17.9396H2.7998C2.38559 17.9396 2.0498 17.6038 2.0498 17.1896V15.9896C2.0498 15.2508 2.34878 14.53 2.86948 14.0093L5.95948 10.9193Z" fill="#599E43"/>
<path fill-rule="evenodd" clip-rule="evenodd" d="M5.12988 7.94043C5.12988 7.52622 5.46567 7.19043 5.87988 7.19043H9.99988C10.4141 7.19043 10.7499 7.52622 10.7499 7.94043C10.7499 8.35464 10.4141 8.69043 9.99988 8.69043H5.87988C5.46567 8.69043 5.12988 8.35464 5.12988 7.94043Z" fill="#599E43"/>
<path d="M7.94043 14.8603C7.74043 14.8603 7.55043 14.7803 7.41043 14.6403C7.27043 14.5003 7.19043 14.3103 7.19043 14.1103C7.19043 14.0103 7.21043 13.9203 7.25043 13.8203C7.29043 13.7303 7.34043 13.6503 7.41043 13.5803C7.61043 13.3703 7.95042 13.3103 8.23042 13.4203C8.32042 13.4603 8.40043 13.5103 8.47043 13.5803C8.54043 13.6503 8.59043 13.7303 8.63043 13.8203C8.67043 13.9203 8.69043 14.0103 8.69043 14.1103C8.69043 14.3103 8.61043 14.5003 8.47043 14.6403C8.33043 14.7803 8.14043 14.8603 7.94043 14.8603Z" fill="#599E43"/>
</svg>
