<svg width="28" height="28" viewBox="0 0 28 28" fill="none" xmlns="http://www.w3.org/2000/svg">
<path fill-rule="evenodd" clip-rule="evenodd" d="M12.628 2.41797C6.98885 2.41797 2.41797 6.98885 2.41797 12.628C2.41797 18.2671 6.98885 22.838 12.628 22.838C18.2671 22.838 22.838 18.2671 22.838 12.628C22.838 6.98885 18.2671 2.41797 12.628 2.41797ZM0.917969 12.628C0.917969 6.16042 6.16042 0.917969 12.628 0.917969C19.0955 0.917969 24.338 6.16042 24.338 12.628C24.338 19.0955 19.0955 24.338 12.628 24.338C6.16042 24.338 0.917969 19.0955 0.917969 12.628Z" fill="#599E43"/>
<path fill-rule="evenodd" clip-rule="evenodd" d="M20.3251 20.3251C20.618 20.0322 21.0929 20.0322 21.3858 20.3251L26.8658 25.8051C27.1587 26.098 27.1587 26.5729 26.8658 26.8658C26.5729 27.1587 26.098 27.1587 25.8051 26.8658L20.3251 21.3858C20.0322 21.0929 20.0322 20.618 20.3251 20.3251Z" fill="#599E43"/>
</svg>
