<svg width="48" height="48" viewBox="0 0 48 48" fill="none" xmlns="http://www.w3.org/2000/svg">
<path opacity="0.4" d="M34.609 19.5329C32.255 20.1619 29.7793 20.0401 27.5066 19.1879C25.9644 14.9471 26.9993 10.0975 30.2258 6.89154C31.6868 5.45088 33.4929 4.41604 35.441 3.88847C37.7949 3.25945 40.2706 3.38119 42.5433 4.23342C44.0856 8.47425 43.0506 13.3238 39.8241 16.5298C38.3834 17.9705 36.5773 19.0053 34.609 19.5329Z" fill="#599E43"/>
<path fill-rule="evenodd" clip-rule="evenodd" d="M29.6278 4.8198C31.0642 3.58948 32.6951 2.7089 34.4109 2.17643L34.7816 10.7201C34.7834 10.7622 34.7885 10.8033 34.7966 10.8433L30.0969 15.5171L29.6282 4.82845L29.6278 4.8198ZM28.1268 6.3171C24.8462 10.1307 24.0421 15.3493 25.7105 19.8794L28.5992 17.0065C28.5956 16.9813 28.5932 16.9556 28.5921 16.9296L28.1268 6.3171ZM36.2892 9.35897L35.961 1.79379C38.3887 1.34379 40.9165 1.55774 43.2553 2.43132L36.2892 9.35897ZM24.553 21.1987C22.1462 15.6296 23.2069 8.92779 27.7674 4.4089C32.434 -0.235381 39.345 -1.1947 44.9678 1.45616C45.1332 1.53418 45.2662 1.66769 45.3434 1.83351C47.9735 7.47818 46.9704 14.3684 42.3046 19.0124C37.8082 23.4879 31.2278 24.5419 25.7238 22.2414L24.3362 23.6289C24.0306 23.9345 23.5351 23.9345 23.2294 23.6288C22.9238 23.3232 22.9238 22.8277 23.2295 22.5221L24.553 21.1987ZM41.9038 17.1489C41.8994 17.1486 41.895 17.1483 41.8906 17.1481L31.1848 16.6427L35.8966 11.9569C35.9407 11.9669 35.9864 11.9732 36.0332 11.9755L44.5714 12.3848C44.0297 14.0952 43.1407 15.7192 41.9038 17.1489ZM40.394 18.6444L29.7833 18.1434C29.7504 18.1419 29.718 18.1383 29.6863 18.1329L26.8366 20.9668C26.8343 20.9764 26.8318 20.986 26.8291 20.9955C31.3409 22.6755 36.5538 21.9021 40.394 18.6444ZM44.3601 3.54006C45.2247 5.88546 45.426 8.41288 44.9629 10.8366L37.3882 10.4734L44.3601 3.54006Z" fill="#599E43"/>
<path d="M15.1111 33.3907H21.2639V31.4072H18.2549L18.2415 31.3668L19.6582 29.896C20.8996 28.6142 21.183 27.845 21.183 26.7791C21.183 25.052 19.7662 23.9995 18.174 23.9995C16.5683 23.9995 15.5698 24.7956 15.0166 25.7536L16.5818 26.8735C16.9731 26.2798 17.4454 26.0235 17.9986 26.0235C18.5653 26.0235 18.9701 26.4553 18.9701 27.0355C18.9701 27.6966 18.5653 28.2633 17.8367 29.0324L15.0841 31.9604L15.1111 33.3907Z" fill="#599E43"/>
<path d="M25.6429 33.3907H27.7748V31.9335H28.9622V30.1254H27.7748V24.1209H26.0611L21.8918 30.6246V31.9335H25.6429V33.3907ZM24.1316 30.2603L25.8318 27.5212V30.2603H24.1316Z" fill="#599E43"/>
<path fill-rule="evenodd" clip-rule="evenodd" d="M32.1828 21.9816L34.0875 21.6322C35.6138 21.3523 37.0997 20.8104 38.4744 20.0057L40.0414 19.0883L40.7177 20.7735C43.3641 27.3676 42.368 35.1762 37.4535 40.9824C30.3793 49.34 17.8695 50.3804 9.5119 43.3063C1.95698 36.9116 0.381482 26.0764 5.37356 17.8796L1 14.8306L16.2714 10.2119L16.4088 25.5729L12.2452 22.6702C9.68023 27.3538 10.6703 33.3501 14.9051 36.9346C19.7437 41.0302 26.9862 40.4278 31.0818 35.5892C33.9538 32.1962 34.5176 27.6191 32.9238 23.7707L32.1828 21.9816ZM10.9545 21.7704C11.1015 21.5103 11.2582 21.2538 11.4247 21.0015C11.5463 20.8172 11.6732 20.6352 11.8053 20.4555L14.8165 22.5548L14.7249 12.3148L4.54468 15.3938L7.5242 17.471C7.39108 17.6546 7.26185 17.84 7.1365 18.0271C2.03209 25.6454 3.35837 36.0471 10.5231 42.1116C18.2209 48.6273 29.7431 47.669 36.2588 39.9712C40.4165 35.0592 41.5309 28.5899 39.7929 22.8579C39.6392 22.3512 39.4633 21.8501 39.2651 21.3564C38.8095 21.6232 38.3431 21.864 37.8678 22.0789C37.2293 22.3677 36.575 22.6098 35.9099 22.8053C35.4021 22.9546 34.888 23.0767 34.3699 23.1718C34.5724 23.6607 34.7442 24.1601 34.8852 24.6669C36.0036 28.688 35.1763 33.1745 32.2765 36.6005C27.6224 42.0989 19.3923 42.7834 13.8939 38.1293C9.03627 34.0177 7.9359 27.1149 10.9545 21.7704Z" fill="#599E43"/>
</svg>
