<svg width="40" height="40" viewBox="0 0 40 40" fill="none" xmlns="http://www.w3.org/2000/svg">
<path opacity="0.4" d="M28.8408 16.2778C26.8792 16.802 24.8161 16.7005 22.9222 15.9903C21.637 12.4563 22.4994 8.41502 25.1881 5.74336C26.4057 4.54281 27.9107 3.68044 29.5341 3.2408C31.4957 2.71661 33.5588 2.81807 35.4528 3.52825C36.738 7.06228 35.8755 11.1036 33.1868 13.7752C31.9861 14.9758 30.4811 15.8382 28.8408 16.2778Z" fill="white"/>
<path fill-rule="evenodd" clip-rule="evenodd" d="M24.6896 4.01662C25.8866 2.99131 27.2457 2.25746 28.6756 1.81372L28.9845 8.93385C28.986 8.9688 28.9903 9.00298 28.997 9.03621L25.0805 12.9311L24.69 4.02351L24.6896 4.01662ZM23.4388 5.26442C20.7051 8.4424 20.035 12.7912 21.4253 16.5661L23.8325 14.1722C23.8295 14.1511 23.8275 14.1296 23.8265 14.1078L23.4388 5.26442ZM30.2409 7.79924L29.9674 1.49484C31.9905 1.11982 34.097 1.2981 36.046 2.0261L30.2409 7.79924ZM20.4607 17.6654C18.4552 13.0245 19.3391 7.43978 23.1395 3.67408C27.0283 -0.196151 32.7874 -0.995579 37.4731 1.21347C37.611 1.27848 37.7217 1.38974 37.7861 1.52793C39.9779 6.23181 39.1419 11.9736 35.2538 15.8437C31.5067 19.5733 26.023 20.4516 21.4363 18.5345L20.28 19.6906C20.0254 19.9453 19.6124 19.9452 19.3577 19.6905C19.1031 19.4358 19.1031 19.0229 19.3578 18.7682L20.4607 17.6654ZM34.9198 14.2907C34.9162 14.2905 34.9125 14.2903 34.9088 14.2901L25.9873 13.8689L29.9139 9.96394C29.9506 9.97225 29.9885 9.97748 30.0274 9.97934L37.1429 10.3205C36.6915 11.7459 35.9506 13.0993 34.9198 14.2907ZM33.6616 15.537L24.8194 15.1195C24.792 15.1182 24.765 15.1153 24.7386 15.1107L22.3637 17.4725C22.3617 17.4804 22.3597 17.4883 22.3574 17.4962C26.1173 18.8963 30.4614 18.2518 33.6616 15.537ZM36.9667 2.95006C37.6872 4.90449 37.8549 7.0106 37.4691 9.03028L31.157 8.72766L36.9667 2.95006Z" fill="white"/>
<path d="M12.5924 27.826H17.7198V26.1731H15.2123L15.2011 26.1394L16.3817 24.9137C17.4162 23.8455 17.6523 23.2046 17.6523 22.3163C17.6523 20.8771 16.4717 20 15.1448 20C13.8068 20 12.9747 20.6634 12.5137 21.4618L13.818 22.395C14.1441 21.9003 14.5376 21.6866 14.9987 21.6866C15.4709 21.6866 15.8082 22.0465 15.8082 22.53C15.8082 23.0809 15.4709 23.5532 14.8637 24.1941L12.5699 26.6341L12.5924 27.826Z" fill="white"/>
<path d="M21.3689 27.826H23.1455V26.6116H24.135V25.1049H23.1455V20.1012H21.7175L18.243 25.5209V26.6116H21.3689V27.826ZM20.1095 25.2173L21.5263 22.9348V25.2173H20.1095Z" fill="white"/>
<path fill-rule="evenodd" clip-rule="evenodd" d="M26.8189 18.3178L28.4062 18.0267C29.678 17.7934 30.9163 17.3419 32.0619 16.6712L33.3678 15.9068L33.9314 17.3111C36.1367 22.8062 35.3066 29.3133 31.2111 34.1519C25.316 41.1165 14.8911 41.9835 7.9265 36.0884C1.63073 30.7595 0.317821 21.7302 4.47788 14.8995L0.833252 12.3587L13.5594 8.50977L13.6739 21.3106L10.2042 18.8917C8.06678 22.7947 8.89181 27.7916 12.4208 30.7787C16.453 34.1917 22.4885 33.6897 25.9014 29.6575C28.2948 26.83 28.7646 23.0157 27.4364 19.8087L26.8189 18.3178ZM9.12869 18.1419C9.25115 17.9251 9.38174 17.7113 9.5205 17.5011C9.62186 17.3475 9.72759 17.1958 9.83768 17.0461L12.347 18.7955L12.2707 10.2622L3.78715 12.828L6.27008 14.559C6.15915 14.712 6.05146 14.8665 5.94701 15.0224C1.69332 21.371 2.79856 30.0391 8.76919 35.0929C15.184 40.5226 24.7859 39.724 30.2156 33.3092C33.6803 29.2158 34.609 23.8248 33.1607 19.0481C33.0326 18.6258 32.886 18.2083 32.7209 17.7969C32.3412 18.0191 31.9525 18.2198 31.5564 18.3989C31.0243 18.6396 30.4791 18.8413 29.9248 19.0043C29.5016 19.1287 29.0732 19.2305 28.6415 19.3096C28.8102 19.7171 28.9534 20.1332 29.0709 20.5556C30.0029 23.9065 29.3135 27.6453 26.897 30.5002C23.0186 35.0822 16.1601 35.6526 11.5781 31.7743C7.53014 28.3479 6.61317 22.5956 9.12869 18.1419Z" fill="white"/>
</svg>
