<svg width="16" height="17" viewBox="0 0 16 17" fill="none" xmlns="http://www.w3.org/2000/svg">
<path d="M8.75 1.33301C8.75 0.918798 8.4142 0.583008 8 0.583008C7.5858 0.583008 7.25 0.918798 7.25 1.33301V7.58301H1C0.58579 7.58301 0.25 7.91881 0.25 8.33301C0.25 8.74721 0.58579 9.08301 1 9.08301H7.25V15.333C7.25 15.7472 7.5858 16.083 8 16.083C8.4142 16.083 8.75 15.7472 8.75 15.333V9.08301H15C15.4142 9.08301 15.75 8.74721 15.75 8.33301C15.75 7.91881 15.4142 7.58301 15 7.58301H8.75V1.33301Z" fill="#245F12"/>
</svg>
