<svg width="80" height="80" viewBox="0 0 80 80" fill="none" xmlns="http://www.w3.org/2000/svg">
<path fill-rule="evenodd" clip-rule="evenodd" d="M20.331 24.5872C22.7274 24.8591 25.1515 24.7568 27.5165 24.2841V32.1407C27.5165 33.7616 27.5165 33.7616 29.0541 33.8102L29.1493 33.8132C29.835 33.8341 30.0545 33.6794 30.042 32.9456C30.0054 30.8423 30.0111 28.7379 30.0168 26.5968V26.5966C30.0189 25.8008 30.0211 24.9999 30.0211 24.1921C31.2176 24.6891 32.4657 25.0517 33.7424 25.2729C37.9237 25.9733 41.6346 25.0639 44.5322 21.8338C46.8465 19.2477 47.8061 16.0909 48.0257 12.6789C48.0717 11.9807 47.71 11.5625 47.1183 11.2782C45.8757 10.6821 44.5709 10.2256 43.2276 9.91719C38.001 8.70671 33.364 10.4628 30.527 14.7257C30.1323 15.3177 29.834 15.9579 29.4842 16.7083L29.4842 16.7084L29.4842 16.7085L29.4835 16.7099L29.4833 16.7104C29.3961 16.8974 29.3058 17.0913 29.2099 17.293C29.1905 17.14 29.1743 17.0161 29.1607 16.9116L29.1606 16.9109L29.1606 16.9107L29.1605 16.9101L29.1605 16.91C29.1345 16.7112 29.1177 16.5826 29.1054 16.4567C28.7416 12.3193 27.1695 8.6879 24.2969 5.69202C19.3609 0.526052 13.2374 -0.770133 6.39687 0.398534C5.35155 0.576239 4.98987 1.21179 4.82889 2.1463C4.36475 4.76849 4.36475 7.4518 4.82889 10.074C6.17735 17.6107 12.7148 23.7321 20.331 24.5872ZM31.6204 17.9473C33.6734 13.0239 38.1286 10.9939 43.4869 12.6162C43.7888 12.7077 44.0466 12.7801 44.2656 12.8416C44.903 13.0205 45.2124 13.1074 45.3257 13.3061C45.4326 13.4935 45.3651 13.7804 45.2339 14.338L45.2339 14.3381L45.2338 14.3384C45.1752 14.5875 45.1039 14.8906 45.0298 15.263C44.8191 16.205 44.4941 17.1177 44.0618 17.9808C41.553 23.2994 35.7201 23.682 32.2727 22.3063L40.3091 17.6505C41.4255 17.0024 41.7328 16.3836 41.3084 15.6351C40.884 14.8867 40.1795 14.8218 39.0798 15.4616L31.7939 19.6826C31.6388 19.7719 31.4805 19.855 31.2998 19.95L31.2995 19.9501L31.2995 19.9501L31.2993 19.9502C31.2221 19.9908 31.1408 20.0335 31.0538 20.0798C31.0748 19.2686 31.3528 18.6017 31.6267 17.9473H31.6204ZM7.07424 4.35819C7.20177 2.79439 7.24357 2.76512 8.89727 2.62714C13.3441 2.25709 17.4981 3.12263 20.9686 6.03698C25.1499 9.55343 26.8998 14.2009 26.6782 19.6261C26.6938 19.7446 26.6805 19.865 26.6394 19.9772C26.5982 20.0893 26.5305 20.1898 26.4419 20.27C26.2155 20.0372 25.9907 19.8038 25.7659 19.5705C25.2559 19.0412 24.7463 18.5122 24.2196 17.9912C21.0878 14.8567 17.9518 11.7256 14.8117 8.59801C14.5982 8.36944 14.3713 8.15373 14.1322 7.95201C13.8929 7.74827 13.5826 7.64753 13.2692 7.67182C12.9558 7.69611 12.6648 7.84344 12.4597 8.08163C12.0081 8.60847 12.0186 9.17294 12.4263 9.72068C12.5775 9.89977 12.7409 10.0681 12.9155 10.2245C16.6563 13.9668 20.3965 17.7076 24.1359 21.4471C24.3475 21.6293 24.5717 21.7963 24.807 21.9467C24.7568 22.0199 24.7046 22.091 24.6523 22.1558C22.8533 22.36 21.0325 22.2503 19.271 21.8317C10.7767 19.7578 6.3864 12.8817 7.08049 4.34982L7.07424 4.35819ZM57.5611 34.1257C57.5842 33.7894 57.5035 33.4542 57.33 33.1652C57.1566 32.8762 56.8987 32.6474 56.5911 32.5096C54.2894 31.2645 51.9917 30.0102 49.6947 28.7564C47.5874 27.606 45.4806 26.456 43.372 25.3136C42.4876 24.8328 41.804 24.9687 41.413 25.6691C41.0221 26.3694 41.2939 27.0531 42.2179 27.5506C43.8389 28.4329 45.4612 29.313 47.0849 30.1911L53.6035 33.7452C53.5407 33.8215 53.4707 33.8915 53.3945 33.9543C45.3107 38.3627 37.2338 42.7733 29.164 47.1859C28.8378 47.3636 28.6141 47.3009 28.3277 47.1357C26.6677 46.2131 25.0008 45.3071 23.3269 44.4179C22.4677 43.9559 21.7548 44.1189 21.3868 44.836C21.0189 45.5531 21.2927 46.1908 22.1729 46.6674C22.5639 46.88 22.9539 47.0938 23.3438 47.3075L23.3443 47.3078L23.3448 47.3081L23.3453 47.3084C24.5267 47.956 25.7071 48.6031 26.9124 49.2159C27.4058 49.4689 27.5396 49.7657 27.5396 50.2968C27.5228 58.8475 27.5186 67.3982 27.527 75.9489V76.6367C27.2706 76.659 27.098 76.5455 26.9351 76.4383C26.8841 76.4048 26.8341 76.3719 26.7828 76.344L3.15854 63.4761C2.65261 63.2023 2.48743 62.9117 2.48952 62.3409C2.51043 53.8181 2.51532 45.2932 2.50417 36.7662V35.9424C2.57803 35.979 2.63645 36.0073 2.6853 36.031L2.68583 36.0312L2.68617 36.0314C2.76268 36.0685 2.8157 36.0942 2.86794 36.1223C3.31506 36.3637 3.76144 36.6064 4.20776 36.8491C5.06366 37.3145 5.91933 37.7797 6.77952 38.2359C7.51542 38.6247 8.18652 38.4847 8.56284 37.9035C8.98096 37.2575 8.77188 36.4944 7.99626 36.0637C7.06516 35.5409 6.12684 35.0304 5.15666 34.5027L5.15599 34.5023C4.74529 34.2789 4.32888 34.0524 3.90489 33.8205C4.25612 33.6114 4.49445 33.4734 4.74114 33.3417C8.09453 31.5103 11.45 29.6817 14.8076 27.8559C14.8529 27.8314 14.8982 27.8071 14.9435 27.7829L14.9436 27.7828C15.1068 27.6954 15.2684 27.6088 15.4222 27.5172C16.2146 27.0552 16.4675 26.3715 16.1017 25.7025C15.7358 25.0335 15.0145 24.8537 14.2201 25.2844C9.76703 27.7039 5.31536 30.1284 0.865092 32.5577C0.2379 32.8943 0.001659 33.3772 0.00374964 34.0797C0.0148997 43.9085 0.0148997 53.7345 0.00374964 63.5577C-0.017942 63.8694 0.0548462 64.1803 0.212609 64.4499C0.370372 64.7196 0.605775 64.9354 0.888086 65.0692C9.8611 69.9474 18.8314 74.8339 27.7988 79.7288C28.1028 79.906 28.4483 79.9994 28.8002 79.9994C29.1521 79.9994 29.4976 79.906 29.8016 79.7288C38.7217 74.8631 47.6459 69.9983 56.5744 65.134C57.2705 64.7556 57.5904 64.2706 57.5883 63.4615C57.5549 53.6829 57.5458 43.9043 57.5611 34.1257ZM54.4377 63.4322C46.5351 67.718 38.6415 72.0199 30.757 76.3377C30.6848 76.3753 30.6126 76.4118 30.541 76.4481L30.5404 76.4484C30.4049 76.517 30.2716 76.5845 30.1445 76.6555C29.9768 76.5182 29.997 76.3565 30.0158 76.2049C30.0217 76.158 30.0274 76.1121 30.0274 76.0681V50.1964C30.0274 49.8326 30.0274 49.5337 30.4455 49.3058C38.5711 44.8918 46.6919 40.4659 54.8078 36.0282C54.8917 36.002 54.9777 35.9832 55.0649 35.9717V36.7139C55.0649 45.2604 55.0691 53.8063 55.0774 62.3514C55.0607 62.8803 54.9269 63.1709 54.4377 63.4364V63.4322ZM27.9011 40.024C25.4774 41.4373 23.0383 42.8255 20.5839 44.1886C20.1281 44.4416 19.9943 44.7155 19.9964 45.2172C20.0134 47.5492 20.011 49.88 20.0086 52.2105V52.2111V52.2112V52.2113C20.0077 53.0333 20.0069 53.8554 20.0069 54.6774C20.0048 56.1889 19.1079 56.7157 17.8159 55.9798C16.7237 55.3584 15.6339 54.7328 14.5442 54.1073L14.5439 54.1072L14.543 54.1067C12.9276 53.1795 11.3123 52.2523 9.68957 51.3386C9.38477 51.1954 9.1303 50.9635 8.95946 50.6733C8.78861 50.3831 8.70934 50.0481 8.73204 49.7121C8.75713 46.1942 8.75713 42.6757 8.73204 39.1565C8.70733 38.8204 8.78473 38.4846 8.9541 38.1933C9.12346 37.9019 9.37691 37.6685 9.6812 37.5237C11.3794 36.5695 13.0662 35.6022 14.7554 34.6337L14.7561 34.6332L14.7569 34.6328C15.7726 34.0504 16.7892 33.4674 17.8096 32.8866C17.8356 32.8716 17.8616 32.8565 17.8876 32.8413C18.1524 32.687 18.4209 32.5304 18.7483 32.5438C19.0363 32.5491 19.3162 32.6393 19.5532 32.803C20.1882 33.1646 20.8234 33.5257 21.4586 33.8868L21.4603 33.8878L21.4606 33.888C23.627 35.1197 25.7931 36.3512 27.9492 37.5989C29.0949 38.2616 29.0698 39.3488 27.9011 40.024ZM17.4876 44.3308C17.473 43.4276 17.7908 42.8673 18.5706 42.4492C19.8295 41.7582 21.0781 41.0488 22.3545 40.3235L22.3546 40.3235C23.2254 39.8287 24.1092 39.3265 25.0181 38.8177C24.4844 38.513 23.9588 38.2137 23.4396 37.918L23.4387 37.9175L23.4319 37.9137L23.4315 37.9134C21.9479 37.0687 20.5155 36.253 19.0912 35.4226C18.7708 35.2352 18.5546 35.3635 18.3236 35.5004C18.2968 35.5163 18.2697 35.5324 18.2424 35.548C17.5811 35.9255 16.9206 36.3044 16.2602 36.6832L16.2596 36.6836L16.259 36.6839C14.7544 37.5469 13.2499 38.4099 11.7363 39.2568C11.5757 39.3256 11.4411 39.4437 11.3521 39.5941C11.263 39.7444 11.224 39.9191 11.2408 40.0931C11.2575 42.9879 11.2575 45.882 11.2408 48.7755C11.2184 48.9504 11.2534 49.128 11.3405 49.2814C11.4275 49.4348 11.562 49.5559 11.7238 49.6264C12.6314 50.1174 13.5269 50.6337 14.4223 51.15L14.423 51.1505L14.4238 51.1509C14.8127 51.3752 15.2016 51.5994 15.5914 51.8215C16.0499 52.0835 16.5119 52.3432 16.999 52.617L17.5064 52.9024C17.5064 52.0988 17.5085 51.3045 17.5105 50.5171V50.5169C17.5158 48.4222 17.5211 46.3759 17.4876 44.3308ZM48.2079 56.3107L48.2089 56.3101L48.2092 56.3099C49.008 55.8519 49.8066 55.394 50.6055 54.9369C50.8029 54.8394 50.9707 54.6912 51.0919 54.5076C51.2132 54.3239 51.2834 54.1113 51.2955 53.8916C51.2808 52.8212 50.2752 52.2441 49.3783 52.7501C46.4807 54.3794 43.5956 56.0296 40.7231 57.7007C40.0206 58.1063 39.8408 58.7983 40.1963 59.4255C40.2756 59.5765 40.3857 59.7093 40.5194 59.8153C40.6531 59.9213 40.8074 59.9982 40.9725 60.0411C41.1377 60.084 41.3099 60.0919 41.4783 60.0644C41.6467 60.0369 41.8074 59.9745 41.9503 59.8812C44.0414 58.6997 46.1249 57.505 48.2079 56.3107ZM46.313 60.7607C47.2729 60.2108 48.2326 59.661 49.1964 59.1163C50.0494 58.6354 50.7853 58.8111 51.1407 59.4842C51.4961 60.1574 51.2703 60.818 50.4508 61.2884C47.6577 62.8885 44.8625 64.4851 42.0653 66.0781C41.8284 66.2431 41.5469 66.3321 41.2583 66.3332C40.9816 66.3336 40.7131 66.2395 40.4971 66.0665C40.2812 65.8935 40.1308 65.652 40.0708 65.3819C39.9056 64.7526 40.1774 64.2676 40.7419 63.9456L45.0695 61.4724C45.4843 61.2354 45.8986 60.9981 46.313 60.7607Z" fill="#599E43"/>
<path opacity="0.4" d="M53 61L29 73.5L6 61V36.5L29 24L53 36.5V61Z" fill="#599E43"/>
</svg>
