<svg width="40" height="40" viewBox="0 0 40 40" fill="none" xmlns="http://www.w3.org/2000/svg">
<path fill-rule="evenodd" clip-rule="evenodd" d="M12.7784 8.33398L13.681 6.3033C14.4835 4.49765 16.2741 3.33398 18.25 3.33398H21.7513C23.7272 3.33398 25.5178 4.49765 26.3203 6.30328L27.2228 8.33398H31.6673C34.4288 8.33398 36.6673 10.5726 36.6673 13.334V31.6673C36.6673 34.4288 34.4288 36.6673 31.6673 36.6673H8.33398C5.57257 36.6673 3.33398 34.4288 3.33398 31.6673V13.334C3.33398 10.5726 5.57257 8.33398 8.33398 8.33398H12.7784ZM18.25 5.83398H21.7513C22.7393 5.83398 23.6345 6.41582 24.0358 7.31863L24.4872 8.33398H15.5142L15.9655 7.31863C16.3667 6.41582 17.262 5.83398 18.25 5.83398ZM8.33398 10.834C6.95327 10.834 5.83398 11.9533 5.83398 13.334V31.6673C5.83398 33.048 6.95327 34.1673 8.33398 34.1673H31.6673C33.048 34.1673 34.1673 33.048 34.1673 31.6673V13.334C34.1673 11.9533 33.048 10.834 31.6673 10.834H8.33398Z" fill="#599E43"/>
<path fill-rule="evenodd" clip-rule="evenodd" d="M24.5547 23.334H31.6673C34.4288 23.334 36.6673 21.0955 36.6673 18.334V13.334C36.6673 10.5726 34.4288 8.33398 31.6673 8.33398H8.33398C5.57257 8.33398 3.33398 10.5726 3.33398 13.334V18.334C3.33398 21.0955 5.57257 23.334 8.33398 23.334H15.4466C16.0229 24.3303 17.1002 25.0007 18.334 25.0007H21.6673C22.9012 25.0007 23.9783 24.3303 24.5547 23.334ZM31.6673 10.834H8.33398C6.95327 10.834 5.83398 11.9533 5.83398 13.334V18.334C5.83398 19.7147 6.95327 20.834 8.33398 20.834H15.1057C15.4757 19.3963 16.7808 18.334 18.334 18.334H21.6673C23.2205 18.334 24.5257 19.3963 24.8957 20.834H31.6673C33.048 20.834 34.1673 19.7147 34.1673 18.334V13.334C34.1673 11.9533 33.048 10.834 31.6673 10.834ZM18.334 20.834H21.6673C22.1275 20.834 22.5007 21.2072 22.5007 21.6673C22.5007 22.1275 22.1275 22.5007 21.6673 22.5007H18.334C17.8738 22.5007 17.5007 22.1275 17.5007 21.6673C17.5007 21.2072 17.8738 20.834 18.334 20.834Z" fill="#599E43"/>
</svg>
