<svg width="24" height="24" viewBox="0 0 24 24" fill="none" xmlns="http://www.w3.org/2000/svg">
<path d="M6.86035 4.81V2.75" stroke="white" stroke-width="1.5" stroke-linecap="round" stroke-linejoin="round"/>
<path d="M17.1396 4.81V2.75" stroke="white" stroke-width="1.5" stroke-linecap="round" stroke-linejoin="round"/>
<path d="M18.05 3.7793H5.95C4.18 3.7793 2.75 5.20929 2.75 6.97929V18.0593C2.75 19.8293 4.18 21.2593 5.95 21.2593H18.06C19.83 21.2593 21.26 19.8293 21.26 18.0593V6.97929C21.25 5.20929 19.82 3.7793 18.05 3.7793Z" stroke="white" stroke-width="1.5" stroke-linecap="round" stroke-linejoin="round"/>
<path d="M2.75 7.89844H21.25" stroke="white" stroke-width="1.5" stroke-linecap="round" stroke-linejoin="round"/>
<path d="M18.5 11C18.5 11.2761 18.2761 11.5 18 11.5C17.7239 11.5 17.5 11.2761 17.5 11C17.5 10.7239 17.7239 10.5 18 10.5C18.2761 10.5 18.5 10.7239 18.5 11Z" fill="black" stroke="white"/>
<path d="M14.5 11C14.5 11.2761 14.2761 11.5 14 11.5C13.7239 11.5 13.5 11.2761 13.5 11C13.5 10.7239 13.7239 10.5 14 10.5C14.2761 10.5 14.5 10.7239 14.5 11Z" fill="black" stroke="white"/>
<path d="M10.5 11C10.5 11.2761 10.2761 11.5 10 11.5C9.72386 11.5 9.5 11.2761 9.5 11C9.5 10.7239 9.72386 10.5 10 10.5C10.2761 10.5 10.5 10.7239 10.5 11Z" fill="black" stroke="white"/>
<path d="M6.5 11C6.5 11.2761 6.27614 11.5 6 11.5C5.72386 11.5 5.5 11.2761 5.5 11C5.5 10.7239 5.72386 10.5 6 10.5C6.27614 10.5 6.5 10.7239 6.5 11Z" fill="black" stroke="white"/>
<path d="M18.5 14.4902C18.5 14.7664 18.2761 14.9902 18 14.9902C17.7239 14.9902 17.5 14.7664 17.5 14.4902C17.5 14.2141 17.7239 13.9902 18 13.9902C18.2761 13.9902 18.5 14.2141 18.5 14.4902Z" fill="black" stroke="white"/>
<path d="M14.5 14.4902C14.5 14.7664 14.2761 14.9902 14 14.9902C13.7239 14.9902 13.5 14.7664 13.5 14.4902C13.5 14.2141 13.7239 13.9902 14 13.9902C14.2761 13.9902 14.5 14.2141 14.5 14.4902Z" fill="black" stroke="white"/>
<path d="M10.5 14.4902C10.5 14.7664 10.2761 14.9902 10 14.9902C9.72386 14.9902 9.5 14.7664 9.5 14.4902C9.5 14.2141 9.72386 13.9902 10 13.9902C10.2761 13.9902 10.5 14.2141 10.5 14.4902Z" fill="black" stroke="white"/>
<path d="M6.5 14.4902C6.5 14.7664 6.27614 14.9902 6 14.9902C5.72386 14.9902 5.5 14.7664 5.5 14.4902C5.5 14.2141 5.72386 13.9902 6 13.9902C6.27614 13.9902 6.5 14.2141 6.5 14.4902Z" fill="black" stroke="white"/>
<path d="M14.5 17.9707C14.5 18.2468 14.2761 18.4707 14 18.4707C13.7239 18.4707 13.5 18.2468 13.5 17.9707C13.5 17.6946 13.7239 17.4707 14 17.4707C14.2761 17.4707 14.5 17.6946 14.5 17.9707Z" fill="black" stroke="white"/>
<path d="M10.5 17.9707C10.5 18.2468 10.2761 18.4707 10 18.4707C9.72386 18.4707 9.5 18.2468 9.5 17.9707C9.5 17.6946 9.72386 17.4707 10 17.4707C10.2761 17.4707 10.5 17.6946 10.5 17.9707Z" fill="black" stroke="white"/>
<path d="M6.5 17.9707C6.5 18.2468 6.27614 18.4707 6 18.4707C5.72386 18.4707 5.5 18.2468 5.5 17.9707C5.5 17.6946 5.72386 17.4707 6 17.4707C6.27614 17.4707 6.5 17.6946 6.5 17.9707Z" fill="black" stroke="white"/>
</svg>
