<svg width="16" height="16" viewBox="0 0 16 16" fill="none" xmlns="http://www.w3.org/2000/svg">
<path d="M4.57422 3.20732V1.83398" stroke="#599E43" stroke-width="1.5" stroke-linecap="round" stroke-linejoin="round"/>
<path d="M11.4268 3.20732V1.83398" stroke="#599E43" stroke-width="1.5" stroke-linecap="round" stroke-linejoin="round"/>
<path d="M12.034 2.52051H3.96732C2.78732 2.52051 1.83398 3.47384 1.83398 4.65384V12.0405C1.83398 13.2205 2.78732 14.1738 3.96732 14.1738H12.0406C13.2206 14.1738 14.174 13.2205 14.174 12.0405V4.65384C14.1673 3.47384 13.214 2.52051 12.034 2.52051Z" stroke="#599E43" stroke-width="1.5" stroke-linecap="round" stroke-linejoin="round"/>
<path d="M1.83398 5.2666H14.1673" stroke="#599E43" stroke-width="1.5" stroke-linecap="round" stroke-linejoin="round"/>
<path d="M12.1673 7.33366C12.1673 7.42571 12.0927 7.50033 12.0007 7.50033C11.9086 7.50033 11.834 7.42571 11.834 7.33366C11.834 7.24161 11.9086 7.16699 12.0007 7.16699C12.0927 7.16699 12.1673 7.24161 12.1673 7.33366Z" fill="black" stroke="#599E43"/>
<path d="M9.49935 7.33366C9.49935 7.42571 9.42473 7.50033 9.33268 7.50033C9.24063 7.50033 9.16602 7.42571 9.16602 7.33366C9.16602 7.24161 9.24063 7.16699 9.33268 7.16699C9.42473 7.16699 9.49935 7.24161 9.49935 7.33366Z" fill="black" stroke="#599E43"/>
<path d="M6.83333 7.33366C6.83333 7.42571 6.75871 7.50033 6.66667 7.50033C6.57462 7.50033 6.5 7.42571 6.5 7.33366C6.5 7.24161 6.57462 7.16699 6.66667 7.16699C6.75871 7.16699 6.83333 7.24161 6.83333 7.33366Z" fill="black" stroke="#599E43"/>
<path d="M4.16732 7.33366C4.16732 7.42571 4.0927 7.50033 4.00065 7.50033C3.9086 7.50033 3.83398 7.42571 3.83398 7.33366C3.83398 7.24161 3.9086 7.16699 4.00065 7.16699C4.0927 7.16699 4.16732 7.24161 4.16732 7.33366Z" fill="black" stroke="#599E43"/>
<path d="M12.1673 9.66081C12.1673 9.75285 12.0927 9.82747 12.0007 9.82747C11.9086 9.82747 11.834 9.75285 11.834 9.66081C11.834 9.56876 11.9086 9.49414 12.0007 9.49414C12.0927 9.49414 12.1673 9.56876 12.1673 9.66081Z" fill="black" stroke="#599E43"/>
<path d="M9.49935 9.66081C9.49935 9.75285 9.42473 9.82747 9.33268 9.82747C9.24063 9.82747 9.16602 9.75285 9.16602 9.66081C9.16602 9.56876 9.24063 9.49414 9.33268 9.49414C9.42473 9.49414 9.49935 9.56876 9.49935 9.66081Z" fill="black" stroke="#599E43"/>
<path d="M6.83333 9.66081C6.83333 9.75285 6.75871 9.82747 6.66667 9.82747C6.57462 9.82747 6.5 9.75285 6.5 9.66081C6.5 9.56876 6.57462 9.49414 6.66667 9.49414C6.75871 9.49414 6.83333 9.56876 6.83333 9.66081Z" fill="black" stroke="#599E43"/>
<path d="M4.16732 9.66081C4.16732 9.75285 4.0927 9.82747 4.00065 9.82747C3.9086 9.82747 3.83398 9.75285 3.83398 9.66081C3.83398 9.56876 3.9086 9.49414 4.00065 9.49414C4.0927 9.49414 4.16732 9.56876 4.16732 9.66081Z" fill="black" stroke="#599E43"/>
<path d="M9.49935 11.9811C9.49935 12.0732 9.42473 12.1478 9.33268 12.1478C9.24063 12.1478 9.16602 12.0732 9.16602 11.9811C9.16602 11.8891 9.24063 11.8145 9.33268 11.8145C9.42473 11.8145 9.49935 11.8891 9.49935 11.9811Z" fill="black" stroke="#599E43"/>
<path d="M6.83333 11.9811C6.83333 12.0732 6.75871 12.1478 6.66667 12.1478C6.57462 12.1478 6.5 12.0732 6.5 11.9811C6.5 11.8891 6.57462 11.8145 6.66667 11.8145C6.75871 11.8145 6.83333 11.8891 6.83333 11.9811Z" fill="black" stroke="#599E43"/>
<path d="M4.16732 11.9811C4.16732 12.0732 4.0927 12.1478 4.00065 12.1478C3.9086 12.1478 3.83398 12.0732 3.83398 11.9811C3.83398 11.8891 3.9086 11.8145 4.00065 11.8145C4.0927 11.8145 4.16732 11.8891 4.16732 11.9811Z" fill="black" stroke="#599E43"/>
</svg>
