<svg width="80" height="80" viewBox="0 0 80 80" fill="none" xmlns="http://www.w3.org/2000/svg">
<path fill-rule="evenodd" clip-rule="evenodd" d="M68.8412 69.5379C69.4315 69.5458 70.0196 69.5537 70.6078 69.53C71.2391 69.5037 71.6994 69.7085 72 70.2608V70.9635C71.6148 71.5253 71.0644 71.6399 70.4162 71.6399H1.58384C1.41971 71.6452 1.2554 71.6421 1.09159 71.6305C0.420854 71.5629 0 71.1796 0 70.5689C0 69.9583 0.445282 69.5581 1.16487 69.5337C1.40382 69.5202 1.64277 69.5188 1.88173 69.5175C2.04108 69.5166 2.20044 69.5157 2.35979 69.5112C2.3809 69.5112 2.40399 69.4987 2.44225 69.478C2.46869 69.4637 2.50238 69.4455 2.54767 69.4248C2.55075 69.3546 2.55524 69.2806 2.55989 69.204C2.56942 69.0469 2.57961 68.8788 2.57961 68.7108V62.5239C2.56926 62.2662 2.58944 62.0083 2.63973 61.7554C2.69688 61.5291 2.82935 61.329 3.01535 61.188C3.20135 61.047 3.42981 60.9736 3.66313 60.9797C3.89645 60.9858 4.12074 61.0712 4.29909 61.2217C4.47744 61.3723 4.59923 61.5791 4.64443 61.808C4.68175 62.063 4.69559 62.3209 4.68577 62.5784V68.6958V69.4886H7.50399V68.6977V62.3097C7.51339 60.5567 8.45091 59.6173 10.202 59.6173H11.9549V56.8649C9.73979 56.6713 7.65993 56.7427 6.03476 58.5257C5.44105 59.1777 4.72897 59.2153 4.29121 58.6516C3.89666 58.1425 3.99436 57.6483 4.40395 57.1899C5.08423 56.4104 5.92295 55.785 6.86414 55.3554C7.80532 54.9258 8.82731 54.7019 9.86191 54.6986C10.3047 54.6887 10.7458 54.6918 11.21 54.6951C11.451 54.6968 11.6981 54.6986 11.9549 54.6986V50.7099V48.1077C11.9662 46.6385 12.6839 45.9245 14.1663 45.9076C14.7938 45.9001 22.3091 45.8606 22.3091 45.8606V26.924C22.3009 26.6665 22.3078 26.4086 22.3297 26.1519C22.3391 25.9141 22.4385 25.6887 22.6076 25.5213C22.7767 25.3539 23.0031 25.257 23.241 25.25C23.8065 25.1918 24.2029 25.4379 24.3476 26.0015C24.405 26.2757 24.4278 26.5559 24.4152 26.8358V44.9757V45.855H38.8427V17.359H24.4133V19.5722C24.4133 19.8227 24.415 20.0733 24.4167 20.3238C24.42 20.8248 24.4234 21.3258 24.4133 21.8268C24.3983 22.6366 23.9568 23.1138 23.3218 23.0969C22.6867 23.08 22.3109 22.631 22.3109 21.8381V17.3797C22.2308 17.3694 22.1495 17.3603 22.0682 17.3513C21.3324 17.2695 20.5959 17.1877 20.667 16.181C20.7327 15.2397 21.5162 15.1927 22.2677 15.1814V11.1589C22.1941 11.1525 22.1216 11.147 22.0499 11.1415C21.891 11.1294 21.736 11.1176 21.582 11.0969C21.0164 11.0217 20.6895 10.6911 20.6557 10.1274C20.6245 9.87852 20.692 9.6273 20.8437 9.4275C20.9954 9.22771 21.2192 9.09522 21.4674 9.05839C21.6968 9.01315 21.9307 8.99423 22.1644 9.00202H41.1404C41.4209 8.99099 41.7013 9.02525 41.9709 9.10348C42.1842 9.18196 42.3656 9.32882 42.4867 9.52119C42.6078 9.71356 42.6619 9.94061 42.6404 10.1669C42.619 10.3932 42.5232 10.6061 42.3681 10.7723C42.213 10.9384 42.0073 11.0486 41.783 11.0856C41.6431 11.1085 41.5006 11.1142 41.337 11.1207C41.2588 11.1238 41.1758 11.1271 41.086 11.1326V14.9917C41.5636 15.2004 42.0269 15.4408 42.4725 15.7113C42.6134 15.8071 42.6397 16.1378 42.6397 16.3595C42.6134 16.9945 42.2433 17.2181 41.0747 17.3703V25.7047C41.1351 25.7075 41.1975 25.7112 41.2614 25.7149C41.4101 25.7237 41.5665 25.7329 41.7229 25.7329C42.1055 25.7329 42.4884 25.7366 42.8713 25.7404C43.637 25.7479 44.4027 25.7554 45.1667 25.7329C46.4932 25.6934 47.5547 26.165 48.4829 27.1195C49.974 28.6511 51.4903 30.1585 53.0068 31.666C53.6017 32.2574 54.1966 32.8488 54.79 33.4417C54.8964 33.548 55.0088 33.6491 55.1452 33.7717C55.2089 33.8289 55.2778 33.8909 55.3537 33.9602V29.5337C54.2752 29.3045 53.9032 29.034 53.8882 28.4064C53.8732 27.7789 54.2696 27.4614 55.3462 27.2622V23.6587C54.279 23.4971 53.8469 23.1439 53.8901 22.4825C53.9371 21.7836 54.4312 21.483 55.5378 21.483H67.8422C68.0757 21.4658 68.3104 21.4772 68.5411 21.5168C69.0784 21.6446 69.3903 22.0203 69.3697 22.584C69.3718 22.822 69.2877 23.0528 69.133 23.2338C68.9783 23.4147 68.7634 23.5336 68.528 23.5685C68.3333 23.5984 68.1368 23.6154 67.9399 23.6192V27.2472C69.0409 27.4839 69.3828 27.7582 69.3753 28.397C69.3678 29.0358 68.9808 29.344 67.9512 29.4999V69.53C68.2486 69.53 68.5451 69.5339 68.8412 69.5379ZM24.4753 15.1683H38.8427V11.1533H24.4753V15.1683ZM9.66463 69.4867H11.9192V61.7103C11.7207 61.7103 11.5323 61.715 11.3506 61.7196C11.0061 61.7282 10.6859 61.7362 10.3673 61.7103C9.78487 61.6596 9.597 61.8776 9.597 62.4619C9.61672 64.0779 9.61425 65.693 9.61179 67.3077C9.61096 67.8462 9.61014 68.3847 9.61014 68.9231C9.61014 69.0522 9.62611 69.176 9.6428 69.3054C9.65041 69.3643 9.65816 69.4244 9.66463 69.4867ZM42.3337 27.8606C41.9116 27.8629 41.4871 27.8653 41.0597 27.8653V30.6648C41.3691 30.6648 41.673 30.6679 41.9729 30.671C42.66 30.678 43.3262 30.6849 43.9906 30.6535C44.3267 30.6298 44.6637 30.6835 44.9758 30.8106C45.2878 30.9376 45.5665 31.1345 45.7905 31.3862C47.9365 33.5648 50.1002 35.7228 52.2687 37.8857C53.1037 38.7185 53.9393 39.552 54.775 40.3877C54.8753 40.4857 54.9804 40.5804 55.106 40.6936C55.1898 40.7691 55.2827 40.8528 55.3894 40.9513C55.3894 40.6059 55.3908 40.2717 55.3921 39.9456C55.3957 39.0622 55.3991 38.2388 55.3744 37.4154C55.3513 37.1465 55.2366 36.8938 55.0493 36.6995C52.315 33.9352 49.5651 31.1871 46.7994 28.4553C46.5326 28.1829 46.1362 27.9048 45.7905 27.8916C44.6447 27.8475 43.4979 27.854 42.3337 27.8606ZM30.4951 69.498H43.8347V63.2848H30.4951V69.498ZM46.0178 69.5074H60.2029L60.2048 48.0025H59.3255C58.3418 48.0025 57.3578 48.0037 56.3737 48.005C54.4052 48.0075 52.436 48.01 50.4669 48.0025C49.7078 47.9987 49.2306 47.5591 49.2288 46.9428C49.2269 46.3266 49.7041 45.9132 50.4688 45.902C51.1539 45.8957 51.8424 45.8978 52.5309 45.8999C52.8751 45.9009 53.2193 45.902 53.5632 45.902H55.3913C55.4133 45.4192 55.4083 44.9356 55.3762 44.4534C55.3529 44.163 55.2407 43.8868 55.055 43.6624C51.5491 40.139 48.0376 36.6237 44.5204 33.1166C44.3852 32.9757 44.1841 32.7878 44.0094 32.7878C43.2714 32.7637 42.5312 32.7664 41.7848 32.7691C41.545 32.77 41.3046 32.7709 41.0634 32.7709V45.902H41.9389C42.3645 45.9031 42.7901 45.9029 43.2156 45.9026C44.1729 45.902 45.1301 45.9014 46.0874 45.917C46.6848 45.9377 47.0474 46.2984 47.1001 46.8771C47.1527 47.4557 46.7807 47.8916 46.1606 47.9837C45.9042 48.0113 45.6461 48.0201 45.3885 48.01H14.0949V69.468H28.3401V68.645V62.4562C28.3401 61.5168 28.7158 61.1411 29.6552 61.1411H44.6332C45.6271 61.1411 45.984 61.4999 45.984 62.4976V68.7559C45.984 68.9183 45.9937 69.0799 46.0035 69.2443C46.0087 69.331 46.014 69.4186 46.0178 69.5074ZM65.0347 69.537C65.2699 69.5363 65.5055 69.5356 65.7417 69.5356L65.736 29.4905H57.5294V45.9151C57.8735 45.9151 58.2108 45.9113 58.5434 45.9074C59.1949 45.9 59.8284 45.8927 60.4603 45.9151C61.5575 45.9527 62.2396 46.631 62.3391 47.715C62.3598 47.995 62.3598 48.2768 62.3598 48.5586V68.5154C62.3348 68.7244 62.3411 68.9359 62.3786 69.143C62.4293 69.2951 62.6078 69.5187 62.7356 69.5187C63.4997 69.5417 64.265 69.5394 65.0347 69.537ZM57.5463 27.2754H65.7529V23.6286H57.5463V27.2754ZM19.5377 50.623H54.6885C56.0206 50.623 56.2912 50.8936 56.2968 52.2276V56.4455C56.2912 57.4976 55.9492 57.8621 54.9196 57.8621H19.41C18.3804 57.8621 18.0046 57.4864 18.0046 56.4624V52.1731C18.0065 50.9443 18.3222 50.623 19.5377 50.623ZM20.1521 55.7128H24.0638L24.0695 52.7799H20.1521V55.7128ZM26.2733 55.7128H30.0309V52.7649H26.2733V55.7128ZM32.2479 55.7128H36.0657L36.0713 52.7837H32.2479V55.7128ZM38.2583 55.7128H42.0422L42.0478 52.7912H38.2583V55.7128ZM44.2611 55.7259H48.0281L48.0338 52.7818H44.2611V55.7259ZM50.2414 55.7259H54.138L54.1437 52.7931H50.2414V55.7259Z" fill="#599E43"/>
<rect opacity="0.4" x="29.7" y="63" width="15.3" height="7.2" fill="#599E43"/>
<rect opacity="0.4" x="18.8999" y="51.3008" width="36" height="5.4" fill="#599E43"/>
</svg>
