<svg width="45" height="42" viewBox="0 0 45 42" fill="none" xmlns="http://www.w3.org/2000/svg">
<path d="M43.3255 10.5171L43.7793 11.1142C44.0357 10.9194 44.1391 10.5828 44.0363 10.2777C43.9335 9.97256 43.6475 9.76709 43.3255 9.76709V10.5171ZM31.6976 19.3543V20.1043C31.8615 20.1043 32.0209 20.0506 32.1514 19.9514L31.6976 19.3543ZM1.93018 19.3543L1.49856 18.7409C1.23113 18.9291 1.11645 19.2689 1.21515 19.5807C1.31385 19.8924 1.60317 20.1043 1.93018 20.1043L1.93018 19.3543ZM17.6542 10.5171V9.76709V10.5171ZM42.8717 9.91997L31.2438 18.7572L32.1514 19.9514L43.7793 11.1142L42.8717 9.91997ZM31.6976 18.6043H1.93018V20.1043H31.6976V18.6043ZM2.3618 19.9677L12.3309 12.9524L11.4676 11.7257L1.49856 18.7409L2.3618 19.9677ZM17.6542 11.2671H43.3255V9.76709H17.6542V11.2671ZM12.3309 12.9524C13.8893 11.8557 15.7485 11.2671 17.6542 11.2671V9.76709C15.4395 9.76709 13.2788 10.4511 11.4676 11.7257L12.3309 12.9524Z" fill="#599E43"/>
<path d="M31.6977 19.3545H32.4477C32.4477 18.9403 32.1119 18.6045 31.6977 18.6045V19.3545ZM31.6977 40.7498V41.4998C32.1119 41.4998 32.4477 41.1641 32.4477 40.7498H31.6977ZM2.5 20.1045H31.6977V18.6045H2.5V20.1045ZM30.9477 19.3545V40.7498H32.4477V19.3545H30.9477ZM31.6977 39.9998H4V41.4998H31.6977V39.9998ZM1.75 37.7498V20.8545H0.25V37.7498H1.75ZM4 39.9998C2.75736 39.9998 1.75 38.9925 1.75 37.7498H0.25C0.25 39.8209 1.92893 41.4998 4 41.4998V39.9998ZM2.5 18.6045C1.25736 18.6045 0.25 19.6119 0.25 20.8545H1.75C1.75 20.4403 2.08579 20.1045 2.5 20.1045V18.6045Z" fill="#599E43"/>
<path opacity="0.4" d="M3 21.7495H29V38.7495H4C3.44772 38.7495 3 38.3018 3 37.7495V21.7495Z" fill="#599E43"/>
<path d="M31.6978 19.3543L31.2439 18.7572C31.0573 18.899 30.9478 19.1199 30.9478 19.3543H31.6978ZM43.3257 10.5171H44.0757C44.0757 10.2322 43.9142 9.97182 43.6589 9.8452C43.4037 9.71859 43.0987 9.74756 42.8718 9.91997L43.3257 10.5171ZM31.6978 40.7496H30.9478C30.9478 41.0458 31.1221 41.3143 31.3926 41.4348C31.6632 41.5553 31.9793 41.5053 32.1995 41.3071L31.6978 40.7496ZM41.3394 32.0721L40.8377 31.5147L41.3394 32.0721ZM32.1516 19.9514L43.7795 11.1142L42.8718 9.91997L31.2439 18.7572L32.1516 19.9514ZM42.5757 10.5171V27.6124H44.0757V10.5171H42.5757ZM40.8377 31.5147L31.196 40.1922L32.1995 41.3071L41.8412 32.6296L40.8377 31.5147ZM32.4478 40.7496V19.3543H30.9478V40.7496H32.4478ZM42.5757 27.6124C42.5757 29.1007 41.944 30.519 40.8377 31.5147L41.8412 32.6296C43.2635 31.3495 44.0757 29.5259 44.0757 27.6124H42.5757Z" fill="#599E43"/>
<path d="M33.7207 14.0054L29.3021 17.2612H16.9766L22.558 14.0054" stroke="#599E43" stroke-width="1.5" stroke-linecap="round" stroke-linejoin="round"/>
<path d="M9 19.3543L20.8605 10.5171" stroke="#599E43" stroke-width="1.5" stroke-linecap="round" stroke-linejoin="round"/>
<path fill-rule="evenodd" clip-rule="evenodd" d="M35.2407 0.880296L35.3181 1.48095C35.4551 2.54374 36.3045 3.38819 37.3963 3.54707L37.6132 3.57863C37.788 3.60406 37.788 3.8485 37.6132 3.87393L37.3963 3.90548C36.3045 4.06436 35.4551 4.90882 35.3181 5.9716L35.2407 6.57226C35.2182 6.74664 34.9577 6.74664 34.9353 6.57226L34.856 5.95725C34.72 4.90125 33.8802 4.05991 32.7966 3.89393L32.6648 3.87375C32.4916 3.84722 32.4916 3.60533 32.6648 3.5788L32.7966 3.55862C33.8802 3.39265 34.72 2.55131 34.856 1.49531L34.9353 0.880296C34.9577 0.705917 35.2182 0.705917 35.2407 0.880296ZM29.7655 5.49007L29.8897 6.21432C30.0708 7.27089 30.9416 8.07248 32.0095 8.16571C32.265 8.18801 32.3064 8.54452 32.0628 8.62475L31.882 8.68428C30.8562 9.02215 30.1231 9.92925 30.0081 11.0031L29.6783 14.0813C29.6504 14.3417 29.2744 14.3496 29.2355 14.0907L28.758 10.9069C28.6042 9.88179 27.8938 9.02689 26.9141 8.68808L26.7426 8.62877C26.499 8.54452 26.5423 8.18765 26.799 8.16412C27.8205 8.07048 28.6689 7.33637 28.9083 6.33885L29.1171 5.46873C29.2011 5.11863 29.7047 5.1352 29.7655 5.49007Z" fill="#599E43"/>
</svg>
