<svg width="44" height="54" viewBox="0 0 44 54" fill="none" xmlns="http://www.w3.org/2000/svg">
<g filter="url(#filter0_d_679_1828)">
<mask id="path-1-outside-1_679_1828" maskUnits="userSpaceOnUse" x="3.75" y="0" width="37" height="46" fill="black">
<rect fill="white" x="3.75" width="37" height="46"/>
<path d="M12.7925 11.1954C3.13663 19.2414 5.51227 32.0383 7.73449 37.8621L9.34418 42C10.723 39.0115 14.1713 38.4847 17.1598 37.8621C43.6426 32.3448 39.3824 12.1916 35.0912 2C30.0332 3.6092 20.8 4.52289 12.7925 11.1954Z"/>
</mask>
<path d="M12.7925 11.1954C3.13663 19.2414 5.51227 32.0383 7.73449 37.8621L9.34418 42C10.723 39.0115 14.1713 38.4847 17.1598 37.8621C43.6426 32.3448 39.3824 12.1916 35.0912 2C30.0332 3.6092 20.8 4.52289 12.7925 11.1954Z" fill="#245F12"/>
<path d="M7.73449 37.8621L6.33302 38.3968L6.33654 38.4059L7.73449 37.8621ZM12.7925 11.1954L13.7527 12.3478L12.7925 11.1954ZM35.0912 2L36.4737 1.41791L35.942 0.15524L34.6365 0.570596L35.0912 2ZM17.1598 37.8621L17.4657 39.3305L17.1598 37.8621ZM9.34418 42L7.94623 42.5438L9.22663 45.8353L10.7062 42.6284L9.34418 42ZM9.13593 37.3273C8.07961 34.559 6.98894 30.1248 7.30575 25.4638C7.62033 20.8355 9.31157 16.0485 13.7527 12.3478L11.8322 10.043C6.61752 14.3883 4.66866 20.0227 4.31266 25.2603C3.95888 30.4652 5.16714 35.3413 6.33305 38.3968L9.13593 37.3273ZM13.7527 12.3478C21.4594 5.92591 30.1233 5.15462 35.546 3.4294L34.6365 0.570596C29.9431 2.06377 20.1406 3.11987 11.8322 10.043L13.7527 12.3478ZM33.7088 2.58209C35.8146 7.58346 37.8018 14.8 36.2085 21.3283C35.4218 24.5517 33.7591 27.6262 30.7548 30.2309C27.7372 32.8472 23.2927 35.0522 16.8539 36.3936L17.4657 39.3305C24.2683 37.9133 29.2223 35.5302 32.7201 32.4976C36.2312 29.4533 38.2008 25.818 39.123 22.0396C40.9475 14.564 38.659 6.60811 36.4737 1.41791L33.7088 2.58209ZM16.8539 36.3936C15.4347 36.6893 13.6469 37.0068 12.0744 37.658C10.4482 38.3314 8.88022 39.4251 7.98216 41.3716L10.7062 42.6284C11.187 41.5864 12.0325 40.9224 13.2223 40.4297C14.4658 39.9147 15.8964 39.6575 17.4657 39.3305L16.8539 36.3936ZM10.7421 41.4562L9.13244 37.3183L6.33654 38.4059L7.94623 42.5438L10.7421 41.4562Z" fill="#599E43" mask="url(#path-1-outside-1_679_1828)"/>
</g>
<path fill-rule="evenodd" clip-rule="evenodd" d="M20.9178 15.7097L21.75 16.75L22.5822 15.7097C22.9411 15.2611 23.4844 15 24.0589 15H24.2C25.1665 15 25.95 15.7835 25.95 16.75C25.95 16.9989 25.8981 17.2356 25.8044 17.45H27.35C28.1232 17.45 28.75 18.0768 28.75 18.85V20.95C28.75 21.4678 28.4689 21.9199 28.051 22.1621H22.2359V17.4622H21.2637V22.1621H15.449C15.0311 21.9199 14.75 21.4678 14.75 20.95V18.85C14.75 18.0768 15.3768 17.45 16.15 17.45H17.6956C17.602 17.2356 17.55 16.9989 17.55 16.75C17.55 15.7835 18.3335 15 19.3 15H19.4411C20.0156 15 20.5589 15.2611 20.9178 15.7097ZM15.45 23.1343V26.9C15.45 28.0598 16.3902 29 17.55 29H21.2637L21.2637 23.1343H15.45ZM22.2359 29H25.95C27.1098 29 28.05 28.0598 28.05 26.9V23.1343H22.2359L22.2359 29ZM24.2 17.45H22.5346L23.4021 16.3657C23.5617 16.1661 23.8034 16.05 24.0589 16.05H24.2C24.5866 16.05 24.9 16.3634 24.9 16.75C24.9 17.1366 24.5866 17.45 24.2 17.45ZM19.3 17.45C18.9134 17.45 18.6 17.1366 18.6 16.75C18.6 16.3634 18.9134 16.05 19.3 16.05H19.4411C19.6966 16.05 19.9383 16.1661 20.0979 16.3657L20.9654 17.45H19.3Z" fill="white"/>
<defs>
<filter id="filter0_d_679_1828" x="0.25" y="0.155273" width="43.5364" height="53.6802" filterUnits="userSpaceOnUse" color-interpolation-filters="sRGB">
<feFlood flood-opacity="0" result="BackgroundImageFix"/>
<feColorMatrix in="SourceAlpha" type="matrix" values="0 0 0 0 0 0 0 0 0 0 0 0 0 0 0 0 0 0 127 0" result="hardAlpha"/>
<feOffset dy="4"/>
<feGaussianBlur stdDeviation="2"/>
<feComposite in2="hardAlpha" operator="out"/>
<feColorMatrix type="matrix" values="0 0 0 0 0 0 0 0 0 0 0 0 0 0 0 0 0 0 0.4 0"/>
<feBlend mode="normal" in2="BackgroundImageFix" result="effect1_dropShadow_679_1828"/>
<feBlend mode="normal" in="SourceGraphic" in2="effect1_dropShadow_679_1828" result="shape"/>
</filter>
</defs>
</svg>
