<svg width="183" height="169" viewBox="0 0 183 169" fill="none" xmlns="http://www.w3.org/2000/svg">
<path d="M181 26.2589C155.846 36.4245 143.154 59.5282 142.923 95.5699H175.462V168H108.654V111.165C108.654 94.7613 109.577 80.5525 111.423 68.5386C113.5 56.2937 118.692 44.1642 127 32.1503C135.308 19.9054 148.115 9.85525 165.423 2L181 26.2589ZM73.3462 26.2589C48.1923 36.4245 35.3846 59.5282 34.9231 95.5699H67.8077V168H1V111.165C1 94.7613 1.92308 80.5525 3.76923 68.5386C5.84615 56.2937 10.9231 44.1642 19 32.1503C27.3077 19.9054 40.2308 9.85525 57.7692 2L73.3462 26.2589Z" stroke="black" stroke-width="2"/>
</svg>
