<svg width="41" height="40" viewBox="0 0 41 40" fill="none" xmlns="http://www.w3.org/2000/svg">
<path d="M30.1232 4.36089L29.5269 3.92773L28.6549 5.12596L29.2568 5.55912C32.0317 7.57206 34.113 10.397 35.2133 13.6437C36.3136 16.8904 36.3785 20.3987 35.3991 23.6839C34.4197 26.9692 32.4444 29.8692 29.7459 31.9834C27.0474 34.0976 23.7589 35.3217 20.3348 35.4866L19.5923 35.5204L19.6654 36.9999L20.4023 36.9661C24.1479 36.8096 27.7511 35.4877 30.7092 33.1848C33.6673 30.8819 35.8326 27.713 36.903 24.1203C37.9734 20.5275 37.8954 16.6902 36.68 13.1439C35.4646 9.59762 33.1723 6.51924 30.1232 4.3384V4.36089Z" fill="white"/>
<path d="M2.9804 18.9595C2.98793 16.0648 3.75122 13.2223 5.19471 10.7132C6.6382 8.20409 8.71185 6.11543 11.2105 4.65389L11.8462 4.28261L11.1036 3L10.4623 3.37128C7.67902 4.99139 5.38034 7.32719 3.80503 10.136C2.22972 12.9449 1.43523 16.1243 1.50413 19.344C1.57302 22.5637 2.50277 25.7062 4.19679 28.4451C5.89082 31.184 8.28733 33.4194 11.1373 34.9189L11.7899 35.2621L12.4818 33.9514L11.8293 33.6082C9.15744 32.2071 6.92025 30.1012 5.36034 27.5188C3.80044 24.9365 2.97738 21.9764 2.9804 18.9595Z" fill="white"/>
<path d="M23.0243 14.9028L27.1196 3.2749H14.693L11.6777 19.0262H16.1781L14.4905 34.6257H17.3932L27.7497 14.8859L23.0243 14.9028ZM16.4594 33.163H16.0993L17.787 17.5636H13.4385L15.8856 4.7544H24.9988L20.9091 16.3823H25.2295L16.4594 33.163Z" fill="white"/>
<path d="M21.6849 31.0605L20.9536 31.1899L21.2124 32.6469L21.9437 32.5175C24.4806 32.065 26.8387 30.9073 28.7481 29.1768C30.6575 27.4463 32.041 25.2131 32.7402 22.7329C33.4393 20.2526 33.4259 17.6256 32.7014 15.1527C31.9769 12.6797 30.5706 10.4608 28.6436 8.74992L28.0811 8.25488L27.0966 9.37998L27.6592 9.87502C29.3706 11.4032 30.6182 13.3813 31.2601 15.5841C31.9019 17.7868 31.912 20.1256 31.2893 22.3338C30.6666 24.5421 29.4361 26.531 27.738 28.0739C26.0399 29.6168 23.9425 30.6517 21.6849 31.0605Z" fill="white"/>
<path d="M7.2896 19.009C7.28543 17.4101 7.5963 15.8261 8.20439 14.3474C8.81248 12.8686 9.70592 11.5242 10.8337 10.3908L11.3512 9.86763L10.2992 8.82129L9.77608 9.35008C8.3238 10.8193 7.22187 12.5975 6.55249 14.5519C5.88312 16.5063 5.66356 18.5866 5.91015 20.6378C6.15674 22.6889 6.86311 24.6579 7.97664 26.398C9.09018 28.138 10.5822 29.6043 12.3413 30.6875L12.9713 31.0757L13.7477 29.8156L13.1176 29.4274C11.3321 28.3387 9.85764 26.8079 8.83671 24.9828C7.81578 23.1578 7.2829 21.1002 7.2896 19.009Z" fill="white"/>
<path opacity="0.4" d="M23.0527 6H17.2369L15 17.1843H19.0264L17.2369 29.7107L23.5001 16.7369H19.4737L23.0527 6Z" fill="white"/>
</svg>
