<svg width="41" height="38" viewBox="0 0 41 38" fill="none" xmlns="http://www.w3.org/2000/svg">
<path d="M31.9904 1.52122L31.3239 1.03711L30.3494 2.37629L31.0222 2.86041C34.1235 5.11014 36.4496 8.2674 37.6793 11.8961C38.9091 15.5247 38.9816 19.4457 37.887 23.1174C36.7924 26.7891 34.5847 30.0302 31.5687 32.3932C28.5528 34.7561 24.8775 36.1242 21.0506 36.3085L20.2207 36.3462L20.3024 37.9998L21.126 37.9621C25.3122 37.7872 29.3393 36.3097 32.6454 33.7359C35.9514 31.1621 38.3715 27.6204 39.5678 23.605C40.7641 19.5896 40.677 15.3009 39.3186 11.3375C37.9602 7.37398 35.3983 3.93347 31.9904 1.49608V1.52122Z" fill="#599E43"/>
<path d="M1.65455 17.8369C1.66297 14.6017 2.51605 11.4248 4.12935 8.62053C5.74264 5.81628 8.06024 3.48192 10.8528 1.84845L11.5632 1.43349L10.7333 0L10.0166 0.41496C6.9059 2.22565 4.33682 4.83623 2.57619 7.9755C0.815559 11.1148 -0.0723857 14.6682 0.00461416 18.2667C0.081614 21.8651 1.12073 25.3773 3.01404 28.4384C4.90734 31.4995 7.58577 33.9978 10.771 35.6738L11.5003 36.0573L12.2737 34.5924L11.5444 34.2089C8.55824 32.6429 6.05787 30.2893 4.31446 27.4032C2.57105 24.5171 1.65117 21.2087 1.65455 17.8369Z" fill="#599E43"/>
<path d="M24.0563 13.3038L28.6334 0.308105H14.7449L11.375 17.9124H16.4048L14.5186 35.3469H17.7628L29.3376 13.285L24.0563 13.3038ZM16.7192 33.7122H16.3168L18.2029 16.2777H13.3429L16.0778 1.96165H26.2632L21.6923 14.9574H26.5209L16.7192 33.7122Z" fill="#599E43"/>
<path d="M22.5595 31.361L21.7422 31.5056L22.0314 33.134L22.8487 32.9894C25.684 32.4837 28.3196 31.1897 30.4536 29.2557C32.5876 27.3216 34.1339 24.8257 34.9153 22.0537C35.6967 19.2817 35.6817 16.3456 34.872 13.5818C34.0622 10.8179 32.4905 8.33794 30.3368 6.42583L29.7081 5.87256L28.6078 7.13001L29.2366 7.68328C31.1493 9.39119 32.5437 11.6021 33.2611 14.0639C33.9784 16.5258 33.9897 19.1397 33.2938 21.6077C32.5978 24.0757 31.2225 26.2986 29.3247 28.023C27.4268 29.7474 25.0827 30.904 22.5595 31.361Z" fill="#599E43"/>
<path d="M6.47025 17.893C6.46559 16.1061 6.81303 14.3357 7.49266 12.683C8.17229 11.0303 9.17082 9.5277 10.4312 8.26098L11.0097 7.67626L9.83395 6.50684L9.24924 7.09784C7.62611 8.73994 6.39455 10.7272 5.64643 12.9116C4.89832 15.0959 4.65293 17.421 4.92853 19.7134C5.20412 22.0058 5.99359 24.2064 7.23812 26.1512C8.48265 28.0959 10.1501 29.7347 12.1162 30.9453L12.8204 31.3791L13.688 29.9708L12.9839 29.537C10.9883 28.3203 9.34039 26.6093 8.19936 24.5696C7.05833 22.5298 6.46277 20.2302 6.47025 17.893Z" fill="#599E43"/>
<path opacity="0.4" d="M24 3.5H17.5L15 16H19.5L17.5 30L24.5 15.5H20L24 3.5Z" fill="#599E43"/>
</svg>
