<svg width="80" height="80" viewBox="0 0 80 80" fill="none" xmlns="http://www.w3.org/2000/svg">
<circle opacity="0.4" cx="27" cy="45" r="18" fill="#245F12"/>
<path d="M63.9404 20.4049C63.7298 16.8808 62.5538 13.6454 60.8745 10.5725C60.5797 10.0331 60.1616 9.8406 59.544 10.012C56.2786 10.9144 53.2377 12.2719 50.6109 14.4505C47.2713 17.2207 45.8587 20.7778 46.3359 25.089C46.4121 25.7737 46.5164 26.4565 46.6096 27.1553C46.2086 26.7783 45.8507 26.4164 45.4657 26.0865C44.1723 24.9767 42.7086 24.0172 41.6157 22.7379C40.5229 21.4586 39.8111 19.8484 38.8917 18.4077C38.4756 17.754 37.9743 17.1535 37.4941 16.5429C37.0389 15.9634 36.5396 15.8601 36.0714 16.2161C35.5811 16.588 35.5701 17.1033 36.0454 17.7199C36.1266 17.8202 36.2168 17.9205 36.293 18.0337C37.313 19.5042 38.3319 20.9747 39.3499 22.4451L39.2185 22.5825C36.4795 22.0461 33.7384 21.5177 31.0033 20.9593C30.8028 20.9192 30.6234 20.6796 30.487 20.4931C28.0246 17.1511 25.5676 13.8028 23.116 10.4482C23.0037 10.2958 22.9155 10.1293 22.7661 9.89875C24.3612 9.88271 25.7979 10.2146 27.1945 10.7349C29.0884 11.4367 30.7477 12.5396 32.3017 13.8169C32.809 14.2349 33.2852 14.1978 33.6572 13.7798C34.0292 13.3617 34.0121 12.8333 33.5429 12.4323C29.5175 8.99842 24.9557 7.31909 19.625 8.25751C13.7739 9.28817 8.92235 12.2769 4.48589 16.0587C4.03172 16.4446 3.9846 16.9129 4.2583 17.4362C6.3878 21.5588 9.03062 25.2865 12.5798 28.3233C12.6686 28.4117 12.7504 28.5069 12.8244 28.608C12.7935 28.654 12.76 28.6982 12.7242 28.7404C12.661 28.8026 12.5928 28.8597 12.5236 28.9199C6.89711 34.0591 4.34352 40.4356 5.33609 47.9931C6.40485 56.1261 10.9325 61.8218 18.3787 65.2125C19.0695 65.5274 19.5498 65.383 19.7964 64.8476C20.0591 64.2781 19.8205 63.845 19.1357 63.4911C17.9948 62.8996 16.8779 62.2629 15.7409 61.6634C15.363 61.4629 15.2948 61.1972 15.3449 60.7951C15.5875 58.8461 15.3349 56.9181 14.3493 55.2508C13.5533 53.9044 13.6686 52.7764 14.3664 51.5413C14.5482 51.2108 14.7105 50.87 14.8526 50.5206C15.2968 49.4579 15.8041 48.4152 16.146 47.3194C16.5911 45.8907 16.0287 44.7126 14.6882 44.0579C14.1543 43.7863 13.5917 43.5751 13.0109 43.4283C12.0955 43.2138 11.499 42.6924 11.0559 41.8803C10.2919 40.4767 9.46373 39.1122 8.6797 37.7216C8.64624 37.6458 8.62845 37.5639 8.62742 37.4811C8.62639 37.3982 8.64214 37.316 8.67371 37.2393C9.97145 34.3167 11.9561 31.7508 14.4586 29.76C16.8087 31.3451 19.3523 32.3868 22.3059 32.7006C22.0141 32.9553 21.8457 33.0956 21.6833 33.243C20.2145 34.5755 19.1277 36.1204 18.851 38.1557C18.3878 41.5314 20.6937 44.458 24.0785 44.5773C25.5723 44.6304 27.0862 44.3707 28.5771 44.1843C30.474 43.9476 30.6825 44.0439 30.7727 45.9628C30.873 48.2247 30.8299 50.4945 30.9382 52.7564C30.9933 53.9003 31.1256 55.0694 31.4395 56.1652C31.9829 58.0801 33.5509 58.9424 35.4308 58.3067C38.5729 57.245 40.6713 55.0583 41.4162 51.815C41.6618 50.7442 41.334 49.5371 41.2398 48.3941C41.1245 46.9965 40.9129 45.5779 41.7621 44.3226C42.8258 42.7496 44.4511 41.8873 46.0622 40.974C46.6427 42.8659 46.7109 46.0451 46.2517 48.7861C44.7639 57.659 36.7783 64.6752 27.7951 64.9789C26.7534 65.014 25.7087 64.9489 24.665 64.9258C23.8629 64.9068 23.3135 65.5634 23.6894 66.1991C23.8649 66.4999 24.3441 66.7746 24.692 66.7816C26.2862 66.8137 27.9003 66.8748 29.4774 66.6954C39.4502 65.5614 47.547 57.2971 48.3371 47.3264C48.9958 39.0189 45.8376 32.3878 39.1333 27.439C38.9769 27.3237 38.8255 27.2034 38.6571 27.0751L41.2819 25.0158C41.4704 25.1491 41.6568 25.2664 41.8273 25.4058C49.6615 31.7953 52.964 39.9774 51.1744 49.9692C48.5336 64.6912 32.8962 73.7045 18.7537 68.8018C7.247 64.8095 0.420396 53.5143 2.203 41.4171C2.31028 40.6912 2.05159 40.2581 1.45705 40.1649C0.832442 40.0646 0.47953 40.3654 0.354207 41.0973C-0.218964 44.5042 -0.0954862 47.9919 0.717156 51.3498C4.1811 65.6737 18.105 74.4524 32.4741 71.3925C48.5787 67.9636 57.8256 50.4885 51.6035 35.2452C51.5153 35.0306 51.4451 34.8091 51.3569 34.5664L52.1128 34.3098C54.8198 33.3884 57.3644 32.1542 59.5831 30.3124C62.6881 27.7308 64.182 24.4393 63.9404 20.4049ZM9.28126 42.534C9.98307 43.9807 11.0709 44.862 12.652 45.2881C14.6481 45.8265 14.7494 46.1363 13.9283 48.0482C13.4129 49.2513 12.8254 50.4184 12.287 51.6114C11.6734 52.981 11.5802 54.2863 12.4745 55.6458C13.2766 56.868 13.5964 58.6165 13.4841 59.8316C7.54078 54.6503 5.80428 45.9959 7.80043 39.811C8.31576 40.7534 8.83711 41.6257 9.28126 42.534ZM20.1924 10.0602C20.3398 10.0381 20.5744 10.1705 20.6717 10.3028C23.0926 13.5866 25.5041 16.8778 27.9063 20.1763C27.9274 20.2064 27.9194 20.2565 27.9364 20.3768C26.5508 20.1131 25.1883 19.8545 23.8258 19.5938C23.5651 19.5436 23.3065 19.4454 23.0448 19.4394C21.2883 19.3983 20.1774 18.4749 19.259 17.0221C18.1562 15.2826 16.8528 13.6785 15.6307 12.0142C15.5154 11.8568 15.4131 11.6894 15.2727 11.4778C16.8392 10.7801 18.4949 10.303 20.1924 10.0602V10.0602ZM13.4049 12.1435L18.0278 18.4468L7.27307 16.3554L7.17281 16.1108L13.4049 12.1435ZM11.5642 24.7551C9.72825 22.7511 8.1299 20.5418 6.80085 18.1711L17.6489 20.2876L11.5642 24.7551ZM17.6519 29.4432C15.8983 28.608 14.3554 27.4631 12.9026 26.1006C14.6882 24.7902 16.5119 23.5941 18.1602 22.1955C19.4936 21.0596 20.785 20.6916 22.4914 21.1989C24.1617 21.6922 25.9142 21.9007 27.6306 22.2446C27.6707 22.2516 27.7048 22.2897 27.8311 22.3689L21.4146 27.0811C20.396 27.828 19.3844 28.585 18.3497 29.3109C18.1632 29.4342 17.8263 29.5264 17.6519 29.4432ZM45.583 39.037C44.5884 39.6556 43.664 40.225 42.7456 40.8045C39.8602 42.6272 38.8085 45.248 39.3719 48.5716C39.4491 49.0308 39.5153 49.493 39.5725 49.9552C39.9033 52.6291 37.5041 55.9897 34.8603 56.5542C33.964 56.7457 33.3975 56.484 33.199 55.5767C32.9748 54.5374 32.8406 53.4808 32.798 52.4185C32.7037 50.1797 32.7338 47.9339 32.6245 45.6962C32.5884 44.9613 32.3618 44.2053 32.0741 43.5215C31.654 42.526 30.8359 42.0247 29.725 42.157C28.6142 42.2894 27.4843 42.4758 26.3624 42.6172C25.7903 42.6953 25.2142 42.7405 24.6369 42.7526C21.7956 42.7806 20.012 40.3083 20.8912 37.5802C21.3765 36.0763 22.4202 35.0006 23.6363 34.0712C24.2529 33.5999 24.8856 33.1478 25.5412 32.7327C25.7688 32.5883 26.0816 32.5653 26.3604 32.5201C29.9436 31.9346 33.199 30.515 36.2559 28.6101C36.7411 28.3093 37.079 28.3093 37.5542 28.6301C41.3942 31.2048 44.0731 34.6506 45.583 39.037ZM22.8302 30.8268C21.951 30.7987 21.0777 30.6062 20.035 30.4678C20.3198 30.2302 20.4591 30.1019 20.6115 29.9896C23.7255 27.7037 26.8433 25.4222 29.9647 23.1449C30.2063 22.9705 30.5813 22.8261 30.857 22.8763C33.4096 23.3404 35.9541 23.8508 38.5007 24.3491C38.609 24.3701 38.7122 24.4132 38.9809 24.4964C34.0572 28.0516 29.0653 31.0283 22.8302 30.8268ZM51.5213 16.1659C53.4573 14.4264 55.7322 13.2905 58.3209 12.3461L53.9406 22.8141C53.0563 20.6665 52.2271 18.6684 51.42 16.6622C51.3965 16.5774 51.3935 16.4882 51.4111 16.4019C51.4287 16.3156 51.4664 16.2348 51.5213 16.1659V16.1659ZM50.3182 31.4734C50.2824 31.5297 50.2381 31.5801 50.1869 31.6228C47.8639 26.9939 47.1811 21.2791 49.8871 18.0077C49.9703 18.1721 50.0505 18.3085 50.1117 18.4588C50.9849 20.5643 51.8612 22.6697 52.7184 24.7832C52.8086 25.0068 52.8738 25.3176 52.7906 25.5231C51.9865 27.5142 51.1493 29.4913 50.3182 31.4714V31.4734ZM60.3641 26.7693C58.8963 28.7745 56.9062 30.126 54.7186 31.2138C53.8884 31.6268 53.0222 31.9647 52.172 32.3367L52.0517 32.2083C52.8006 30.4137 53.5967 28.6361 54.2754 26.8144C54.6063 25.9281 55.1216 25.4288 56.0039 25.099C57.99 24.3561 59.934 23.5049 61.9683 22.6677C61.8093 24.153 61.2554 25.5686 60.3641 26.7673V26.7693ZM61.7277 20.7087C59.8538 21.5107 57.9629 22.2847 56.0761 23.0597C56.045 23.0728 55.9969 23.0437 55.8926 23.0186L59.9952 13.2083L60.1787 13.1682C60.6318 14.4946 61.1411 15.806 61.5171 17.1535C61.7838 18.1099 61.8911 19.1135 62.0184 20.1021C62.0425 20.2946 61.8881 20.6375 61.7277 20.7067V20.7087Z" fill="#245F12"/>
</svg>
