<svg width="25" height="25" viewBox="0 0 25 25" fill="none" xmlns="http://www.w3.org/2000/svg">
<path fill-rule="evenodd" clip-rule="evenodd" d="M12.5 0.5C5.87258 0.5 0.5 5.87258 0.5 12.5C0.5 19.1274 5.87258 24.5 12.5 24.5C19.1274 24.5 24.5 19.1274 24.5 12.5C24.5 5.87258 19.1274 0.5 12.5 0.5ZM2.72837 9.73077C2.47938 10.611 2.34615 11.54 2.34615 12.5C2.34615 13.46 2.47938 14.389 2.72837 15.2692H6.80318C6.70526 14.3784 6.65385 13.4508 6.65385 12.5C6.65385 11.5492 6.70526 10.6216 6.80318 9.73077H2.72837ZM3.4533 7.88462H7.08209C7.34215 6.5483 7.71334 5.33202 8.17534 4.29253C8.37554 3.84207 8.59601 3.4176 8.8365 3.02715C6.50134 3.93086 4.5838 5.67316 3.4533 7.88462ZM8.66135 9.73077C8.55657 10.6092 8.5 11.5374 8.5 12.5C8.5 13.4626 8.55657 14.3908 8.66135 15.2692H16.3386C16.4434 14.3908 16.5 13.4626 16.5 12.5C16.5 11.5374 16.4434 10.6092 16.3386 9.73077H8.66135ZM16.0337 7.88462H8.96638C9.19594 6.81456 9.50134 5.85466 9.86238 5.04233C10.2765 4.11057 10.7457 3.41369 11.2201 2.96223C11.6897 2.5153 12.1207 2.34615 12.5 2.34615C12.8793 2.34615 13.3103 2.5153 13.7799 2.96223C14.2543 3.41369 14.7235 4.11057 15.1377 5.04233C15.4986 5.85466 15.8041 6.81456 16.0337 7.88462ZM18.1969 9.73077C18.2947 10.6216 18.3462 11.5492 18.3462 12.5C18.3462 13.4508 18.2947 14.3784 18.1969 15.2692H22.2717C22.5206 14.389 22.6538 13.46 22.6538 12.5C22.6538 11.54 22.5206 10.611 22.2717 9.73077H18.1969ZM21.5466 7.88462H17.9178C17.6578 6.5483 17.2867 5.33202 16.8247 4.29253C16.6244 3.84207 16.404 3.4176 16.1635 3.02715C18.4986 3.93086 20.4162 5.67316 21.5466 7.88462ZM8.83652 21.9729C6.50134 21.0691 4.5838 19.3268 3.4533 17.1154H7.08209C7.34215 18.4518 7.71334 19.668 8.17534 20.7075C8.37554 21.158 8.59601 21.5825 8.83652 21.9729ZM9.86238 19.9577C9.50134 19.1453 9.19594 18.1854 8.96638 17.1154H16.0337C15.8041 18.1854 15.4986 19.1453 15.1377 19.9577C14.7235 20.8894 14.2543 21.5863 13.7799 22.0377C13.3103 22.4847 12.8793 22.6538 12.5 22.6538C12.1207 22.6538 11.6897 22.4847 11.2201 22.0377C10.7457 21.5863 10.2765 20.8894 9.86238 19.9577ZM16.8247 20.7075C17.2867 19.668 17.6578 18.4518 17.9178 17.1154H21.5466C20.4162 19.3268 18.4986 21.0691 16.1635 21.9729C16.404 21.5825 16.6244 21.158 16.8247 20.7075Z" fill="#599E43"/>
</svg>
