<svg width="45" height="54" viewBox="0 0 45 54" fill="none" xmlns="http://www.w3.org/2000/svg">
<g filter="url(#filter0_d_679_1830)">
<path d="M13.0425 11.1954C3.38663 19.2414 5.76227 32.0383 7.98449 37.8621L9.59418 42C10.973 39.0115 14.4213 38.4847 17.4098 37.8621C43.8926 32.3448 39.6324 12.1916 35.3412 2C30.2832 3.6092 21.05 4.52289 13.0425 11.1954Z" fill="#E89900"/>
<path d="M7.28375 38.1295L7.28551 38.134L8.8952 42.2719L9.5354 43.9176L10.2752 42.3142C10.8603 41.0461 11.8865 40.2747 13.1853 39.7368C14.348 39.2553 15.6599 38.9866 16.9983 38.7126C17.186 38.6741 17.3743 38.6356 17.5628 38.5963C24.2744 37.198 29.101 34.8594 32.4788 31.9309C35.8632 28.9965 37.756 25.5015 38.6444 21.8617C40.4111 14.623 38.1979 6.85195 36.0325 1.70896L35.7666 1.07762L35.1139 1.2853C34.0598 1.62064 32.7888 1.92951 31.3615 2.27637C26.1865 3.53399 18.9567 5.29096 12.5623 10.6192C7.54103 14.8034 5.65658 20.2259 5.31093 25.3112C4.9664 30.3801 6.14526 35.1458 7.28375 38.1295Z" stroke="#D27200" stroke-width="1.5"/>
</g>
<path fill-rule="evenodd" clip-rule="evenodd" d="M26.1197 18.6662C27.7301 19.6534 30.672 22.9987 28.2333 27.0022C25.0931 32.1574 18.6702 30.7315 16.5783 28.3733C14.827 26.399 13.3262 22.8092 17.001 18.6662C20.5035 14.7176 22.5568 12.3594 20.5036 10.2754C22.6373 11.7013 26.2888 15.9351 23.8249 21.4632C24.9119 21.4632 26.482 19.9824 26.1197 18.6662ZM20.5031 29.5259C21.3818 29.8328 23.136 29.8878 24.2472 28.9226C25.6361 27.7161 25.2738 25.5773 23.9452 24.5901C23.9452 24.974 23.7037 25.7747 22.7375 25.9063C23.3212 24.9923 23.8728 22.7035 21.4089 20.8608C21.6102 21.5372 21.5659 23.2739 19.7784 24.8095C17.544 26.7289 18.933 28.9775 20.5031 29.5259Z" fill="white"/>
<defs>
<filter id="filter0_d_679_1830" x="0.5" y="0.155273" width="43.5364" height="53.6802" filterUnits="userSpaceOnUse" color-interpolation-filters="sRGB">
<feFlood flood-opacity="0" result="BackgroundImageFix"/>
<feColorMatrix in="SourceAlpha" type="matrix" values="0 0 0 0 0 0 0 0 0 0 0 0 0 0 0 0 0 0 127 0" result="hardAlpha"/>
<feOffset dy="4"/>
<feGaussianBlur stdDeviation="2"/>
<feComposite in2="hardAlpha" operator="out"/>
<feColorMatrix type="matrix" values="0 0 0 0 0 0 0 0 0 0 0 0 0 0 0 0 0 0 0.4 0"/>
<feBlend mode="normal" in2="BackgroundImageFix" result="effect1_dropShadow_679_1830"/>
<feBlend mode="normal" in="SourceGraphic" in2="effect1_dropShadow_679_1830" result="shape"/>
</filter>
</defs>
</svg>
