<svg width="16" height="16" viewBox="0 0 16 16" fill="none" xmlns="http://www.w3.org/2000/svg">
<path fill-rule="evenodd" clip-rule="evenodd" d="M15.8598 15.0964C15.9533 15.1899 16 15.3067 16 15.4469C16 15.5871 15.9533 15.704 15.8598 15.7975C15.7559 15.9013 15.6365 15.9533 15.5015 15.9533C15.3664 15.9533 15.247 15.9013 15.1431 15.7975L10.3135 10.9367C9.76306 11.4145 9.13989 11.7884 8.44401 12.0584C7.74813 12.3285 7.01071 12.4635 6.23174 12.4635C5.36968 12.4635 4.55956 12.2999 3.80136 11.9727C3.04316 11.6456 2.38105 11.2016 1.815 10.6407C1.24894 10.0798 0.804935 9.42032 0.48296 8.66212C0.160985 7.90392 0 7.0938 0 6.23174C0 5.36968 0.160985 4.55956 0.48296 3.80136C0.804935 3.04316 1.24894 2.38364 1.815 1.82278C2.38105 1.26193 3.04316 0.817918 3.80136 0.49075C4.55956 0.163582 5.36968 0 6.23174 0C7.08342 0 7.88834 0.163582 8.64654 0.49075C9.40474 0.817918 10.0669 1.26193 10.6329 1.82278C11.199 2.38364 11.6456 3.04316 11.9727 3.80136C12.2999 4.55956 12.4635 5.36968 12.4635 6.23174C12.4635 6.98994 12.3337 7.70918 12.074 8.38948C11.8143 9.06979 11.4612 9.67997 11.0146 10.2201L15.8598 15.0964ZM6.23174 11.482C6.9484 11.482 7.62609 11.3444 8.26485 11.0691C8.90361 10.7939 9.45926 10.4174 9.93184 9.93963C10.4044 9.46186 10.7783 8.9062 11.0536 8.27264C11.3288 7.63908 11.4664 6.95878 11.4664 6.23174C11.4664 5.5047 11.3288 4.82441 11.0536 4.19085C10.7783 3.55728 10.4044 3.00163 9.93184 2.52386C9.45926 2.04609 8.90361 1.66959 8.26485 1.39435C7.62609 1.11912 6.9484 0.981499 6.23174 0.981499C5.5047 0.981499 4.82181 1.11912 4.18306 1.39435C3.5443 1.66959 2.98864 2.04609 2.51607 2.52386C2.04349 3.00163 1.66959 3.55728 1.39435 4.19085C1.11912 4.82441 0.981499 5.5047 0.981499 6.23174C0.981499 6.95878 1.11912 7.63908 1.39435 8.27264C1.66959 8.9062 2.04349 9.46186 2.51607 9.93963C2.98864 10.4174 3.5443 10.7939 4.18306 11.0691C4.82181 11.3444 5.5047 11.482 6.23174 11.482Z" fill="#231F20"/>
</svg>
