<svg width="80" height="80" viewBox="0 0 80 80" fill="none" xmlns="http://www.w3.org/2000/svg">
<path d="M58.872 25.6979C57.7684 25.5654 56.6709 25.3861 55.5688 25.2303C55.0731 25.1648 54.6444 25.0136 54.4917 24.4836C54.3358 23.9286 54.6164 23.5483 55.0404 23.2365C55.9336 22.574 56.8252 21.9099 57.7107 21.2365C58.4901 20.6488 58.5462 20.1921 57.9601 19.4049C56.899 17.9812 55.8328 16.5605 54.7613 15.143C54.1799 14.3636 53.6998 14.3013 52.9313 14.8702C52.0375 15.5333 51.1469 16.1999 50.2595 16.8702C49.8635 17.1695 49.4473 17.3675 48.9672 17.09C48.4871 16.8126 48.4231 16.373 48.4995 15.871C48.6554 14.7907 48.8113 13.7074 48.9672 12.6271C49.1231 11.5842 48.8113 11.1758 47.784 11.0355C46.0256 10.7939 44.2688 10.5398 42.5105 10.2904C41.6702 10.1704 41.2556 10.4463 41.12 11.2912C40.9345 12.4276 40.777 13.5671 40.6165 14.7066C40.5432 15.2272 40.3593 15.659 39.7887 15.7822C39.2463 15.8991 38.9127 15.5826 38.618 15.1867C37.9431 14.2795 37.2666 13.3706 36.5791 12.4712C36.0663 11.8009 35.5596 11.7339 34.8644 12.2327C34.4066 12.5319 33.9711 12.8637 33.5612 13.2257C32.6134 14.1469 31.5347 14.5507 30.2253 14.2358C30.1088 14.2217 29.9911 14.2217 29.8746 14.2358C26.5932 14.3075 23.5067 15.1041 20.6774 16.7783C16.1241 19.4704 13.1498 23.3784 11.8295 28.5054C11.5255 29.6885 11.3805 30.9107 11.1607 32.125C10.2956 32.2357 10.1163 32.3931 9.91368 33.2894C9.7048 34.2247 9.50838 35.1787 9.29015 36.2123C8.35485 35.5731 7.52086 34.9823 6.66662 34.4087C6.10076 34.0299 5.69547 34.0361 5.23718 34.4804C4.25511 35.4313 3.29329 36.4024 2.33617 37.3767C1.92775 37.7945 1.88879 38.2684 2.22394 38.7594C2.71965 39.4827 3.21848 40.2076 3.71263 40.9324C3.81396 41.0883 3.90437 41.2442 4.0244 41.4406C2.93321 41.6713 1.94957 41.8755 0.962825 42.0953C0.272261 42.2512 0.0088334 42.5754 0.00415689 43.2847C-0.00519612 44.3385 0.00415689 45.3938 0.00415689 46.4476C0.00415689 47.7617 0.149121 47.9331 1.43828 48.1966C2.28784 48.3696 3.13585 48.5582 4.05557 48.7546C3.44139 49.6541 2.87711 50.4694 2.32216 51.2924C1.85451 51.983 1.89037 52.3555 2.47805 52.9448C3.30111 53.7788 4.13352 54.6034 4.96126 55.4389C5.73132 56.2074 6.0306 56.2324 6.93317 55.6135L9.29951 53.9892C9.53489 55.0804 9.74374 56.0921 9.96822 57.0928C10.1132 57.7429 10.4359 58.0282 11.0438 58.0406C12.333 58.0562 13.6222 58.0515 14.9098 58.0406C15.4507 58.0406 15.778 57.7288 15.9261 57.23C15.9931 57.0071 16.0228 56.7733 16.0711 56.5441C16.2488 55.7164 16.4281 54.8886 16.6214 53.9939C17.5224 54.6174 18.336 55.1786 19.1622 55.732C19.8481 56.1996 20.2191 56.1544 20.813 55.5761C21.2355 55.163 21.6517 54.7437 22.1723 54.2261C22.1723 55.2425 22.1614 56.0967 22.1723 56.951C22.1677 57.5885 22.3119 58.2183 22.5933 58.7904C22.8747 59.3624 23.2857 59.861 23.7936 60.2464C23.9974 60.4255 24.1233 60.6772 24.1443 60.9478C24.1739 62.5301 24.1147 64.1138 24.1801 65.6929C24.2057 66.4097 24.3577 67.1163 24.6291 67.7802C25.1871 69.0865 26.3438 69.6929 27.6672 70H32.59C35.3445 69.4076 36.2533 67.403 36.127 65.1863C36.046 63.7834 36.0959 62.3804 36.127 60.9775C36.1448 60.7059 36.2678 60.452 36.47 60.2697C37.5315 59.4202 38.0943 58.3446 38.1005 56.9837C38.1005 56.0282 38.1535 55.0679 38.0912 54.1139C37.9353 51.7149 38.8581 49.9206 40.922 48.6736C41.5642 48.2854 42.1254 47.7648 42.7661 47.2706L41.4567 45.8069C40.6289 46.4148 39.8651 46.9869 39.0888 47.5434C37.1231 48.9557 36.1535 50.884 36.1146 53.2877C36.0958 54.4787 36.1146 55.6696 36.1146 56.8606C36.1146 58.2199 35.3429 59.0211 33.9805 59.032C31.423 59.0528 28.8644 59.0528 26.3048 59.032C24.9517 59.0211 24.1786 58.209 24.1661 56.8497C24.1536 55.4904 24.1848 54.1544 24.149 52.8076C24.1069 51.294 23.6127 49.9113 22.5777 48.8076C21.9167 48.1046 21.1217 47.5169 20.3407 46.937C14.8505 42.8669 12.4717 37.4094 13.326 30.6644C14.1802 23.8788 19.4054 18.2576 26.0741 16.7175C27.3118 16.4322 28.5916 16.334 29.8527 16.1485L29.7888 16.3574C29.9381 16.7066 30.1131 17.0443 30.3126 17.3675C30.9595 18.2732 31.6345 19.157 32.3094 20.0425C32.6212 20.4493 32.76 20.8764 32.4653 21.3363C32.191 21.765 31.7763 21.846 31.2853 21.7681C30.1489 21.5857 29.0078 21.4314 27.8683 21.2708C27.039 21.1539 26.6119 21.4516 26.4825 22.295C26.2071 24.0887 25.9473 25.8845 25.7031 27.6823C25.5691 28.6659 25.8715 29.0416 26.8629 29.1866C27.9634 29.3425 29.064 29.5093 30.166 29.6542C30.6508 29.7197 31.0452 29.9068 31.1777 30.4025C31.318 30.9231 31.0624 31.2988 30.6509 31.6028C29.7545 32.2637 28.8675 32.9356 27.979 33.6043C27.1856 34.2029 27.1154 34.6784 27.7109 35.4749C28.7376 36.8509 29.7686 38.2252 30.8036 39.598C31.5176 40.5474 31.9228 40.6019 32.8846 39.8817C33.7763 39.2146 34.6649 38.5458 35.5596 37.8849C35.9182 37.6183 36.364 37.5045 36.6929 37.8101C36.9439 38.0423 37.0514 38.4492 37.1699 38.7968C37.2213 38.9527 37.145 39.1413 37.12 39.3143C36.9751 40.3588 36.8083 41.4001 36.6851 42.446C36.5807 43.2863 36.8488 43.665 37.6812 43.7913C39.5331 44.075 41.3876 44.3385 43.2447 44.5816C44.0522 44.6892 44.4419 44.3572 44.5588 43.545C44.7188 42.4258 44.8747 41.3055 45.0264 40.1842C45.0981 39.6682 45.2758 39.2192 45.8355 39.093C46.3639 38.9667 46.7193 39.2567 47.0186 39.662C47.6796 40.5567 48.3478 41.4468 49.0233 42.3322C49.6032 43.0976 50.0755 43.1631 50.8549 42.5817C52.2797 41.5206 53.7019 40.4549 55.1214 39.3845C55.8931 38.803 55.9648 38.3245 55.3942 37.5544C54.7198 36.6461 54.0396 35.7404 53.3537 34.8374C53.042 34.4321 52.9048 34.0127 53.1978 33.5435C53.4784 33.0993 53.904 33.0385 54.381 33.1102C55.5387 33.2816 56.6974 33.4484 57.8572 33.6106C58.6086 33.7166 59.0668 33.3892 59.1869 32.6472C59.2804 32.0704 59.3428 31.4874 59.4347 30.9091C59.6249 29.6807 59.8229 28.4524 60.0193 27.224V26.4041C59.8916 26.2094 59.7226 26.0452 59.5243 25.9232C59.326 25.8012 59.1033 25.7242 58.872 25.6979ZM26.1926 61.0835H34.0678V62.9946H26.1863L26.1926 61.0835ZM26.1755 65.0429H34.046C34.389 66.9759 33.5425 68.0047 31.6469 68.0047H28.6119C26.8738 68.0047 26.1349 67.2502 26.1567 65.495C26.1521 65.3593 26.1645 65.2237 26.1755 65.0382V65.0429ZM18.2425 47.8739C19.4896 48.8996 21.0625 49.5606 21.7546 51.1895C21.9011 51.534 21.8653 51.7336 21.5987 51.9892C21.0063 52.5535 20.453 53.1584 19.8419 53.7881C19.1903 53.3407 18.587 52.9245 17.9791 52.5114C16.467 51.4842 15.0173 52.0438 14.6104 53.8162C14.4452 54.5364 14.2987 55.2628 14.1428 56.0204H11.7734C11.6081 55.2409 11.4507 54.4615 11.2714 53.6962C10.9067 52.1171 9.42575 51.5278 8.06645 52.421C7.41641 52.8481 6.78199 53.2971 6.18028 53.7102L4.35021 51.8754C4.74927 51.2955 5.18571 50.6767 5.6066 50.0469C6.55125 48.644 5.9636 47.1584 4.30968 46.7827C3.56767 46.6128 2.8241 46.4585 2.00571 46.2808V43.93C2.81007 43.7555 3.58791 43.5949 4.35953 43.4156C5.94487 43.0446 6.53258 41.5778 5.63781 40.2153C5.21069 39.5653 4.76018 38.9309 4.34553 38.3276L6.18028 36.5006C6.71184 36.8638 7.28858 37.2614 7.86535 37.6542C9.4538 38.7454 10.8271 38.2185 11.3088 36.3557C11.3322 36.2637 11.3681 36.1733 11.4211 36.0127C11.6783 37.0868 11.9168 38.0906 12.1646 39.1304C8.79754 39.9659 6.8272 42.0314 7.00179 45.6292C7.12649 48.2091 9.02045 50.2823 11.4507 50.9074C13.5738 51.4452 16.492 50.8419 18.2425 47.8692V47.8739ZM13.3353 41.8007C14.1264 43.369 15.1461 44.8111 16.361 46.0797C16.6182 46.3478 16.6572 46.5598 16.4779 46.8872C15.7094 48.2995 14.52 48.9978 13.2543 49.0571C10.8303 49.0119 9.21063 47.5388 8.99863 45.4717C8.90289 44.5119 9.16243 43.5502 9.72807 42.7688C10.2937 41.9874 11.1262 41.4405 12.068 41.2317C12.9207 41.0213 12.9518 41.0337 13.3353 41.8007ZM57.3147 31.5124C56.4184 31.3877 55.5719 31.2817 54.7302 31.1507C53.3381 30.9325 52.1487 31.4173 51.4769 32.496C50.805 33.5747 50.8939 34.8607 51.7263 36.0003C52.2563 36.7236 52.8003 37.4359 53.3678 38.1935L50.1846 40.5817C49.6484 39.8693 49.1371 39.1787 48.6258 38.5022C47.6905 37.2785 46.5432 36.8233 45.2712 37.1725C43.9992 37.5217 43.2213 38.5131 43.0296 40.0127C42.9267 40.8217 42.8067 41.6276 42.6851 42.5068L38.7552 41.9488C38.8815 41.0633 38.9953 40.22 39.1215 39.3782C39.3975 37.5357 38.4653 36.072 36.7568 35.7181C35.8387 35.5264 35.0218 35.7945 34.2845 36.3416C33.5472 36.8888 32.8488 37.4141 32.0787 37.9893C31.2806 36.9262 30.5028 35.8911 29.6968 34.8218C30.5542 34.1608 31.4006 33.5747 32.1785 32.8982C32.4873 32.6336 32.7379 32.308 32.9145 31.9417C33.0911 31.5755 33.1898 31.1766 33.2044 30.7702C33.2191 30.3639 33.1493 29.9589 32.9996 29.5809C32.8498 29.2029 32.6233 28.86 32.3344 28.574C31.8293 28.0747 31.1699 27.7615 30.4638 27.6854C29.5799 27.5623 28.6961 27.4282 27.7561 27.291C27.9447 25.9645 28.1271 24.6831 28.3157 23.3643C29.2807 23.4968 30.1863 23.6247 31.0904 23.7478C32.3967 23.924 33.4614 23.489 34.152 22.3682C34.8426 21.2474 34.7615 20.0923 33.9961 19.0152C33.4474 18.2358 32.8628 17.4875 32.2611 16.6769L35.4349 14.295C36.007 15.0526 36.5542 15.8024 37.1247 16.532C38.1925 17.9006 39.8589 18.2124 41.226 17.3114C41.5871 17.0756 41.892 16.7634 42.119 16.3968C42.3461 16.0302 42.4899 15.6181 42.5401 15.1898C42.6757 14.2857 42.8066 13.3816 42.9532 12.3839L44.9173 12.6551L46.8861 12.9311C46.7754 13.7105 46.671 14.4603 46.5619 15.2054C46.4278 16.1064 46.3857 16.9871 46.9064 17.8087C47.1101 18.143 47.3786 18.4332 47.6961 18.6623C48.0136 18.8914 48.3736 19.0548 48.7551 19.1428C49.1366 19.2308 49.5318 19.2417 49.9176 19.1748C50.3033 19.1079 50.6718 18.9646 51.0014 18.7533C51.8681 18.1937 52.6756 17.5437 53.5657 16.8921C54.3452 17.938 55.1246 18.9762 55.943 20.0549C55.0981 20.7034 54.261 21.302 53.4738 21.9629C52.5307 22.7533 52.2267 23.8117 52.5384 24.9762C52.8502 26.1406 53.6172 26.8561 54.7988 27.1055C55.2555 27.2022 55.7201 27.2614 56.183 27.3316C56.7208 27.4142 57.2602 27.4875 57.8681 27.5826C57.6935 28.8998 57.508 30.1796 57.3163 31.5124H57.3147Z" fill="#245F12"/>
<path fill-rule="evenodd" clip-rule="evenodd" d="M14.1053 13.8007L14.1053 13.8009C14.4571 15.1726 14.8103 16.5495 15.1686 17.9501L13.2403 18.4614C12.5622 15.7864 11.8981 13.1863 11.2138 10.5113L13.1312 10C13.4567 11.2721 13.7804 12.5342 14.1053 13.8007ZM10.8023 20.3903L8.99344 19.0995C7.26597 17.8667 5.5568 16.6469 3.8296 15.416C3.66549 15.6479 3.50808 15.8716 3.3536 16.0911L3.35359 16.0911C3.128 16.4116 2.90866 16.7233 2.68384 17.0388L9.64562 22.0114L10.8023 20.3903ZM23.3263 23.332L23.3264 23.332C23.463 23.2298 23.6026 23.1255 23.7452 23.0158L22.6306 21.2559C22.3177 21.5366 22.0042 21.8057 21.6949 22.0713C21.0475 22.6272 20.4183 23.1675 19.8497 23.7656C14.9846 28.8879 15.0173 37.4163 19.8497 42.5683C21.4319 44.2534 23.3384 45.4069 25.4319 46.3313C27.3368 47.1715 28.5059 48.6695 28.9611 50.7132C29.0255 51.0019 29.0664 51.2961 29.1077 51.5936L29.1077 51.5936L29.1077 51.5937L29.1077 51.5937L29.1077 51.5937L29.1077 51.5938L29.1077 51.5938L29.1077 51.5938C29.1284 51.7428 29.1492 51.8926 29.1731 52.0428H31.1061C31.1114 50.1119 30.4383 48.2405 29.2043 46.7553C28.163 45.4739 26.7772 44.7288 25.3072 44.0601C23.4328 43.2339 21.8029 41.9387 20.5746 40.2995C19.3463 38.6603 18.5609 36.7323 18.2943 34.7014C18.0277 32.6705 18.2888 30.6051 19.0524 28.7044C19.816 26.8037 21.0564 25.1317 22.6541 23.8498C22.87 23.6731 23.0939 23.5057 23.3263 23.332ZM47.427 53.8331L53.3958 58.8058L54.6694 57.2751L48.696 52.3008L47.427 53.8331ZM45.0215 61.9947H43.1306V55.0859H45.0215V61.9947ZM49.0964 49.042H56.0083V47.1309H49.0964V49.042ZM29.1731 54.1035H31.106V57.0029H29.1731V54.1035ZM9.19036 27.216C9.27954 27.1855 9.367 27.1502 9.45227 27.11L8.98462 25.2207L6.89912 25.7389C5.18281 26.1652 3.48513 26.5869 1.78745 27.0102C1.63754 27.0475 1.48901 27.0895 1.31547 27.1386C1.22736 27.1635 1.13279 27.1902 1.02832 27.2191C1.19823 27.8847 1.35254 28.4943 1.51466 29.1349L9.19036 27.216ZM34.8565 27.4648C34.8175 23.097 38.4153 19.4805 42.8066 19.4805C44.3806 19.4783 45.9199 19.9428 47.23 20.8152C48.5401 21.6876 49.5621 22.9288 50.167 24.382C50.7719 25.8351 50.9325 27.4349 50.6284 28.9793C50.3244 30.5236 49.5694 31.9432 48.4588 33.0586C47.3482 34.1739 45.9319 34.9351 44.3889 35.2458C42.8459 35.5565 41.2454 35.4028 39.7896 34.8041C38.3339 34.2055 37.0883 33.1888 36.2103 31.8825C35.3322 30.5761 34.8611 29.0388 34.8565 27.4648ZM36.8409 27.4227C36.8253 30.6511 39.5439 33.3946 42.7878 33.418C46.0287 33.4414 48.7582 30.7306 48.7785 27.482C48.7863 25.899 48.165 24.3777 47.0512 23.2527C45.9374 22.1278 44.4223 21.4914 42.8393 21.4836C41.2563 21.4757 39.735 22.097 38.6101 23.2109C37.4851 24.3247 36.8488 25.8397 36.8409 27.4227Z" fill="#245F12"/>
<circle opacity="0.4" cx="42.5" cy="27.5" r="9.5" fill="#245F12"/>
</svg>
