<svg width="11" height="10" viewBox="0 0 11 10" fill="none" xmlns="http://www.w3.org/2000/svg">
<path fill-rule="evenodd" clip-rule="evenodd" d="M2.52634 1.16544C2.52634 1.81329 2.03869 2.33167 1.25566 2.33167H1.24129C0.487407 2.33167 0 1.81329 0 1.16544C0 0.503881 0.50223 0 1.27044 0C2.03869 0 2.51177 0.503881 2.52634 1.16544ZM2.37841 3.2526V9.99983H0.132783V3.2526H2.37841ZM10.477 9.99983L10.477 6.13117C10.477 4.05875 9.3692 3.09418 7.89145 3.09418C6.69917 3.09418 6.16536 3.74905 5.86734 4.20846V3.25281H3.62143C3.65103 3.88592 3.62143 10 3.62143 10H5.86734V6.23179C5.86734 6.03014 5.88192 5.82898 5.94129 5.6846C6.10359 5.28175 6.47312 4.86466 7.09352 4.86466C7.90644 4.86466 8.23142 5.48336 8.23142 6.39005V9.99983H10.477Z" fill="#599E43"/>
</svg>
