<svg width="40" height="40" viewBox="0 0 40 40" fill="none" xmlns="http://www.w3.org/2000/svg">
<path fill-rule="evenodd" clip-rule="evenodd" d="M20 3C10.611 3 3 10.6114 3 20C3 29.3887 10.611 37 20 37C29.3889 37 37 29.3887 37 20C37 10.6114 29.3889 3 20 3ZM4.62899 20C4.62899 11.511 11.5108 4.62899 20 4.62899C28.4892 4.62899 35.371 11.511 35.371 20C35.371 28.489 28.4892 35.371 20 35.371C11.5108 35.371 4.62899 28.489 4.62899 20Z" fill="white"/>
<path fill-rule="evenodd" clip-rule="evenodd" d="M36.7069 3.70989C37.0975 4.10041 37.0975 4.73357 36.7069 5.1241L5.87361 35.9574C5.48309 36.348 4.84992 36.348 4.4594 35.9574C4.06887 35.5669 4.06887 34.9337 4.4594 34.5432L35.2927 3.70989C35.6833 3.31936 36.3164 3.31936 36.7069 3.70989Z" fill="white"/>
<path d="M26.0443 9.92529C25.7127 9.92529 25.3762 10.0627 25.0436 10.3338L18.7156 14.5855H14.501C13.3155 14.5855 12.3511 15.5498 12.3511 16.7354V23.7561C12.3511 24.9415 13.3155 25.906 14.501 25.906H18.7152L25.0562 30.174C25.3897 30.4541 25.7277 30.596 26.0612 30.596C26.4256 30.596 26.7523 30.4179 26.9576 30.1073C27.1215 29.8591 27.2047 29.5382 27.2047 29.1537V11.3775C27.2047 10.3743 26.6218 9.92529 26.0443 9.92529ZM13.5796 23.7561V16.7354C13.5796 16.2274 13.9929 15.814 14.501 15.814H18.2884V24.6775H14.501C13.9929 24.6775 13.5796 24.2642 13.5796 23.7561ZM25.9762 29.1537C25.9762 29.2222 25.9713 29.2772 25.9644 29.3197C25.9276 29.297 25.8822 29.2646 25.8297 29.2193C25.8111 29.2031 25.7915 29.1881 25.7709 29.1743L19.517 24.9647V15.527L25.7539 11.3368C25.7715 11.3246 25.789 11.3116 25.8055 11.2978C25.8678 11.2455 25.9202 11.2112 25.9603 11.1892C25.9691 11.2342 25.9763 11.2964 25.9763 11.3775V29.1537H25.9762Z" fill="white"/>
<path fill-rule="evenodd" clip-rule="evenodd" d="M24.8392 10.0566C25.2114 9.75663 25.6179 9.58105 26.0445 9.58105C26.4234 9.58105 26.8076 9.72928 27.0948 10.0425C27.3825 10.3562 27.5489 10.8084 27.5489 11.3773V29.1534C27.5489 29.5858 27.4554 29.9779 27.2448 30.2966C26.9775 30.701 26.5444 30.9397 26.0615 30.9397C25.6306 30.9397 25.222 30.7579 24.8496 30.4492L18.6105 26.2498H14.5012C13.1258 26.2498 12.0073 25.1312 12.0073 23.7559V16.7352C12.0073 15.3596 13.1258 14.2413 14.5012 14.2413H18.611L24.8392 10.0566ZM26.0445 10.269C25.8129 10.269 25.5507 10.3641 25.2611 10.6001L25.2488 10.6102L18.8206 14.9293H14.5012C13.5057 14.9293 12.6953 15.7396 12.6953 16.7352V23.7559C12.6953 24.7513 13.5057 25.5618 14.5012 25.5618H18.8205L25.2636 29.8986L25.2776 29.9103C25.5684 30.1545 25.8308 30.2517 26.0615 30.2517C26.3073 30.2517 26.5275 30.1342 26.6708 29.9174M26.0445 10.269C26.2431 10.269 26.4391 10.3453 26.5878 10.5074L26.0445 10.269ZM26.5878 10.5074C26.736 10.669 26.861 10.9429 26.861 11.3773L26.5878 10.5074ZM26.2074 10.6607L26.298 11.1227C26.3115 11.1914 26.3205 11.2759 26.3205 11.3773V29.4974H26.2842L26.2217 29.8811L25.7845 29.6125C25.7304 29.5792 25.6703 29.5356 25.6053 29.4795L25.6039 29.4783C25.5968 29.4721 25.5886 29.4658 25.5794 29.4596L19.1732 25.1475V15.3435L25.5606 11.0521C25.57 11.0456 25.5781 11.0394 25.5848 11.0338M25.6326 11.8326L19.8612 15.7101V24.7813L25.6326 28.6661V11.8326ZM25.5848 11.0338C25.6629 10.9684 25.7336 10.9211 25.7948 10.8875L26.2074 10.6607M26.861 11.3773V29.1534V11.3773ZM14.5012 16.1578C14.1831 16.1578 13.9238 16.4171 13.9238 16.7352V23.7559C13.9238 24.074 14.1831 24.3333 14.5012 24.3333H17.9447V16.1578H14.5012ZM13.2358 16.7352C13.2358 16.0371 13.8031 15.4698 14.5012 15.4698H18.6326V25.0212H14.5012C13.8031 25.0212 13.2358 24.4539 13.2358 23.7559V16.7352ZM26.861 29.1534C26.861 29.4899 26.7881 29.7398 26.6708 29.9174L26.861 29.1534Z" fill="white"/>
</svg>
