<svg width="45" height="54" viewBox="0 0 45 54" fill="none" xmlns="http://www.w3.org/2000/svg">
<g filter="url(#filter0_d_679_1825)">
<path d="M13.0425 11.1954C3.38663 19.2414 5.76227 32.0383 7.98449 37.8621L9.59418 42C10.973 39.0115 14.4213 38.4847 17.4098 37.8621C43.8926 32.3448 39.6324 12.1916 35.3412 2C30.2832 3.6092 21.05 4.52289 13.0425 11.1954Z" fill="#599E43"/>
<path d="M7.28375 38.1295L7.28551 38.134L8.8952 42.2719L9.5354 43.9176L10.2752 42.3142C10.8603 41.0461 11.8865 40.2747 13.1853 39.7368C14.348 39.2553 15.6599 38.9866 16.9983 38.7126C17.186 38.6741 17.3743 38.6356 17.5628 38.5963C24.2744 37.198 29.101 34.8594 32.4788 31.9309C35.8632 28.9965 37.756 25.5015 38.6444 21.8617C40.4111 14.623 38.1979 6.85195 36.0325 1.70896L35.7666 1.07762L35.1139 1.2853C34.0598 1.62064 32.7888 1.92951 31.3615 2.27637C26.1865 3.53399 18.9567 5.29096 12.5623 10.6192C7.54103 14.8034 5.65658 20.2259 5.31093 25.3112C4.9664 30.3801 6.14526 35.1458 7.28375 38.1295Z" stroke="#245F12" stroke-width="1.5"/>
</g>
<path d="M21.5062 14.4131C21.0676 14.4129 20.6197 14.6858 20.3544 15.229L18.7227 18.5882L15.0035 19.1161C13.8075 19.2825 13.42 20.4559 14.2837 21.2994L16.9711 23.9153L16.3473 27.5867C16.1418 28.7752 17.1276 29.4935 18.1949 28.9304C18.6073 28.7122 20.7277 27.6136 21.5062 27.2026L24.8174 28.9304C25.886 29.4935 26.8748 28.776 26.665 27.5867L26.0172 23.9153L28.7046 21.2994C29.5724 20.459 29.2049 19.2859 28.0088 19.1161L24.2656 18.5882L22.6579 15.229C22.393 14.6856 21.9447 14.4133 21.5062 14.4131Z" fill="white"/>
<defs>
<filter id="filter0_d_679_1825" x="0.5" y="0.155273" width="43.5364" height="53.6802" filterUnits="userSpaceOnUse" color-interpolation-filters="sRGB">
<feFlood flood-opacity="0" result="BackgroundImageFix"/>
<feColorMatrix in="SourceAlpha" type="matrix" values="0 0 0 0 0 0 0 0 0 0 0 0 0 0 0 0 0 0 127 0" result="hardAlpha"/>
<feOffset dy="4"/>
<feGaussianBlur stdDeviation="2"/>
<feComposite in2="hardAlpha" operator="out"/>
<feColorMatrix type="matrix" values="0 0 0 0 0 0 0 0 0 0 0 0 0 0 0 0 0 0 0.4 0"/>
<feBlend mode="normal" in2="BackgroundImageFix" result="effect1_dropShadow_679_1825"/>
<feBlend mode="normal" in="SourceGraphic" in2="effect1_dropShadow_679_1825" result="shape"/>
</filter>
</defs>
</svg>
