<svg width="52" height="41" viewBox="0 0 52 41" fill="none" xmlns="http://www.w3.org/2000/svg">
<path d="M43.3255 10L43.7793 10.5971C44.0357 10.4023 44.1391 10.0657 44.0363 9.76056C43.9335 9.45547 43.6475 9.25 43.3255 9.25V10ZM31.6976 18.8372V19.5872C31.8615 19.5872 32.0209 19.5335 32.1514 19.4343L31.6976 18.8372ZM1.93018 18.8372L1.49856 18.2239C1.23113 18.412 1.11645 18.7518 1.21515 19.0636C1.31385 19.3753 1.60317 19.5872 1.93018 19.5872L1.93018 18.8372ZM17.6542 10V9.25V10ZM42.8717 9.40288L31.2438 18.2401L32.1514 19.4343L43.7793 10.5971L42.8717 9.40288ZM31.6976 18.0872H1.93018V19.5872H31.6976V18.0872ZM2.3618 19.4506L12.3309 12.4353L11.4676 11.2086L1.49856 18.2239L2.3618 19.4506ZM17.6542 10.75H43.3255V9.25H17.6542V10.75ZM12.3309 12.4353C13.8893 11.3386 15.7485 10.75 17.6542 10.75V9.25C15.4395 9.25 13.2788 9.93403 11.4676 11.2086L12.3309 12.4353Z" fill="#599E43"/>
<path d="M31.6977 18.8374H32.4477C32.4477 18.4232 32.1119 18.0874 31.6977 18.0874V18.8374ZM31.6977 40.2328V40.9828C32.1119 40.9828 32.4477 40.647 32.4477 40.2328H31.6977ZM2.5 19.5874H31.6977V18.0874H2.5V19.5874ZM30.9477 18.8374V40.2328H32.4477V18.8374H30.9477ZM31.6977 39.4828H4V40.9828H31.6977V39.4828ZM1.75 37.2328V20.3374H0.25V37.2328H1.75ZM4 39.4828C2.75736 39.4828 1.75 38.4754 1.75 37.2328H0.25C0.25 39.3038 1.92893 40.9828 4 40.9828V39.4828ZM2.5 18.0874C1.25736 18.0874 0.25 19.0948 0.25 20.3374H1.75C1.75 19.9232 2.08579 19.5874 2.5 19.5874V18.0874Z" fill="#599E43"/>
<path opacity="0.4" d="M3 21.2324H29V38.2324H4C3.44772 38.2324 3 37.7847 3 37.2324V21.2324Z" fill="#599E43"/>
<path d="M31.6978 18.8372L31.2439 18.2401C31.0573 18.3819 30.9478 18.6028 30.9478 18.8372H31.6978ZM43.3257 10H44.0757C44.0757 9.71506 43.9142 9.45473 43.6589 9.32811C43.4037 9.2015 43.0987 9.23047 42.8718 9.40288L43.3257 10ZM31.6978 40.2326H30.9478C30.9478 40.5287 31.1221 40.7972 31.3926 40.9177C31.6632 41.0382 31.9793 40.9882 32.1995 40.79L31.6978 40.2326ZM41.3394 31.555L40.8377 30.9976L41.3394 31.555ZM32.1516 19.4343L43.7795 10.5971L42.8718 9.40288L31.2439 18.2401L32.1516 19.4343ZM42.5757 10V27.0953H44.0757V10H42.5757ZM40.8377 30.9976L31.196 39.6751L32.1995 40.79L41.8412 32.1125L40.8377 30.9976ZM32.4478 40.2326V18.8372H30.9478V40.2326H32.4478ZM42.5757 27.0953C42.5757 28.5836 41.944 30.0019 40.8377 30.9976L41.8412 32.1125C43.2635 30.8324 44.0757 29.0088 44.0757 27.0953H42.5757Z" fill="#599E43"/>
<path d="M33.7207 13.4883L29.3021 16.7441H16.9766L22 13.4883" stroke="#599E43" stroke-width="1.5" stroke-linecap="round" stroke-linejoin="round"/>
<path d="M9 18.8372L20.8605 10" stroke="#599E43" stroke-width="1.5" stroke-linecap="round" stroke-linejoin="round"/>
<path d="M49 10L49 40" stroke="#599E43" stroke-width="1.5" stroke-linecap="round"/>
<path d="M47 12.5L49 9L51 12.5" stroke="#599E43" stroke-width="1.5" stroke-linecap="round" stroke-linejoin="round"/>
<path d="M47 36.5L49 40L51 36.5" stroke="#599E43" stroke-width="1.5" stroke-linecap="round" stroke-linejoin="round"/>
<path d="M43 3L1 3" stroke="#599E43" stroke-width="1.5" stroke-linecap="round"/>
<path d="M39.5 1L43 3L39.5 5" stroke="#599E43" stroke-width="1.5" stroke-linecap="round" stroke-linejoin="round"/>
<path d="M4.5 1L1 3L4.5 5" stroke="#599E43" stroke-width="1.5" stroke-linecap="round" stroke-linejoin="round"/>
</svg>
