<svg width="80" height="80" viewBox="0 0 80 80" fill="none" xmlns="http://www.w3.org/2000/svg">
<path fill-rule="evenodd" clip-rule="evenodd" d="M29.7607 9.02186C29.7307 9.70948 29.2741 10.1698 28.6805 10.1491C28.1112 10.1284 27.6772 9.6982 27.6753 9.02749C27.6509 7.72553 27.649 6.41042 27.6753 5.09531C27.6903 4.41897 28.1262 4.00189 28.7143 4.00001C29.3023 3.99813 29.7363 4.41145 29.7607 5.08967C29.777 5.54181 29.7716 5.99479 29.7661 6.44748V6.44751V6.44754V6.44757V6.4476V6.44763V6.44766V6.44769V6.44772V6.44793V6.44813V6.44834V6.44855V6.44876V6.44897V6.44918V6.44939C29.7634 6.67512 29.7607 6.90077 29.7607 7.12622C29.7607 7.33733 29.7634 7.54823 29.7662 7.75899V7.75902V7.75905V7.75907V7.7591V7.75913V7.75916V7.75918V7.75921V7.75929C29.7716 8.18052 29.777 8.60119 29.7607 9.02186ZM40.5832 51.3414C41.3023 51.4768 42.0047 51.6091 42.6827 51.8189C50.7274 54.3063 53.9645 63.993 49.0497 70.8429C48.9322 71.0179 48.8015 71.1837 48.6589 71.3389C48.4918 71.5411 48.2526 71.6706 47.9919 71.7001C47.7312 71.7295 47.4692 71.6566 47.2611 71.4967C46.7971 71.1886 46.6975 70.5836 47.0131 70.0613C47.149 69.8386 47.2962 69.6205 47.4435 69.4022C47.73 68.9776 48.0171 68.5521 48.2231 68.0905C50.0041 64.1076 49.5889 60.2976 46.7764 56.9929C43.964 53.6882 40.2685 52.5741 36.1165 53.799C31.9645 55.024 29.4696 57.9266 28.8496 62.2251C28.2785 66.1742 29.6687 69.4376 32.8776 71.8311C36.0864 74.2246 39.6241 74.5252 43.3083 72.932C43.369 72.9062 43.4288 72.8783 43.4886 72.8503L43.4888 72.8502L43.4892 72.85L43.4895 72.8499C43.5775 72.8087 43.6658 72.7675 43.7573 72.7329C44.3303 72.5112 44.8845 72.7009 45.1382 73.1988C45.4049 73.7267 45.2434 74.3805 44.6366 74.6097C43.7328 74.9521 42.808 75.2405 41.8834 75.5289L41.8833 75.5289L41.8832 75.529L41.8832 75.529L41.8831 75.529L41.883 75.529L41.8829 75.5291L41.8828 75.5291L41.8828 75.5291L41.8827 75.5291L41.8826 75.5291L41.882 75.5293L41.8815 75.5295L41.8809 75.5297L41.8808 75.5297L41.8806 75.5298L41.8804 75.5298L41.8803 75.5299L41.8801 75.5299L41.88 75.53L41.8798 75.53C41.5371 75.6369 41.1944 75.7438 40.8528 75.8534C40.7208 75.8949 40.5845 75.9246 40.4481 75.9544L40.4477 75.9545L40.4468 75.9547C40.412 75.9622 40.3772 75.9698 40.3424 75.9776C40.3102 75.9849 40.278 75.9923 40.2459 76H37.7134C37.4377 75.9332 37.1599 75.8727 36.8821 75.8123L36.8815 75.8121C36.2924 75.684 35.7032 75.5558 35.1339 75.3669C29.7288 73.5839 26.2043 68.3442 26.6289 62.7662C26.8301 59.972 27.9698 57.3278 29.8629 55.2628C31.756 53.1977 34.2915 51.8332 37.0577 51.3905L37.3696 51.3379C37.3934 51.0798 37.4118 50.8207 37.4302 50.5614L37.4302 50.5613L37.4302 50.5612L37.4302 50.5611L37.4302 50.561L37.4302 50.5609L37.4302 50.5607L37.4302 50.5606L37.4303 50.5605L37.4303 50.5604L37.4303 50.5603C37.4627 50.1028 37.4952 49.6447 37.5575 49.1905C37.7831 47.4085 38.5732 45.7455 39.812 44.4448C40.5381 43.7102 41.1053 42.8341 41.4786 41.871C41.8519 40.9079 42.0232 39.8783 41.9819 38.8462C41.9483 37.3647 41.9553 35.8824 41.9623 34.4003C41.9663 33.5613 41.9703 32.7224 41.9669 31.8836C41.9556 29.1445 40.1614 27.3503 37.4316 27.339C36.6662 27.3344 35.9008 27.3367 35.1353 27.3389C34.022 27.3422 32.9087 27.3455 31.7954 27.3277C31.151 27.3165 30.9801 27.5457 31.059 28.1619C31.1568 29.0109 31.5433 29.8006 32.1537 30.3988C32.7642 30.997 33.5616 31.3673 34.4125 31.4478C35.1083 31.5023 35.8087 31.4979 36.5083 31.4934H36.5084H36.5086C36.7005 31.4922 36.8924 31.491 37.0841 31.491C37.6383 31.491 38.1211 31.6394 38.3353 32.1918C38.5495 32.7441 38.2677 33.1198 37.8919 33.4862C36.0339 35.286 35.0945 37.4315 35.4101 40.0618C35.5003 40.7776 35.0982 41.3149 34.4707 41.3769C33.8902 41.4332 33.4337 41.0312 33.3266 40.306C33.0072 38.1492 33.4919 36.1596 34.5628 34.2941C34.6271 34.1796 34.692 34.0659 34.7586 33.9491C34.8069 33.8645 34.8561 33.7783 34.9066 33.6891L34.668 33.6378L34.5327 33.6086L34.5327 33.6085L34.5243 33.6067L34.5198 33.6058L34.5197 33.6057L34.5196 33.6057L34.5189 33.6056L34.5188 33.6055L34.5181 33.6054L34.5178 33.6053C33.96 33.4849 33.4254 33.3694 32.8907 33.2701C32.7538 33.2583 32.6169 33.2927 32.5018 33.3678C30.4089 34.6491 28.4889 34.3467 26.6778 32.7554C25.1015 34.2865 23.3261 34.5796 21.3234 33.535C20.0421 35.9511 18.0901 36.6763 15.4993 35.7163C15.4993 36.3711 15.4938 37.022 15.4883 37.67C15.4751 39.2231 15.462 40.7593 15.5256 42.2918C15.5707 43.4153 16.2396 44.3284 17.1789 44.9502C19.3113 46.3499 20.2863 48.3131 20.1717 50.8457C20.1582 51.1593 20.1616 51.4733 20.165 51.7874C20.1682 52.083 20.1714 52.3785 20.1605 52.6737C20.1379 53.3425 19.7208 53.7746 19.1347 53.7803C18.5485 53.7859 18.1033 53.3669 18.0713 52.6981C18.0356 51.9466 18.0469 51.1951 18.06 50.4436C18.0864 48.8862 17.4551 47.6875 16.1644 46.8196C14.2443 45.527 13.3463 43.7197 13.3463 41.4032C13.3504 40.1772 13.3568 38.9513 13.3632 37.7254C13.3865 33.2777 13.4099 28.8305 13.32 24.3856C13.2543 21.0979 16.5946 18.7908 19.6776 20.5774C20.2187 19.4803 20.9833 18.6123 22.1857 18.1933C23.3881 17.7744 24.536 17.9247 25.6895 18.5541C26.2588 17.145 27.1738 16.091 28.6204 15.6232C30.067 15.1554 31.3896 15.456 32.6709 16.2939C32.7309 16.2072 32.7881 16.1233 32.8439 16.0414L32.844 16.0412L32.8449 16.0399L32.8452 16.0395C32.934 15.9091 33.0193 15.7839 33.1068 15.6608C33.6382 14.908 34.3918 14.3402 35.2619 14.037C36.1321 13.7338 37.0754 13.7104 37.9595 13.97C38.8467 14.2201 39.6307 14.7474 40.1968 15.4748C40.763 16.2022 41.0817 17.0916 41.1064 18.013C41.1515 20.5436 41.1346 23.0762 41.1177 25.6068C41.1041 25.8007 41.1417 25.9948 41.2268 26.1695C41.3118 26.3443 41.4414 26.4936 41.6024 26.6025C43.1881 27.8463 44.0429 29.4864 44.0654 31.5117C44.0801 32.9366 44.0778 34.3616 44.0755 35.7866V35.7881C44.0737 36.9177 44.0719 38.0473 44.0786 39.1769C44.1034 40.3747 43.8909 41.5656 43.4533 42.6809C43.0158 43.7963 42.3618 44.814 41.5291 45.6754C40.8312 46.3939 40.2947 47.2531 39.9555 48.1956C39.6163 49.1381 39.4822 50.1422 39.5621 51.1406C39.9056 51.2138 40.2462 51.2779 40.5832 51.3414ZM17.4532 34.0122C18.588 34.0085 19.4334 33.1368 19.4334 31.9043V31.9137C19.4447 29.3348 19.4453 26.751 19.4352 24.1621C19.4296 22.9221 18.6368 22.0523 17.4795 22.0316C16.3222 22.0109 15.4787 22.9071 15.4674 24.1733C15.4599 25.0176 15.4624 25.862 15.4649 26.7057V26.7061V26.7066V26.707V26.7074V26.7078V26.7082V26.7087V26.7091V26.7095V26.7099C15.4661 27.1302 15.4674 27.5503 15.4674 27.9703C15.4674 28.4086 15.4655 28.847 15.4636 29.2854C15.4599 30.1621 15.4561 31.0388 15.4674 31.9156C15.4843 33.1537 16.3185 34.016 17.4532 34.0122ZM23.2416 31.9926C24.4872 32.1692 25.4829 31.3407 25.5299 30.0256V30.0331C25.5624 29.1254 25.5544 28.2167 25.5464 27.3078V27.3078V27.3078V27.3077V27.3077V27.3077V27.3076V27.3076V27.3076V27.3075V27.3075L25.5464 27.307C25.5428 26.9031 25.5393 26.4992 25.5393 26.0953C25.5393 25.6864 25.5425 25.2774 25.5458 24.8683V24.8681V24.8679V24.8677V24.8675V24.8673V24.8671V24.8669V24.8667V24.8665V24.8663C25.5533 23.9169 25.5608 22.9672 25.528 22.0184C25.5265 21.7595 25.474 21.5033 25.3735 21.2647C25.2729 21.026 25.1264 20.8095 24.9421 20.6275C24.7579 20.4455 24.5396 20.3016 24.2997 20.2041C24.0598 20.1065 23.803 20.0572 23.5441 20.0589C23.2785 20.0591 23.0157 20.1123 22.771 20.2154C22.5263 20.3184 22.3046 20.4693 22.1189 20.6592C21.9333 20.849 21.7874 21.074 21.6899 21.321C21.5923 21.5679 21.5449 21.8319 21.5507 22.0973C21.5319 24.7163 21.5319 27.3409 21.5507 29.9711C21.5638 31.0532 22.2627 31.8555 23.2416 31.9926ZM31.6827 25.2217H32.2463V25.2292C32.2463 24.6706 32.2499 24.1187 32.2535 23.5719C32.2625 22.1766 32.2713 20.8142 32.22 19.4577C32.1881 18.5672 31.5831 17.9623 30.7546 17.6523C29.1765 17.0623 27.6697 18.2065 27.6585 20.0213C27.6472 22.1298 27.6509 24.2374 27.6547 26.3452V26.3455V26.3457V26.3459V26.3461V26.3463V26.3465V26.3467V26.3469V26.3471V26.3473C27.6566 27.4017 27.6585 28.4562 27.6585 29.5108C27.6568 29.7451 27.677 29.9791 27.7186 30.2097C27.7782 30.5213 27.9046 30.8163 28.0893 31.0743C28.274 31.3322 28.5125 31.5471 28.7883 31.7039C29.0641 31.8607 29.3706 31.9558 29.6868 31.9827C30.0029 32.0095 30.3211 31.9674 30.6193 31.8592C29.6912 30.809 29.0675 29.6367 28.951 28.2276C28.797 26.3489 29.7796 25.248 31.6827 25.2217ZM34.5177 25.2555H39.0098L39.0154 25.263C39.0154 24.6706 39.0163 24.0772 39.0172 23.483V23.4805V23.478V23.4755V23.473V23.4704V23.4679V23.4653V23.4627V23.4601V23.4575V23.4572V23.457V23.4567V23.4565V23.4563V23.456V23.4558V23.4555V23.4553V23.4551C39.0197 21.7292 39.0222 19.9962 39.0041 18.2591C38.9947 16.8876 38.0347 15.9201 36.7402 15.905C36.4342 15.8921 36.1287 15.9421 35.8427 16.0518C35.5567 16.1615 35.2962 16.3285 35.0772 16.5428C34.8582 16.757 34.6854 17.0138 34.5695 17.2973C34.4536 17.5809 34.3969 17.8852 34.4031 18.1915C34.3743 19.7045 34.3839 21.2184 34.3935 22.7321V22.7323V22.7325V22.7327V22.7329V22.7331V22.7333V22.7335V22.7337V22.7339V22.7341C34.3983 23.4902 34.4031 24.2461 34.4031 25.0019C34.4031 25.0426 34.424 25.0798 34.4543 25.1334L34.4543 25.1334C34.4728 25.1664 34.4948 25.2055 34.5177 25.2555ZM20.1416 57.4036C20.1608 57.5909 20.1678 57.7791 20.1623 57.9673C20.1623 63.4945 20.1623 69.0217 20.1735 74.5452C20.1735 75.1915 20.0195 75.6912 19.422 75.9956H18.7175C18.1539 75.6123 18.0449 75.0618 18.0449 74.4137C18.0512 68.9566 18.0543 63.5001 18.0543 58.0443C18.0459 57.7877 18.068 57.531 18.1201 57.2796C18.1627 57.0445 18.2919 56.8339 18.4821 56.6893C18.6723 56.5446 18.9098 56.4764 19.1478 56.4981C19.3985 56.4908 19.6422 56.5811 19.8277 56.75C20.0131 56.919 20.1256 57.1533 20.1416 57.4036ZM41.3916 60.8786L41.3914 60.8788L41.3905 60.8801L41.3896 60.8813L41.3886 60.8825C41.1613 61.1826 40.934 61.4826 40.7062 61.7814L37.4296 66.08C37.2505 65.8329 37.0741 65.5891 36.8997 65.348C36.2787 64.4896 35.6828 63.666 35.0756 62.8504C34.6265 62.2455 34.0047 62.1215 33.5012 62.5029C32.9977 62.8843 32.9376 63.4554 33.3603 64.0566C34.3761 65.4869 35.4056 66.9091 36.4489 68.3232C37.0238 69.1029 37.7641 69.1104 38.3596 68.3457C40.4375 65.6316 42.5085 62.9112 44.5726 60.1845C45.0385 59.5702 44.9972 58.9521 44.5068 58.5651C43.9864 58.1555 43.3833 58.2832 42.8798 58.9333C42.3789 59.5755 41.885 60.2273 41.3916 60.8786ZM7.64445 43.6615C6.51721 44.2852 5.40687 44.9352 4.3003 45.5966C3.70662 45.9535 3.5488 46.4965 3.82309 47.0244C4.09739 47.5523 4.71925 47.759 5.32608 47.4189C6.4721 46.7839 7.61251 46.1339 8.72472 45.4425C8.93863 45.3018 9.08823 45.0704 9.19485 44.9055L9.19489 44.9054C9.23059 44.8502 9.26147 44.8024 9.28834 44.768C9.32403 43.6878 8.46357 43.2106 7.64445 43.6615ZM40.8865 13.204C40.8284 13.2341 40.778 13.2601 40.7437 13.2838C39.7743 13.3101 39.2107 12.5493 39.5789 11.8391C40.2383 10.5747 40.9673 9.34413 41.7188 8.13235C42.0306 7.63073 42.5849 7.55183 43.0846 7.85806C43.5843 8.16429 43.7778 8.65652 43.4847 9.19196C42.8084 10.4206 42.1076 11.6381 41.3712 12.8329C41.2613 13.0102 41.0449 13.1221 40.8865 13.204ZM53.2975 45.7225C52.0838 44.971 50.8551 44.2439 49.5926 43.5732C49.0872 43.3045 48.5631 43.4736 48.2662 44.0053C47.9694 44.537 48.0783 45.0536 48.5762 45.3617C49.7936 46.1132 51.028 46.829 52.2923 47.4903C52.9518 47.8341 53.7239 47.2837 53.7371 46.3838C53.7121 46.344 53.6861 46.288 53.6567 46.2246L53.6567 46.2246C53.5778 46.0544 53.474 45.8306 53.2975 45.7225ZM16.2543 13.0814C16.1439 12.9925 16.0531 12.8817 15.9877 12.756C15.2982 11.6156 14.6237 10.4639 13.9924 9.2916C13.5678 8.52508 14.0864 7.67401 15.1197 7.70595C15.1584 7.73755 15.2132 7.77315 15.2759 7.81396C15.4446 7.92361 15.6711 8.07085 15.7998 8.27896C16.493 9.39117 17.1412 10.5316 17.7762 11.6776C18.1031 12.2675 17.9453 12.8518 17.4437 13.1505C17.3237 13.226 17.1894 13.2758 17.0492 13.2967C16.909 13.3177 16.766 13.3094 16.6292 13.2723C16.4924 13.2352 16.3647 13.1702 16.2543 13.0814ZM8.60996 19.8885C7.56163 19.2686 6.50639 18.6605 5.44428 18.0643C5.15806 17.9298 4.8638 17.8131 4.56317 17.7148C4.48365 17.7995 4.39382 17.882 4.30263 17.9659L4.30261 17.9659C4.09216 18.1593 3.87441 18.3595 3.75907 18.6072C3.53362 19.0957 3.80793 19.5297 4.24944 19.7927C5.35663 20.4515 6.47136 21.0966 7.59359 21.7278C8.2549 22.1036 8.86171 21.9589 9.1717 21.4047C9.48169 20.8504 9.2957 20.2925 8.60996 19.8885ZM53.0927 19.8351C52.0199 20.504 50.9171 21.1239 49.8124 21.7383C49.153 22.0971 48.5368 21.9299 48.2456 21.3813C47.9544 20.8327 48.1329 20.2841 48.7791 19.9084C49.8669 19.2659 50.9585 18.6271 52.0669 18.0203C52.8785 17.5731 53.7559 18.0541 53.7277 19.1175C53.6893 19.1612 53.6463 19.2227 53.5972 19.2928L53.5971 19.2929L53.5971 19.293C53.4734 19.4698 53.312 19.7006 53.0927 19.8351ZM6.13381 32.6316C6.05678 32.0098 5.68478 31.6754 5.04602 31.6716C4.61984 31.6691 4.17695 31.6699 3.73573 31.6708H3.73549C3.51548 31.6712 3.29588 31.6716 3.07899 31.6716H1.11197C0.460048 31.6716 0.0861602 31.9759 0.011011 32.611C-0.0101543 32.751 -0.000730438 32.8939 0.0386231 33.03C0.0779767 33.1661 0.146316 33.292 0.238972 33.3991C0.331628 33.5062 0.446397 33.592 0.575364 33.6505C0.704331 33.7091 0.844433 33.739 0.986061 33.7382C2.36693 33.7833 3.74968 33.7814 5.12867 33.7382C5.26965 33.7389 5.4092 33.71 5.53827 33.6532C5.66733 33.5965 5.78303 33.5133 5.87782 33.4089C5.97261 33.3045 6.04439 33.1814 6.08849 33.0475C6.13259 32.9136 6.14804 32.7719 6.13381 32.6316ZM56.2171 31.6716C56.9704 31.6772 57.395 32.0342 57.4232 32.6523C57.4533 33.3042 57.0174 33.7457 56.2584 33.772C55.8377 33.7845 55.417 33.7803 54.9958 33.7762C54.7849 33.7741 54.574 33.772 54.3628 33.772C54.1517 33.772 53.9405 33.7745 53.7295 33.777C53.3076 33.782 52.886 33.787 52.4652 33.772C51.725 33.7438 51.2572 33.2722 51.2854 32.6598C51.3136 32.0473 51.7551 31.6716 52.4934 31.6716C53.7347 31.6616 54.9758 31.6616 56.2171 31.6716Z" fill="#245F12"/>
<circle opacity="0.4" cx="39" cy="63" r="16" fill="#245F12"/>
</svg>
