<svg width="80" height="80" viewBox="0 0 80 80" fill="none" xmlns="http://www.w3.org/2000/svg">
<path fill-rule="evenodd" clip-rule="evenodd" d="M52.1171 42.8919L51.4986 42.6175C49.8269 41.8759 48.1548 41.1342 46.4799 40.3799C45.3948 39.8901 45.1112 37.9277 45.9937 37.1156C47.2295 35.9919 48.1255 34.5443 48.5798 32.937C48.9596 31.6102 48.9469 30.2611 48.9341 28.9019L48.9322 28.6862C48.9322 28.3339 48.992 28.0855 49.2985 27.8512C49.8799 27.4073 50.0772 26.7414 50.0543 26.0402C49.938 22.4412 48.3209 19.7354 45.1306 18.0372C42.7841 16.7864 40.235 16.9097 37.7123 17.1705C35.047 17.447 32.9736 18.8193 31.4533 21.0038C29.8414 23.3185 29.7269 25.9363 29.9947 28.6193C30.018 28.8426 30.0884 29.0585 30.2014 29.2525C30.3144 29.4466 30.4673 29.6144 30.65 29.7449C30.7806 29.8382 30.8851 29.9635 30.9533 30.1089C31.0214 30.2542 31.0511 30.4146 31.0393 30.5747C31.1027 32.937 31.8638 35.058 33.5866 36.6928C34.2913 37.3605 34.4569 38.0228 34.4269 38.8983C34.4005 39.6417 34.1363 40.1156 33.4334 40.4151C32.344 40.8817 31.2624 41.3663 30.1813 41.8506L30.1812 41.8506C29.4092 42.1965 28.6374 42.5423 27.8631 42.8814C25.4655 43.9384 24.2765 45.7969 24.2659 48.3953C24.2541 51.3313 24.2581 54.2673 24.262 57.2034C24.2639 58.6714 24.2659 60.1394 24.2659 61.6074C24.2612 61.864 24.2914 62.12 24.3557 62.3685C24.4223 62.5935 24.5645 62.7886 24.7582 62.921C24.9519 63.0534 25.1853 63.1149 25.4192 63.0953C25.653 63.0756 25.8729 62.976 26.0418 62.8131C26.2107 62.6502 26.3183 62.4341 26.3464 62.2011C26.3681 61.9439 26.3757 61.6858 26.3693 61.4278V48.6348V47.6624C26.6601 47.956 26.9343 48.2374 27.1985 48.5087L27.1987 48.5089L27.1989 48.509C27.7795 49.1049 28.3122 49.6517 28.869 50.171C29.2173 50.4823 29.4917 50.8675 29.6722 51.2985C29.8526 51.7295 29.9345 52.1953 29.9119 52.6619C29.8772 55.5178 29.889 58.3736 29.9008 61.2295L29.9031 61.7995C29.9031 62.6221 30.3294 63.1136 30.9601 63.1136C31.5907 63.1136 31.9994 62.6257 32.0012 61.7977V52.3783C32.0129 51.722 31.8873 51.0705 31.6325 50.4656C31.3776 49.8607 30.9992 49.3157 30.5214 48.8656C29.9443 48.2946 29.3714 47.7202 28.7981 47.1454C28.5436 46.8903 28.289 46.635 28.034 46.38C27.2483 45.5943 27.2483 45.5855 28.2101 45.0482L28.2706 45.0145C28.3527 44.9687 28.4353 44.9225 28.5202 44.8844C29.057 44.6458 29.5942 44.4085 30.1314 44.1712L30.1325 44.1707C31.432 43.5967 32.7313 43.0228 34.0235 42.4322C34.3758 42.2736 34.552 42.3476 34.8039 42.5977C36.0018 43.8186 37.205 45.0341 38.4346 46.2232C38.5979 46.3673 38.7267 46.5464 38.8115 46.747C38.8962 46.9476 38.9348 47.1648 38.9244 47.3823C38.9067 52.0682 38.9067 56.7548 38.9244 61.4419C38.915 61.7453 38.9386 62.049 38.9948 62.3473C39.0525 62.5625 39.1793 62.7528 39.3557 62.8889C39.5321 63.025 39.7483 63.0994 39.9711 63.1006C40.1939 63.1018 40.4109 63.0298 40.5888 62.8956C40.7666 62.7614 40.8955 62.5725 40.9555 62.3579C41.0139 62.0598 41.0387 61.7561 41.0295 61.4524V47.3242C41.0295 46.9719 41.0612 46.6636 41.3554 46.38C42.6332 45.1398 43.8921 43.8808 45.1323 42.603C45.4107 42.3159 45.6221 42.2948 45.9762 42.4568C47.0941 42.9689 48.217 43.4672 49.3399 43.9655L49.34 43.9655L49.3402 43.9656C50.0096 44.2627 50.679 44.5597 51.3473 44.8597C51.6233 44.9873 51.8894 45.1351 52.1436 45.3019C52.4959 45.5185 52.6228 45.7158 52.2264 46.084C51.7164 46.5565 51.2295 47.0523 50.7427 47.548L50.7425 47.5482C50.3601 47.9377 49.9776 48.3271 49.584 48.7053C49.0392 49.2036 48.61 49.815 48.3264 50.4967C48.0428 51.1783 47.9116 51.9137 47.9421 52.6513C47.9689 54.6744 47.9637 56.6982 47.9585 58.7218V58.722C47.9562 59.6269 47.9539 60.5318 47.9545 61.4366C47.9545 62.5852 48.275 63.1048 48.9903 63.1119C49.7055 63.1189 50.0631 62.5834 50.0631 61.4577V52.5298C50.0631 51.9854 50.0631 51.427 50.4154 50.9831C50.97 50.2718 51.6115 49.6453 52.2886 48.9841C52.7149 48.5679 53.1552 48.1379 53.5969 47.6642V48.626V61.4859C53.5869 61.743 53.598 62.0005 53.6304 62.2557C53.6707 62.4748 53.7817 62.6747 53.9463 62.8248C54.111 62.9749 54.3202 63.067 54.5421 63.087C54.764 63.1069 54.9863 63.0537 55.1751 62.9354C55.3639 62.8171 55.5088 62.6403 55.5876 62.4319C55.672 62.1649 55.7101 61.8855 55.7003 61.6057C55.7003 60.1377 55.7023 58.6696 55.7042 57.2016V57.1995C55.7081 54.2641 55.7121 51.3288 55.7003 48.3935C55.7021 45.8127 54.5147 43.9524 52.1171 42.8919ZM42.5 42.2897L42.4992 42.2906L42.4989 42.2909C41.771 43.0167 41.0429 43.7429 40.3266 44.4792C40.0729 44.7399 39.9302 44.761 39.666 44.4792C38.9468 43.7391 38.2154 43.0105 37.4838 42.2818L37.4838 42.2817C37.1061 41.9056 36.7284 41.5293 36.3524 41.1515L36.3483 41.1473C36.2526 41.0499 36.0921 40.8864 36.1199 40.8291C36.4035 40.2249 36.4898 39.5854 36.562 38.9336C36.5807 38.7613 36.7374 38.8229 36.8576 38.8701C36.8643 38.8727 36.8709 38.8753 36.8773 38.8778C36.8865 38.8813 36.8953 38.8847 36.9038 38.8878C38.8932 39.6232 41.08 39.6232 43.0695 38.8878C43.0871 38.8817 43.1063 38.8743 43.1264 38.8665L43.1265 38.8665C43.246 38.8202 43.3946 38.7626 43.4218 38.9195C43.4411 39.0454 43.4567 39.172 43.4723 39.2985C43.5367 39.8199 43.601 40.3405 43.9186 40.8097C43.8954 40.8386 43.8732 40.8666 43.8517 40.8937L43.8512 40.8943L43.8512 40.8943C43.7598 41.0094 43.6802 41.1097 43.5891 41.2008C43.2272 41.5645 42.8636 41.9271 42.5 42.2897ZM45.0706 35.0633C42.1657 38.465 36.333 37.9136 34.1486 34.0063C33.558 32.9677 33.2161 31.8064 33.1497 30.6134C33.1268 30.2223 33.1938 29.9511 33.606 29.796C34.1345 29.5952 34.5661 29.2182 34.9889 28.8483C35.0996 28.7616 35.192 28.6537 35.2606 28.5309C35.3291 28.408 35.3724 28.2728 35.388 28.133C35.4036 27.9932 35.3911 27.8517 35.3513 27.7168C35.3115 27.5819 35.2452 27.4563 35.1563 27.3474C34.8039 26.9281 34.2173 26.8629 33.7012 27.2064C33.5682 27.2944 33.4417 27.3924 33.3152 27.4904C33.0362 27.7067 32.7572 27.923 32.4081 28.0309C32.3751 28.0411 32.3405 28.0565 32.3063 28.0718C32.1692 28.1333 32.0371 28.1924 32.0259 27.9005C31.9501 25.7478 32.0399 23.6409 33.4757 21.8405C34.6736 20.3396 36.2114 19.4095 38.1105 19.2351C39.851 19.0765 41.6038 18.9955 43.3249 19.5522C45.9233 20.3925 47.9685 23.1441 47.9597 25.8764L47.96 25.9238C47.9618 26.1196 47.9633 26.2818 47.6761 26.3291C44.7606 26.8136 41.8997 26.833 39.1851 25.436C38.6048 25.132 38.0636 24.7587 37.5732 24.3244C36.8791 23.7184 36.3119 23.6726 35.8503 24.1712C35.3888 24.6697 35.498 25.3021 36.2027 25.9205C37.8586 27.3967 39.8263 28.1947 41.9913 28.547C42.9166 28.6952 43.8552 28.7424 44.7906 28.688C44.9233 28.688 45.056 28.6897 45.1887 28.6915C45.4541 28.695 45.7195 28.6985 45.985 28.688L46.0086 28.6868C46.4148 28.6659 46.6179 28.6555 46.7229 28.752C46.828 28.8484 46.835 29.0517 46.849 29.4583C46.8498 29.4832 46.8507 29.5089 46.8517 29.5353C46.9169 31.5982 46.4447 33.4532 45.0706 35.0633ZM19.8194 28.7584C19.5428 28.5488 19.4495 28.3779 19.5182 28.0115C19.8705 26.1248 19.2275 24.5939 17.6755 23.4841C16.2521 22.4641 14.272 22.4712 12.7817 23.4295C12.0521 23.9055 11.4801 24.5873 11.138 25.3884C10.7958 26.1896 10.699 27.0743 10.8598 27.9305C10.9115 28.0941 10.906 28.2704 10.8443 28.4305C10.7825 28.5906 10.668 28.7249 10.5198 28.8113C9.19882 29.7637 8.23009 31.1263 7.76459 32.6869C7.18149 34.6123 7.2907 36.58 7.51267 38.5354C7.68883 40.1209 8.32302 41.5954 9.54206 42.5872C10.6536 43.4944 10.865 44.5126 10.7752 45.8004C10.7276 46.505 10.4757 46.9419 9.86269 47.2343C9.57925 47.3696 9.30022 47.5145 9.02131 47.6594L9.02123 47.6594C8.57387 47.8918 8.12684 48.1239 7.66242 48.316C5.9008 49.0453 4.53906 50.141 4 52.0577V62.4618L4.02601 62.4905C4.39409 62.897 4.76045 63.3015 5.4093 63.052C6.07343 62.7965 6.11395 62.2592 6.11395 61.6673C6.1069 59.1376 6.1069 56.6074 6.11395 54.0765C6.11395 54.0345 6.10948 53.9912 6.1049 53.9469C6.08853 53.7883 6.07067 53.6152 6.2496 53.4335C6.37895 53.5704 6.50519 53.7087 6.63087 53.8464L6.63091 53.8465C6.91771 54.1607 7.20156 54.4718 7.51267 54.7547C7.85593 55.0555 8.12503 55.4317 8.29891 55.8537C8.47279 56.2757 8.54676 56.7322 8.51504 57.1875C8.47213 58.7169 8.49277 60.2462 8.51342 61.7756L8.51504 61.8963C8.51504 62.6644 8.95017 63.1418 9.57202 63.1295C10.1939 63.1171 10.6114 62.645 10.6149 61.877C10.6149 61.2992 10.6161 60.7213 10.6173 60.1435C10.6196 58.9879 10.622 57.8323 10.6149 56.6766C10.6287 55.6099 10.2283 54.5794 9.49802 53.8017C8.77752 53.0336 8.04821 52.2691 7.27838 51.5521C6.88554 51.1857 7.00885 51.0236 7.39113 50.8228C7.70988 50.6608 8.02905 50.4996 8.34823 50.3384L8.34857 50.3382C9.34169 49.8366 10.3349 49.3349 11.316 48.811C11.5904 48.6637 11.7038 48.7879 11.8327 48.9291L11.8328 48.9292C11.8504 48.9484 11.8682 48.9679 11.8868 48.9871C12.0942 49.1928 12.2996 49.4003 12.5051 49.6078C12.9262 50.0331 13.3472 50.4583 13.7841 50.8668C13.9118 50.9823 14.0112 51.1256 14.0748 51.2857C14.1383 51.4457 14.1642 51.6182 14.1505 51.7899C14.1422 53.3367 14.145 54.8836 14.1477 56.4299C14.1491 57.2029 14.1505 57.9757 14.1505 58.7483C14.1505 59.0926 14.1493 59.4366 14.1481 59.7805C14.1458 60.4679 14.1434 61.1548 14.1505 61.8417C14.161 62.6521 14.5927 63.1489 15.2321 63.1312C15.8716 63.1136 16.2363 62.6398 16.2556 61.8629V61.3714C16.2556 60.5713 16.2627 59.771 16.2697 58.9706C16.2868 57.0289 16.3039 55.0872 16.2204 53.1499C16.1622 51.7635 16.5022 50.7224 17.6015 49.8909C17.7744 49.7601 17.9229 49.5831 18.0694 49.4084C18.2843 49.1523 18.4948 48.9014 18.7712 48.8092C19.0635 48.7118 19.3488 48.9024 19.6438 49.0995C19.8182 49.216 19.996 49.3348 20.1805 49.3976C20.1949 49.3976 20.208 49.4053 20.2213 49.4132L20.2213 49.4132C20.2292 49.4178 20.2372 49.4225 20.2457 49.4258C20.9345 49.7182 21.4788 49.5826 21.7589 49.0453C22.0602 48.471 21.884 47.8227 21.1635 47.562C19.837 47.0828 19.4565 46.165 19.6362 44.8755C19.6582 44.713 19.6582 44.5483 19.6362 44.3858C19.5692 43.9207 19.7542 43.616 20.1277 43.3288C21.3091 42.3939 22.185 41.128 22.6433 39.6928C23.0818 38.4239 23.0533 37.1235 23.0249 35.8258V35.8257C23.0191 35.5596 23.0132 35.2936 23.0114 35.028C22.9744 32.4155 21.8928 30.3227 19.8194 28.7584ZM12.8821 26.921C13.0054 25.6879 14.1417 24.7172 15.3361 24.8071C16.7154 24.9198 17.5945 26.0173 17.45 27.5411C16.1128 27.1522 14.6969 27.1206 13.3437 27.4495C12.8103 27.5912 12.8431 27.2835 12.8765 26.9694L12.8821 26.9158V26.921ZM17.3567 47.1603C17.192 47.325 17.0269 47.4887 16.8618 47.6524L16.8617 47.6524C16.4121 48.0983 15.9626 48.5439 15.5245 49.0065C15.2621 49.2866 15.0965 49.2602 14.8657 48.9889C14.635 48.6924 14.3668 48.4271 14.0677 48.1997C12.8028 47.3506 12.5932 46.165 12.9579 44.7698C14.428 45.1865 15.9854 45.1828 17.4535 44.7593C17.5132 45.0628 17.5156 45.3671 17.5179 45.6688C17.5206 46.0167 17.5233 46.3612 17.6138 46.697C17.6629 46.8732 17.5451 46.9808 17.4302 47.0856L17.4302 47.0857C17.4049 47.1087 17.3798 47.1316 17.3567 47.1551V47.1603ZM20.8235 38.1408C20.4501 40.704 18.2181 42.8567 15.4981 42.9536C12.4188 43.2231 9.48394 40.5137 9.4857 37.4186C9.4857 37.1138 9.60373 37.0345 9.86446 36.9606C10.8123 36.6979 11.6997 36.2527 12.4769 35.6499C12.7729 35.4174 12.9737 35.4438 13.2556 35.6834C15.3361 37.445 17.7231 38.169 20.4254 37.6758C20.9174 37.578 20.8843 37.7696 20.8378 38.0383L20.8378 38.0384C20.8323 38.0699 20.8267 38.1023 20.8218 38.1355L20.8235 38.1408ZM20.9045 35.0738C20.8869 35.4813 20.6445 35.5129 20.4214 35.542C20.3773 35.5477 20.334 35.5534 20.2933 35.5618C17.9292 36.0533 15.9156 35.3592 14.1963 33.7103C14.1388 33.6559 14.0864 33.5963 14.0339 33.5368C13.9931 33.4905 13.9523 33.4442 13.9091 33.4003C13.2573 32.7274 12.7306 32.6816 12.033 33.3052C11.2949 33.9658 10.5092 34.5383 9.52093 34.8554C9.61429 31.9787 11.8621 29.4895 15.0683 29.3239C18.1089 29.1636 21.0437 32.0491 20.9045 35.0686V35.0738ZM73.0342 46.4073C75.0847 47.3709 76.0325 48.93 75.999 51.1989C75.9607 53.7991 75.9729 56.4003 75.9852 59.0009C75.9892 59.8678 75.9933 60.7346 75.9955 61.6013C76.0072 61.8578 75.9859 62.1148 75.9321 62.3659C75.8718 62.5818 75.7424 62.7721 75.5638 62.9076C75.3852 63.0432 75.1672 63.1166 74.943 63.1166C74.7187 63.1166 74.5006 63.0432 74.322 62.9076C74.1434 62.7721 74.0141 62.5818 73.9538 62.3659C73.9013 62.114 73.8805 61.8566 73.8921 61.5996V51.1285V50.2072C73.6806 50.4006 73.4722 50.5858 73.2682 50.7671C72.796 51.1866 72.347 51.5857 71.9349 52.0199C71.5544 52.4215 71.4945 52.9782 71.4945 53.5331V61.6172C71.5165 61.8975 71.486 62.1795 71.4047 62.4487C71.3373 62.6514 71.2062 62.8269 71.031 62.9491C70.8558 63.0713 70.6458 63.1336 70.4323 63.1269C70.2064 63.132 69.9854 63.0609 69.8048 62.9251C69.6243 62.7893 69.4947 62.5967 69.437 62.3782C69.4084 62.2888 69.3935 62.1955 69.3929 62.1016C69.3948 61.271 69.3944 60.4403 69.394 59.6095C69.393 57.3479 69.3919 55.086 69.437 52.8249C69.4616 51.7081 70.0782 50.792 70.871 50.0169C71.2025 49.698 71.5273 49.3798 71.8693 49.0448C72.0524 48.8654 72.2404 48.6813 72.437 48.4896L67.1768 45.8595C66.233 45.3876 66.2025 45.412 65.5393 45.9432C65.4697 45.9989 65.3931 46.0603 65.3077 46.1272C63.8984 47.2194 63.5003 48.5424 63.5672 50.304C63.6671 52.9244 63.6467 55.5448 63.6263 58.1652C63.6179 59.2442 63.6095 60.3232 63.6095 61.4023C63.6095 61.4568 63.6105 61.5115 63.6115 61.5664C63.6134 61.6762 63.6154 61.7862 63.6095 61.8955C63.5725 62.6513 63.1603 63.1339 62.542 63.1287C61.9237 63.1234 61.5044 62.6442 61.5044 61.8762C61.4903 57.4251 61.4903 52.9741 61.5044 48.523C61.5061 48.0703 61.411 47.7268 61.0587 47.4202C60.605 47.0138 60.1728 46.584 59.7639 46.1325C59.7315 46.0977 59.6995 46.0628 59.6677 46.0281C59.2519 45.5742 58.873 45.1606 58.1185 45.6516C57.7186 45.9123 57.2536 45.6023 57.014 45.1707C56.755 44.7056 56.7867 44.1736 57.2342 43.9146C58.1422 43.3925 58.1298 42.587 58.1172 41.7706C58.1151 41.6366 58.113 41.5024 58.115 41.3691C58.1122 41.2879 58.0916 41.2084 58.0544 41.1362C58.0173 41.064 57.9645 41.001 57.9001 40.9516C56.3904 39.4982 55.7685 37.6926 55.8619 35.6227L55.8622 35.6136C55.8744 35.2197 55.8842 34.9034 55.3457 34.8299C55.1923 34.7988 55.0537 34.7175 54.9516 34.5989C54.8495 34.4802 54.7899 34.3309 54.782 34.1746C54.775 34.0026 54.7671 33.8303 54.7591 33.658C54.6827 32.0056 54.606 30.3455 55.3845 28.7981C56.6581 26.2543 58.7844 25.0318 61.5907 24.9507C61.6749 24.9482 61.7591 24.9456 61.8435 24.943C62.9522 24.9084 64.0723 24.8734 65.1545 25.1533C68.3307 25.9742 70.2561 28.4282 70.3548 31.7171C70.3653 32.1692 70.3618 32.6221 70.3583 33.0752C70.3565 33.3019 70.3548 33.5286 70.3548 33.7553C70.3548 34.2398 70.1857 34.7225 69.7206 34.8211C69.2025 34.9307 69.2135 35.2156 69.2268 35.5608C69.2276 35.5818 69.2284 35.603 69.2291 35.6244C69.2978 37.6609 68.6671 39.4313 67.2314 40.9093C66.5743 41.584 66.9478 43.365 67.8286 43.8124C68.1745 43.988 68.5198 44.1643 68.8652 44.3406C70.2454 45.045 71.6251 45.7493 73.0342 46.4073ZM60.2413 27.2761C57.8631 27.757 56.6388 29.878 56.8854 32.5768C57.7472 32.2852 58.537 31.8131 59.202 31.1922C60.0475 30.4488 60.2149 30.4382 61.1838 30.9438C63.2256 31.99 65.4587 32.6103 67.7476 32.7671C67.7829 32.77 67.8219 32.7778 67.862 32.7859C68.0376 32.8211 68.2353 32.8608 68.2496 32.5151C68.3183 30.8293 67.9836 29.2861 66.606 28.1675C64.6771 26.5979 62.4046 26.8392 60.2413 27.2761ZM64.1612 44.2896C64.3478 44.1065 64.5344 43.9234 64.7193 43.7385C64.862 43.6063 64.9959 43.4795 64.9184 43.1994C64.8387 43.1517 64.8567 43.0236 64.8755 42.8892C64.9096 42.6463 64.9465 42.3828 64.4146 42.537C63.1808 42.9096 61.8644 42.9096 60.6306 42.537C60.6074 42.5301 60.5811 42.5197 60.5533 42.5088C60.4252 42.4583 60.2661 42.3955 60.2342 42.604C60.2221 42.6823 60.204 42.7609 60.1858 42.8396C60.1094 43.1712 60.0328 43.5037 60.4016 43.8213C60.9244 44.2686 61.4041 44.7733 61.8822 45.2763C61.984 45.3835 62.0858 45.4905 62.1879 45.597C62.4169 45.8366 62.5684 45.9299 62.8468 45.6269C63.2691 45.1649 63.715 44.7273 64.1612 44.2896ZM58.9152 38.9137C59.4569 39.6223 60.1913 40.1597 61.0305 40.4618C64.1433 41.5188 67.1011 39.2604 67.1257 35.8182L67.1258 35.8077C67.131 34.8668 67.1311 34.8488 66.2185 34.7119C64.633 34.4723 63.0617 34.1623 61.6383 33.4576C60.7709 33.0274 60.2254 33.2653 59.4342 33.6104C59.4059 33.6227 59.3772 33.6353 59.3481 33.6479C57.9283 34.2644 57.8684 35.2333 57.9758 36.4665C58.0473 37.3555 58.3735 38.2051 58.9152 38.9137Z" fill="#245F12"/>
<path opacity="0.4" d="M12.4999 34L8.5 37C8.5 31.5 13 24 15 24C17.5 24 21.4999 33 21.4999 36.5C17.0999 37.3 13.6666 35.1667 12.4999 34Z" fill="#245F12"/>
<path opacity="0.4" d="M59.4999 32L55.9998 34C55 29 57.4999 26 61.4999 26C65.4999 26 70.4999 27.5 68.4999 34.5C64.0999 35.3 60.6666 33.1667 59.4999 32Z" fill="#245F12"/>
<path opacity="0.4" d="M37.2001 25.0009L32.0001 29.5009C29.5 24 33.4937 18.4254 39.0001 18.0019C45.5001 17.5019 50.5001 24 48.0001 28.0009C42.7201 28.9609 38.6001 26.4009 37.2001 25.0009Z" fill="#245F12"/>
</svg>
