<svg width="24" height="24" viewBox="0 0 24 24" fill="none" xmlns="http://www.w3.org/2000/svg">
<path fill-rule="evenodd" clip-rule="evenodd" d="M22.445 7.0294C22.9155 8.25514 23.1412 9.35455 23.1907 10.695C23.1986 10.9597 23.1949 11.4449 23.1778 11.7735C23.142 12.4034 23.1079 12.5286 22.9265 12.6953C22.635 12.9688 22.0668 12.9036 21.8513 12.574C21.7388 12.3972 21.723 12.2677 21.7448 11.5316C21.8072 9.35438 21.3669 7.64973 20.3062 5.94516C19.0386 3.90009 17.1426 2.52248 14.6771 1.84848C14.0484 1.67697 13.5185 1.57241 12.6944 1.46141C12.1576 1.39119 12.0401 1.3615 11.9075 1.27994C11.5073 1.0236 11.502 0.37448 11.901 0.114243C12.1069 -0.0231257 12.2587 -0.0292667 12.9298 0.0566795C14.8976 0.302586 16.6536 0.887319 18.0964 1.77092C19.1306 2.40512 19.7827 2.97481 20.6222 3.97267C21.5102 5.03685 21.9804 5.82364 22.445 7.0294ZM23.4328 19.2762C23.3865 19.1407 23.2784 18.9318 23.2011 18.8119C22.7143 18.0768 20.099 16.0301 18.7932 15.3607C18.0476 14.9777 17.4952 14.8501 17.0857 14.9699C16.6453 15.0938 16.4135 15.2988 15.6757 16.2158C15.3782 16.5834 15.073 16.9277 14.9919 16.9819C14.791 17.1212 14.3969 17.2334 14.1188 17.2334C13.4737 17.2295 12.3031 16.8116 11.403 16.2622C10.7038 15.8366 9.80754 15.0744 9.11984 14.3199C8.30858 13.434 7.75618 12.6524 7.3196 11.7703C6.75562 10.6367 6.61265 9.94409 6.84827 9.43721C6.90626 9.30957 6.98358 9.17418 7.01824 9.13161C7.05307 9.09295 7.41625 8.79502 7.81792 8.47001C8.6061 7.84323 8.73358 7.7001 8.8803 7.27061C9.06577 6.72507 9.01561 6.16794 8.72966 5.60698C8.50946 5.18133 7.9339 4.25279 7.51665 3.65309C6.96425 2.86385 5.58893 1.17698 5.31457 0.948612C4.82016 0.546285 4.18662 0.476634 3.48733 0.747489C2.74956 1.03376 1.36649 2.14809 0.775396 2.92575C0.242281 3.62993 0.0375938 4.12898 0.00665867 4.78667C-0.0203616 5.32838 0.0259801 5.55275 0.311859 6.24534C2.5486 11.6774 5.88637 16.0146 10.472 19.458C12.8671 21.2571 15.3511 22.6268 17.9279 23.5631C19.4306 24.1086 20.0835 24.1357 20.8523 23.6869C21.1768 23.4934 21.9803 22.6693 22.4285 22.0696C23.1701 21.0714 23.4445 20.611 23.5217 20.2435C23.5758 19.9919 23.5333 19.5548 23.4328 19.2762ZM17.6857 4.53354C19.3444 5.87485 20.2712 7.78127 20.409 10.1509C20.467 11.0841 20.39 11.3881 20.0607 11.5613C19.7636 11.7217 19.4269 11.6689 19.196 11.4273C19.043 11.2703 18.9842 11.0554 18.9865 10.675C18.9932 9.62303 18.7509 8.44834 18.3568 7.63324C17.9008 6.68456 17.1958 5.87721 16.309 5.28689C15.5323 4.76851 14.5042 4.41829 13.5075 4.33111C12.8609 4.27451 12.6301 4.16506 12.506 3.85513C12.4291 3.66967 12.4494 3.34914 12.5396 3.2056C12.6248 3.07323 12.816 2.92684 12.9512 2.8881C13.0945 2.84634 13.9296 2.91941 14.3832 3.00954C15.6214 3.26155 16.7511 3.77985 17.6857 4.53354ZM16.9215 7.36017C17.3437 7.89813 17.5814 8.50541 17.6766 9.27883C17.6974 9.43983 17.7061 9.73972 17.7001 9.94117C17.691 10.2665 17.6779 10.3275 17.592 10.4676C17.3578 10.8395 16.8057 10.8998 16.4955 10.5892C16.3282 10.4192 16.2868 10.2719 16.2705 9.79273C16.2357 8.77211 15.9108 8.14175 15.2131 7.73885C14.8844 7.55094 14.5231 7.42607 14.0002 7.32983C13.6076 7.25276 13.4664 7.18221 13.344 6.98508C13.17 6.71341 13.2144 6.29404 13.4422 6.08484C13.6866 5.86154 13.9596 5.8427 14.6356 6.00671C15.6728 6.25277 16.3733 6.6675 16.9215 7.36017Z" fill="#599E43"/>
</svg>
