<svg width="24" height="24" viewBox="0 0 24 24" fill="none" xmlns="http://www.w3.org/2000/svg">
<path fill-rule="evenodd" clip-rule="evenodd" d="M8.72781 6.70273L7.22017 4.64687C6.96106 4.29352 6.47139 4.20347 6.10352 4.44151C3.98907 5.80968 3.25549 8.02495 4.21386 9.76553C5.10106 11.3769 6.46384 13.3427 8.54585 15.4247C10.6279 17.5067 12.5937 18.8695 14.205 19.7567C15.9456 20.7151 18.1608 19.9815 19.529 17.867C19.7671 17.4992 19.677 17.0095 19.3237 16.7504L17.2678 15.2427C16.8143 14.9102 16.2129 14.8592 15.7099 15.1107L14.8905 15.5204C14.3084 15.8115 13.5233 15.908 12.786 15.5287C12.2251 15.2401 11.3358 14.679 10.3136 13.6569C9.29151 12.6348 8.73046 11.7455 8.44188 11.1846C8.06258 10.4473 8.1591 9.66209 8.45011 9.08005L8.85984 8.2606C9.11133 7.75761 9.06036 7.15621 8.72781 6.70273ZM5.28864 3.18215C2.74813 4.82601 1.44037 7.83829 2.89987 10.4891C3.8524 12.219 5.29923 14.2994 7.48519 16.4854C9.67115 18.6713 11.7515 20.1181 13.4815 21.0707C16.1322 22.5302 19.1445 21.2224 20.7884 18.6819C21.458 17.6471 21.2047 16.2697 20.2107 15.5408L18.1548 14.0331C17.2479 13.368 16.0451 13.2661 15.0391 13.7691L14.2197 14.1788C13.9824 14.2974 13.708 14.3162 13.4722 14.1948C13.0425 13.9738 12.2811 13.5031 11.3743 12.5963C10.4675 11.6895 9.99677 10.928 9.77572 10.4984C9.65439 10.2625 9.67315 9.98809 9.79175 9.75087L10.2015 8.93142C10.7045 7.92545 10.6025 6.72265 9.93742 5.81568L8.42978 3.75982C7.70089 2.76587 6.32347 2.51256 5.28864 3.18215Z" fill="white"/>
</svg>
