<svg width="80" height="80" viewBox="0 0 80 80" fill="none" xmlns="http://www.w3.org/2000/svg">
<circle opacity="0.4" cx="23.5" cy="31.5" r="10.5" fill="#245F12"/>
<path fill-rule="evenodd" clip-rule="evenodd" d="M21.7584 8.13142C20.8206 8.44404 20.2578 8.83169 18.1945 10.5324C17.0566 11.4702 15.9187 12.3581 15.6561 12.4956C15.2809 12.6832 14.4681 12.8082 12.1797 13.0458C8.91595 13.3709 8.24069 13.546 7.26531 14.2963C6.95269 14.5339 6.50252 14.9841 6.26493 15.2967C5.51464 16.2846 5.33957 16.9723 5.00194 20.2236C4.77685 22.4995 4.6518 23.3123 4.46423 23.6874C4.32667 23.95 3.43883 25.088 2.50097 26.2259C1.42555 27.5139 0.637747 28.6018 0.38765 29.102C0.0250097 29.8648 0 29.9899 0 31.3529C0.0125048 33.2662 0.150058 33.5663 2.50097 36.4174C3.51386 37.6553 4.43922 38.8683 4.53926 39.1059C4.6393 39.3435 4.85188 40.8566 5.01444 42.4822C5.37708 46.1211 5.57716 46.7339 6.82764 47.9593C7.79052 48.9097 8.64085 49.2223 10.8042 49.4599L12.6799 49.6725L9.25358 57.8632C7.2403 62.6525 5.81475 66.2164 5.81475 66.454C5.81475 66.9792 6.32745 67.5919 6.85265 67.6795C7.12776 67.7295 8.19067 67.4794 10.3165 66.8792C11.9921 66.3915 13.3802 66.0163 13.3927 66.0288C13.3986 66.0347 13.5489 66.31 13.7912 66.7538L13.7916 66.7545L13.7918 66.7548C14.0637 67.2528 14.4513 67.9627 14.8808 68.7424C15.6811 70.218 16.4814 71.556 16.6439 71.7185C16.8565 71.9061 17.1191 71.9936 17.4568 71.9936C18.1195 71.9936 18.3946 71.8311 18.6822 71.2684C18.8073 71.0183 20.4704 67.0667 22.3837 62.49C24.9847 56.225 25.9225 54.1117 26.1601 53.9241C26.249 53.8543 26.5701 53.591 27.0152 53.2259L27.0163 53.225C27.4477 52.8713 27.9953 52.4221 28.5611 51.9609C29.9241 50.8355 30.8244 50.1727 31.1996 50.0476C31.5122 49.9476 31.7748 49.8976 31.7998 49.9476C31.8072 49.9844 32.3118 51.1888 33.0799 53.0216L33.0801 53.0223C33.6181 54.306 34.2852 55.898 35.001 57.6131C36.7517 61.7772 38.1523 65.2035 38.1398 65.216C38.1148 65.241 37.0644 64.9659 35.8139 64.6158C33.3129 63.903 32.6626 63.853 31.9874 64.3407C31.7623 64.5032 31.2121 65.3536 30.4618 66.7291C29.824 67.9046 29.2613 68.8924 29.2113 68.9175C29.1738 68.955 28.461 67.3794 27.6482 65.4286C26.8354 63.4778 26.0976 61.7772 25.9976 61.6396C25.4849 60.9019 24.1969 61.3895 24.1969 62.3024C24.1969 62.665 27.9358 71.4059 28.2109 71.6935C28.5611 72.0687 29.4864 72.1062 29.8991 71.7686C30.0491 71.656 30.8494 70.3055 31.6873 68.7674C33.0878 66.2289 33.2504 65.9913 33.488 66.0664C34.4508 66.379 39.3903 67.742 39.5403 67.742C40.2656 67.742 40.9283 66.8166 40.7283 66.0789C40.6657 65.8538 39.1026 62.0898 37.2644 57.7006C35.4262 53.3114 33.9381 49.6975 33.9632 49.685C33.9882 49.66 34.7009 49.5725 35.5513 49.4849C37.3645 49.3224 38.1523 49.0973 39.0151 48.5471C40.078 47.8593 40.7908 46.9089 41.1284 45.721C41.2285 45.3458 41.441 43.8578 41.5786 42.4197C41.7161 40.9691 41.9162 39.5436 42.0163 39.231C42.1538 38.8433 42.7791 37.9805 43.967 36.5424C44.9424 35.3795 45.8678 34.1915 46.0303 33.9164C46.5055 33.1036 46.7431 31.9281 46.6681 30.8652C46.568 29.5022 46.0428 28.5643 44.0796 26.2259C43.1917 25.163 42.3164 24.0001 42.1538 23.6624C41.8912 23.1372 41.8037 22.6245 41.5786 20.2861C41.441 18.773 41.241 17.2475 41.1409 16.9098C40.7158 15.4092 39.4153 14.0587 37.8897 13.546C37.552 13.421 35.9889 13.2084 34.4008 13.0458C32.8127 12.8833 31.3121 12.6707 31.0745 12.5706C30.8369 12.4706 29.624 11.5452 28.386 10.5324C25.6349 8.26897 25.2223 8.05639 23.5091 8.00637C22.7213 7.98136 22.071 8.03138 21.7584 8.13142ZM24.5095 10.2072C24.7846 10.3323 25.9726 11.2201 27.1355 12.1705C28.311 13.1334 29.3989 13.9962 29.5739 14.1087C30.3492 14.5839 31.0745 14.7465 33.9882 15.0341C37.3144 15.3717 37.7271 15.4968 38.4899 16.3346C39.1402 17.0599 39.3027 17.6601 39.5778 20.5987C39.8529 23.4123 39.953 23.9876 40.3406 24.7504C40.4657 25.0005 41.416 26.2384 42.4539 27.5014C44.5172 30.0024 44.8174 30.5776 44.6548 31.6905C44.5422 32.5159 44.2421 32.991 42.3914 35.2294C40.7408 37.2302 40.2656 37.9305 39.978 38.8558C39.8904 39.0934 39.7154 40.5065 39.5778 41.982C39.4403 43.4576 39.2652 44.8706 39.2027 45.1207C38.9651 45.9961 37.9647 46.9965 37.0769 47.2341C36.8393 47.2966 35.4262 47.4717 33.9506 47.6092C32.4751 47.7468 31.062 47.9343 30.8244 48.0094C29.9116 48.297 29.1988 48.7597 27.198 50.4228C24.9597 52.2735 24.4845 52.5736 23.6592 52.6862C22.5462 52.8487 21.971 52.5486 19.47 50.4853C18.207 49.4474 16.9691 48.497 16.719 48.372C15.9562 47.9843 15.381 47.8843 12.5674 47.6092C9.62873 47.3341 9.0285 47.1715 8.30322 46.5213C7.46539 45.7585 7.34034 45.3458 7.01522 42.0195C6.7151 39.1184 6.56504 38.3931 6.07735 37.6053C5.97731 37.4303 5.12699 36.3674 4.18912 35.2294C2.26338 32.891 1.93825 32.3283 1.93825 31.4404C1.93825 30.4401 2.16334 29.9274 3.17623 28.6769C3.70143 28.0391 4.58928 26.9512 5.13949 26.2509C6.55254 24.5253 6.65258 24.2252 7.01522 20.5612C7.27782 17.8477 7.34034 17.5226 7.65296 16.9473C8.0031 16.3096 8.41576 15.9219 9.16605 15.5468C9.44116 15.4092 10.5291 15.2467 12.5424 15.0466C16.1938 14.684 16.4939 14.5839 18.2196 13.1709C18.3506 13.0646 18.4773 12.962 18.5997 12.8627C21.402 10.5911 21.9804 10.1221 22.6186 10.0176C22.7846 9.9904 22.9547 9.98787 23.169 9.98469C23.2174 9.98397 23.2681 9.98322 23.3215 9.98214C23.7342 9.98214 24.2094 10.0697 24.5095 10.2072ZM15.8811 50.2977C16.1563 50.4603 17.2817 51.3356 18.3821 52.2485C20.558 54.0367 21.4458 54.5619 22.6088 54.6869C23.1965 54.7495 23.334 54.812 23.284 54.9746C23.1965 55.2997 17.5443 68.7924 17.4443 68.9049C17.4067 68.955 16.894 68.1297 16.3313 67.0917C15.1184 64.8784 14.8182 64.4407 14.318 64.1781C13.7303 63.878 13.1051 63.953 10.7542 64.6158C9.52869 64.9659 8.50329 65.2285 8.47828 65.2035C8.45327 65.166 9.8163 61.8397 11.517 57.7881C12.174 56.2111 12.7932 54.727 13.3082 53.4927L13.3095 53.4896L13.3103 53.4875C14.1172 51.5536 14.6675 50.2344 14.7057 50.1352C14.8307 49.7976 15.0683 49.8351 15.8811 50.2977ZM21.2458 16.5965C20.7206 16.7591 20.5455 16.9967 20.5455 17.5594C20.5455 17.9095 20.6331 18.0971 20.8707 18.2972C21.1708 18.5598 21.2708 18.5723 22.6088 18.5098C26.3353 18.3222 29.7991 19.6602 32.4001 22.2862C37.4146 27.3632 37.3895 35.3163 32.3376 40.3682C28.3861 44.3198 22.5463 45.3076 17.6444 42.8317C11.1919 39.5929 8.61591 31.965 11.8171 25.6C13.0301 23.1991 15.0684 21.1108 17.3068 19.9728C17.7444 19.7478 18.2071 19.4601 18.3322 19.3351C18.6448 19.0225 18.6448 18.2097 18.3572 17.9345C17.907 17.5344 17.5569 17.5594 16.5065 18.0721C12.4424 20.0729 9.45373 24.1244 8.62841 28.7637C8.31579 30.5144 8.41583 33.3155 8.8535 34.9786C10.3416 40.6684 14.9559 44.9575 20.6956 45.9954C22.0461 46.2455 24.8972 46.208 26.1852 45.9454C32.1375 44.6824 36.5767 40.2682 37.9023 34.2784C38.2024 32.9404 38.2024 29.6766 37.9023 28.3761C36.6143 22.6364 32.5377 18.3472 26.9855 16.8841C25.9601 16.6215 25.4099 16.559 23.6967 16.5215C22.5588 16.4965 21.4584 16.534 21.2458 16.5965ZM23.7967 28.4512C27.5231 24.7498 27.7232 24.5873 28.6986 24.4497C28.8737 24.4247 29.2363 24.4247 29.5114 24.4497C31.5622 24.6748 32.7252 27.0882 31.6497 28.8889C31.4872 29.1765 29.2113 31.5399 26.6103 34.1284C21.4958 39.2304 21.3458 39.343 20.0703 39.3555C18.8698 39.3555 18.3946 39.0303 15.8061 36.4043C14.5181 35.1038 13.3677 33.8408 13.2426 33.6032C12.905 32.9655 12.93 31.5775 13.2801 30.9022C13.8178 29.8893 14.7432 29.3516 15.9061 29.3516C16.9566 29.3641 17.5568 29.6892 18.9073 31.0022L20.0703 32.1527L23.7967 28.4512ZM30.0741 27.3758C30.0741 27.2133 29.9366 26.9507 29.7615 26.7881C29.1113 26.1253 29.0988 26.1253 24.7596 30.477C20.658 34.5911 20.3829 34.8162 19.6951 34.5786C19.52 34.5161 18.6697 33.7658 17.8194 32.9155C16.719 31.8025 16.1813 31.3524 15.9687 31.3524C15.2434 31.3524 14.7807 32.0651 15.1058 32.6779C15.2184 32.878 16.2813 34.0159 17.4818 35.1914C19.295 36.9921 19.7201 37.3547 20.0202 37.3547C20.3329 37.3547 21.0832 36.6544 25.2348 32.5028C28.7486 28.9764 30.0741 27.5759 30.0741 27.3758Z" fill="#245F12"/>
</svg>
