<svg width="70" height="64" viewBox="0 0 70 64" fill="none" xmlns="http://www.w3.org/2000/svg">
<path d="M69.4781 9.35282C59.769 13.2721 54.8699 22.1795 54.7808 36.0752H67.3403V64H41.5532V42.0877C41.5532 35.7634 41.9095 30.2853 42.6221 25.6534C43.4238 20.9325 45.428 16.2561 48.6347 11.6242C51.8413 6.90327 56.785 3.02853 63.4656 0L69.4781 9.35282ZM27.9248 9.35282C18.2157 13.2721 13.2721 22.1795 13.0939 36.0752H25.7871V64H0V42.0877C0 35.7634 0.356298 30.2853 1.06889 25.6534C1.87056 20.9325 3.8302 16.2561 6.94781 11.6242C10.1545 6.90327 15.1427 3.02853 21.9123 0L27.9248 9.35282Z" fill="#245F12"/>
</svg>
