<svg width="80" height="80" viewBox="0 0 80 80" fill="none" xmlns="http://www.w3.org/2000/svg">
<path fill-rule="evenodd" clip-rule="evenodd" d="M30.1138 15.5528C30.8813 13.8748 31.6878 12.1577 31.896 11.7415C32.2602 11.013 32.2732 11 32.8195 11C33.1317 11 33.4699 11.078 33.587 11.1561C33.7041 11.2472 34.5236 13.0163 35.3951 15.0976C36.2667 17.1659 37.0212 18.8959 37.0862 18.948C37.1512 18.987 39.0764 19.2341 41.3659 19.5203L45.5285 20.0146L45.7496 20.7171C45.9577 21.3935 45.9577 21.4195 45.7106 21.6537C45.613 21.7512 44.7838 22.4707 43.7058 23.4061L43.6996 23.4114L43.6938 23.4164C43.3378 23.7253 42.955 24.0575 42.5626 24.3984C40.9626 25.7772 39.6228 26.987 39.5838 27.0911C39.5447 27.1821 39.8829 29.1073 40.3122 31.3707C40.7545 33.6341 41.1057 35.4943 41.0797 35.5073C41.0537 35.5203 40.8195 35.6894 40.5594 35.8846C40.2992 36.0797 40.026 36.2358 39.948 36.2358C39.8699 36.2358 38.2439 35.2862 36.3317 34.1415C34.4065 32.9837 32.7675 32.0081 32.6895 31.9821C32.5984 31.9431 30.8553 32.8407 28.813 33.9594C26.7838 35.0781 25.0667 35.9756 25.0147 35.9496C24.5984 35.7675 23.935 35.2211 23.935 35.065C23.935 34.961 24.3642 33.0488 24.8846 30.8244L25.8342 26.7919L23.2586 24.3854C21.8407 23.0715 20.4358 21.7447 20.1366 21.4455L19.6033 20.8992L19.7724 20.3008C19.8634 19.9756 19.9935 19.6764 20.0586 19.6374C20.1236 19.5854 22.0618 19.3902 24.3382 19.1951C26.6277 19 28.5529 18.7919 28.6049 18.7268C28.6569 18.6618 29.3334 17.2309 30.1138 15.5528ZM35.5122 20.9642L34.1984 17.8683C33.4699 16.1642 32.8716 14.7724 32.8586 14.7724C32.8586 14.7782 32.7281 15.0554 32.5139 15.5104L32.5137 15.5109C32.2497 16.0719 31.8585 16.903 31.4277 17.8293C30.6212 19.5724 29.9447 20.8862 29.8407 20.8862C29.5935 20.8862 23.6488 21.4065 23.4667 21.4455C23.3756 21.4585 24.4163 22.4992 25.7691 23.748C27.122 24.9967 28.2277 26.0504 28.2277 26.0764C28.2277 26.1154 27.9025 27.5463 27.4992 29.2504C27.109 30.9545 26.7968 32.3984 26.8228 32.4634C26.8488 32.5155 27.7724 32.0472 28.8781 31.4358C29.9838 30.8114 31.2846 30.0959 31.7659 29.8358L32.6374 29.3545L35.4472 31.0455C36.9951 31.9821 38.283 32.7236 38.322 32.6976C38.348 32.6585 38.1138 31.2797 37.7886 29.6146C37.4634 27.9496 37.2033 26.4927 37.2033 26.3626C37.2033 26.2195 38.1529 25.3089 39.6748 23.9951C41.535 22.3821 42.0813 21.8488 41.9122 21.7837C41.7951 21.7447 40.2992 21.5366 38.6082 21.3285L35.5122 20.9642ZM14.3872 21.5496C15.1286 19.9496 15.779 18.4927 15.8181 18.3236C15.8961 18.0504 15.9741 18.0244 16.7156 18.0244H17.5221L18.927 21.3285L19.1337 21.8178L19.1337 21.8179C20.0328 23.9477 20.2889 24.5543 20.7181 24.7247C20.889 24.7925 21.0874 24.7912 21.3647 24.7893H21.3649C21.4127 24.789 21.4629 24.7887 21.5156 24.7887C22.205 24.7887 22.2701 24.9057 22.166 25.9464C22.127 26.4537 22.0359 26.909 21.9709 26.935C21.9189 26.974 21.2034 26.935 20.3709 26.8439L18.862 26.6878L18.2376 25.2439C17.8863 24.4635 17.405 23.3317 17.1709 22.7464C16.9237 22.148 16.7286 21.6797 16.7156 21.7057C16.7026 21.7187 16.2343 22.7204 15.675 23.9431C15.1156 25.1529 14.5693 26.2456 14.4522 26.3626C14.2961 26.5317 13.6717 26.6228 11.7075 26.7919L11.1818 26.8409C10.0356 26.9476 9.15621 27.0294 9.14488 27.0521C9.11886 27.0651 9.95138 27.8586 10.992 28.8212C12.527 30.2261 12.8782 30.6163 12.8782 30.9025C12.8782 31.0976 12.6441 32.2683 12.3579 33.5041C12.0717 34.7399 11.8636 35.7805 11.8896 35.8065C11.9546 35.8716 15.1546 34.1545 15.766 33.7383C16.1302 33.4911 16.9758 33.413 17.1059 33.6342C17.2489 33.8683 21.0733 36.0927 21.0733 35.9366C21.0733 35.8456 20.8652 34.7269 20.6181 33.4391C20.3709 32.1513 20.1628 31.0326 20.1628 30.9415C20.1628 30.7854 22.3481 28.8212 22.5172 28.8212C22.5693 28.8212 22.9205 29.1854 23.2977 29.6147C23.8831 30.2911 23.9611 30.4342 23.792 30.5643C23.6931 30.6302 23.4361 30.8449 23.1704 31.0669L23.0246 31.1887L22.4652 31.67L23.1546 35.1952C23.5319 37.1334 23.8181 38.7334 23.792 38.7594C23.766 38.7724 23.5059 38.9675 23.2067 39.2017L22.6733 39.6049L19.6294 37.7708C17.9514 36.7691 16.5335 35.9366 16.4554 35.9366C16.3904 35.9366 14.9335 36.7171 13.2424 37.6537L10.1595 39.3708L9.56114 38.9415C9.06683 38.5903 8.98878 38.4602 9.04081 38.187C9.07984 38.0049 9.44407 36.4179 9.86033 34.6488L10.6148 31.4488L8.39041 29.3805C7.18065 28.2488 5.9839 27.1822 5.74976 27L5.3335 26.6748L5.55463 25.9204C5.71073 25.361 5.82781 25.1659 6.03594 25.1269C6.19203 25.0878 7.59691 24.9708 9.17089 24.8537C10.7449 24.7236 12.2538 24.5935 12.527 24.5415L13.0213 24.4635L14.3872 21.5496ZM48.2342 18.3099C48.1431 18.479 47.4537 19.9229 46.6992 21.536L45.3203 24.4628L44.5789 24.5799L44.538 24.5862C44.2154 24.6365 44.0269 24.6658 43.928 24.7758C43.7891 24.9304 43.8273 25.2442 43.9192 25.9991V25.9992L43.9285 26.0758L44.0065 26.7782L45.2553 26.6742C46.0618 26.6221 46.5821 26.5181 46.7122 26.401C46.8293 26.2969 47.3886 25.2173 47.948 23.9945C48.5073 22.7847 49.0016 21.8351 49.0537 21.8872C49.2878 22.1213 50.8618 26.0368 50.8618 26.375C50.8618 26.7262 50.8878 26.7392 51.4862 26.7392C51.9935 26.7392 56.0651 27.2075 56.3512 27.2986C56.4033 27.3116 55.5577 28.079 54.4911 29.0026C52.6699 30.5896 52.5529 30.7067 52.5529 31.149C52.5529 31.5132 53.1122 34.6872 53.3854 35.8839C53.4114 36.001 53.3984 36.0791 53.3594 36.066C52.8521 35.7929 49.574 33.8156 49.4179 33.6725C49.1708 33.4644 48.3643 33.4514 48.1691 33.6465C48.026 33.7896 44.1886 35.962 44.1366 35.923C44.1236 35.9099 44.3447 34.9083 44.6179 33.6986C44.9041 32.4758 45.1382 31.279 45.1382 31.0319C45.1382 30.5506 45.0472 30.4465 43.083 28.6254L42.5366 28.1181L41.8212 28.8205C41.4309 29.2108 41.1057 29.588 41.1057 29.653C41.1057 29.7181 41.509 30.1603 42.0163 30.6286L42.9268 31.4872L42.1594 34.7392C41.7301 36.5213 41.3529 38.0823 41.3008 38.1994C41.2488 38.3425 41.4049 38.5506 41.8212 38.8888L42.4195 39.3831L45.5935 37.627L48.7675 35.8839L51.8634 37.7311L54.9594 39.5912L55.5057 39.188C55.8179 38.9669 56.0651 38.7067 56.0651 38.5896C56.0651 38.4856 55.7659 36.8725 55.4147 35.0254L54.7512 31.6563L55.0504 31.4221C55.2195 31.2921 56.3773 30.2904 57.626 29.1847L59.9025 27.1815V26.5051C59.8895 26.1408 59.8244 25.7636 59.7334 25.6725C59.6423 25.5815 58.0943 25.3343 56.1171 25.0872C54.2049 24.866 52.6439 24.6579 52.6309 24.6319C52.6049 24.6059 52.2016 23.6563 51.7203 22.5116C51.239 21.3669 50.6016 19.8839 50.3155 19.2205L49.7951 18.0238H49.0927C48.5073 18.0238 48.3773 18.0758 48.2342 18.3099ZM0 44.2997V43.194V42.0883H5.30732C10.5496 42.0883 10.6146 42.0883 11.187 42.3745C11.6163 42.5956 11.8504 42.8297 12.0715 43.259L12.3577 43.8444L12.3317 55.1094L12.2927 66.3745L11.9154 66.8558L11.9112 66.8614C11.7883 67.0236 11.6888 67.155 11.5673 67.2614C11.0504 67.7143 10.1367 67.7143 5.33333 67.7143H0V66.6736V65.633H5.07317H10.1463V54.9663V44.2997H5.07317H0ZM14.439 45.7189V46.7465L17.7951 46.8115C19.8503 46.8506 21.3333 46.9286 21.6585 47.0327C21.9447 47.1237 23.9219 47.9693 26.0552 48.9319C28.1756 49.8945 30.1658 50.727 30.478 50.805C30.7772 50.8701 33.0406 50.9351 35.4861 50.9351C39.3365 50.9351 40.026 50.9611 40.4032 51.1432C41.7691 51.7937 41.7951 53.7579 40.4552 54.4603C40.039 54.6945 39.6097 54.7075 34.5105 54.7075H29.0081V55.8262V56.9319L34.7707 56.8928L40.5203 56.8538L41.4308 56.4376C44.1105 55.2408 55.9609 50.2847 56.4943 50.1416C57.8991 49.7904 59.7333 50.4018 60.7479 51.5465C61.1251 51.9888 61.2292 52.1839 61.1121 52.2359C61.0211 52.288 55.3365 55.3058 48.4682 58.9351C41.613 62.5774 35.6162 65.6863 35.1349 65.8684C33.9902 66.2847 32.143 66.3888 30.9593 66.1156C30.491 65.9985 27.3821 65.0229 24.039 63.9563L17.9512 61.992H16.1951H14.439V63.0327V64.0733H15.8959H17.3398L23.5967 66.0896C27.0438 67.1953 30.1528 68.1579 30.504 68.2489C30.8682 68.327 31.8308 68.392 32.6503 68.392C34.4715 68.392 35.7333 68.0928 37.3333 67.2863C38.8292 66.5189 63.3365 53.5498 63.7008 53.3286L63.9999 53.1465L63.6878 52.314C62.8812 50.1676 61.2943 48.6977 59.1739 48.1384C58.1463 47.8522 56.3512 47.8912 55.4406 48.1904C55.0373 48.3335 52.2146 49.5042 49.1707 50.792L43.6422 53.1205L43.5642 52.392C43.5251 51.9888 43.3951 51.4294 43.278 51.1693C42.9658 50.4408 41.9642 49.4392 41.1967 49.101C40.5349 48.7895 40.4427 48.7888 35.7418 48.75L35.7073 48.7497L30.8943 48.7107L26.8487 46.8896C24.2861 45.7449 22.465 45.0034 21.9056 44.8863C21.2552 44.7432 20.0975 44.6912 17.73 44.6912H14.439V45.7189ZM4.73487 62.1998C4.82593 61.7055 5.34625 61.1201 5.76251 61.0421C6.12674 60.964 6.75113 61.0681 7.05032 61.2632C7.3365 61.4323 7.67471 62.1218 7.67471 62.538C7.67471 62.9803 7.20642 63.6697 6.79016 63.8258C6.33487 64.0079 5.51536 63.8909 5.20316 63.6177C4.83894 63.2925 4.64382 62.6941 4.73487 62.1998Z" fill="#245F12"/>
<path opacity="0.4" d="M49 19L51.9871 25.8886L59.4616 26.6008L53.8332 31.5704L55.4656 38.8992L49 35.082L42.5343 38.8992L44.1667 31.5704L41.5 29V28L44 25.8886H46.0128L49 19Z" fill="#245F12"/>
<path opacity="0.4" d="M33 14L35.9871 20.8886L43.4616 21.6008L37.8333 26.5704L39.4656 33.8992L33 30.082L26.5344 33.8992L28.1667 26.5704L22.5384 21.6008L30.0129 20.8886L33 14Z" fill="#245F12"/>
<path opacity="0.4" d="M16 19L18.9871 25.8886L22 26L23.5 27.5L23 29.5L20.8332 31.5704L22.4656 38.8992L16 35.082L9.53431 38.8992L11.1667 31.5704L5.53833 26.6008L13.0128 25.8886L16 19Z" fill="#245F12"/>
</svg>
