<svg width="80" height="80" viewBox="0 0 80 80" fill="none" xmlns="http://www.w3.org/2000/svg">
<path fill-rule="evenodd" clip-rule="evenodd" d="M48.5332 24.2054L48.5332 24.2054L48.3004 24.174C47.5006 24.0676 47.294 23.9095 47.1109 23.1504C47.0722 22.9394 47.0585 22.7245 47.0702 22.5102C47.0702 21.3254 47.0684 20.1407 47.0667 18.956C47.0632 16.5869 47.0597 14.218 47.0702 11.8484C47.0702 10.9657 46.7759 10.3412 45.9464 10H5.64219C4.77979 10.349 4.5012 11.0095 4.51842 11.9079C4.54162 13.2172 4.53675 14.5265 4.53188 15.8358C4.52985 16.3812 4.52782 16.9266 4.52782 17.472V22.745C4.52782 23.6653 4.15059 24.0613 3.24437 24.1818C2.90629 24.2272 2.56901 24.2781 2.23172 24.329C1.89443 24.3798 1.55714 24.4307 1.21907 24.4761C0.641529 24.5543 0.223646 24.8408 0.0577403 25.4042C-0.108166 25.9677 0.0952932 26.4294 0.516319 26.8254C0.735947 27.032 0.950411 27.2442 1.16488 27.4565C1.49145 27.7797 1.81803 28.1029 2.16286 28.4062C2.47589 28.6801 2.52599 28.9602 2.4493 29.3453C2.31809 29.9856 2.20887 30.6302 2.09952 31.2756L2.09943 31.2762C2.07837 31.4005 2.0573 31.5248 2.03607 31.6492C1.94373 32.1923 2.08459 32.6587 2.54162 32.9952C2.99864 33.3317 3.44629 33.3082 3.92522 33.0891C4.03683 33.0374 4.14911 32.9869 4.28506 32.9259L4.28611 32.9254L4.28713 32.9249L4.28746 32.9248L4.28761 32.9247L4.28776 32.9247C4.3608 32.8919 4.44068 32.856 4.53095 32.8152V68.0311C4.53095 69.5305 5.00049 70.0001 6.48113 70.0001H45.0856C46.585 70.0001 47.0592 69.5305 47.0608 68.0561V53.1184C47.0693 52.9036 47.0557 52.6886 47.0201 52.4766C46.9778 52.2873 46.8725 52.1179 46.7215 51.9961C46.5705 51.8743 46.3827 51.8073 46.1887 51.806C45.9947 51.8048 45.8059 51.8693 45.6534 51.9891C45.5008 52.1089 45.3933 52.2769 45.3485 52.4657C45.3095 52.6962 45.2949 52.9302 45.3047 53.1637V67.4583V68.2111H6.28705V32.6227V32.2126C6.26827 31.7587 6.44354 31.6429 6.85205 31.862C7.156 32.0255 7.46258 32.1843 7.76915 32.3431L7.76922 32.3431C8.17299 32.5522 8.57673 32.7614 8.9744 32.9811C9.49247 33.2675 10.0043 33.3552 10.5192 33.0155C11.067 32.6524 11.1453 32.1109 11.0341 31.5114C11.0145 31.4012 10.9947 31.2908 10.9749 31.1802L10.9748 31.18C10.8538 30.5056 10.7318 29.8253 10.6444 29.1449C10.6262 28.929 10.693 28.7144 10.8307 28.547C11.3801 27.9648 11.9607 27.4123 12.5414 26.8598C12.9655 26.456 13.2175 26.0068 13.036 25.4011C12.845 24.775 12.363 24.534 11.7619 24.451C11.4906 24.4139 11.2196 24.3747 10.9487 24.3355L10.9485 24.3355L10.9483 24.3355L10.948 24.3354L10.9479 24.3354C10.4661 24.2657 9.98464 24.1961 9.50188 24.138C9.34844 24.1311 9.20044 24.0791 9.07631 23.9887C8.95218 23.8982 8.85739 23.7733 8.80379 23.6293C8.66929 23.3187 8.51596 23.0159 8.36264 22.7131L8.36261 22.713C8.21619 22.4238 8.06979 22.1347 7.93982 21.8388C7.62679 21.1298 7.20736 20.5945 6.33088 20.6477V18.9386H16.9285C16.9896 19.4081 16.7548 19.6382 16.3854 19.8213C15.597 20.2125 14.8215 20.6327 14.0466 21.0525L14.0466 21.0526L14.0464 21.0526L13.9532 21.1032C13.108 21.5633 12.9014 22.191 13.313 23.0565C13.4589 23.3632 13.6088 23.6671 13.7586 23.9707L13.7586 23.9707L13.7586 23.9707L13.7587 23.9707L13.7587 23.9707L13.7587 23.9707L13.7587 23.9708L13.7587 23.9708L13.7587 23.9708L13.7587 23.9708C14.0316 24.5239 14.3039 25.0757 14.5495 25.6405C14.6486 25.8958 14.6486 26.1789 14.5495 26.4341C14.2995 27.0123 14.0193 27.5773 13.7388 28.1428L13.7388 28.1428C13.6206 28.381 13.5025 28.6192 13.3866 28.8585C12.8747 29.9197 13.0736 30.4894 14.1191 31.0497C14.3901 31.196 14.6646 31.3396 14.9398 31.4834L14.9399 31.4835L14.9402 31.4836C15.4598 31.7552 15.9818 32.0281 16.4871 32.3237C16.7027 32.4614 16.859 32.6747 16.9254 32.9216C17.0526 33.511 17.1567 34.105 17.2609 34.699C17.3285 35.0846 17.3961 35.4703 17.47 35.8547C17.6266 36.6983 18.179 37.0912 19.0242 36.9832C19.3738 36.9383 19.7231 36.889 20.0723 36.8397C20.7081 36.75 21.3439 36.6602 21.9824 36.5966C22.2393 36.5854 22.4912 36.6696 22.6898 36.8329C23.16 37.2526 23.6118 37.6919 24.0636 38.1312C24.2976 38.3588 24.5317 38.5864 24.7683 38.8113C25.4617 39.4702 26.1144 39.4859 26.8218 38.8113C27.0583 38.5858 27.2892 38.3612 27.5183 38.1382L27.5184 38.1382L27.5187 38.1379L27.5189 38.1377L27.5189 38.1377L27.5189 38.1377L27.5189 38.1377L27.519 38.1376L27.519 38.1376L27.519 38.1376C27.9753 37.6937 28.4249 37.2563 28.8988 36.8314C29.0958 36.6661 29.3477 36.5806 29.6047 36.5919C30.2449 36.6556 30.8818 36.7455 31.5185 36.8353L31.5186 36.8353L31.519 36.8354C31.8674 36.8845 32.2157 36.9337 32.5644 36.9785C33.4111 37.0865 33.9589 36.6952 34.1201 35.8532C34.3048 34.8969 34.477 33.9359 34.6303 32.9733C34.6443 32.8211 34.6991 32.6755 34.7889 32.5518C34.8787 32.4281 35.0002 32.331 35.1406 32.2705C35.7752 31.9569 36.3981 31.6219 37.0208 31.287L37.021 31.2869C37.1876 31.1973 37.3543 31.1076 37.5212 31.0184C38.5213 30.4816 38.7076 29.8931 38.2067 28.8538C38.0852 28.6019 37.9609 28.3512 37.8366 28.1006L37.8365 28.1005L37.8365 28.1005L37.8365 28.1005L37.8365 28.1004L37.8365 28.1004L37.8365 28.1004L37.8365 28.1004L37.8365 28.1003L37.8365 28.1003C37.5623 27.5474 37.2883 26.9947 37.0438 26.4294C36.9447 26.1742 36.9447 25.8911 37.0438 25.6359C37.2813 25.0945 37.5435 24.5642 37.8056 24.0339L37.8057 24.0338L37.8057 24.0338L37.8057 24.0337L37.8057 24.0337L37.8058 24.0336L37.8058 24.0336L37.8058 24.0335L37.8058 24.0334L37.8058 24.0334C37.9757 23.6899 38.1454 23.3465 38.3084 23.0001C38.6841 22.1972 38.4728 21.5524 37.6949 21.122C36.8576 20.6618 36.0187 20.2032 35.1625 19.7822C34.7744 19.5912 34.6116 19.344 34.6757 18.8901H37.2019C37.8828 18.8901 38.274 18.5489 38.2646 17.9964C38.2552 17.4439 37.8796 17.1449 37.2285 17.1371C36.7944 17.1319 36.3492 17.1336 35.904 17.1354L35.9037 17.1354C35.6812 17.1362 35.4587 17.1371 35.2376 17.1371C34.3173 17.1371 34.3173 17.1371 34.142 16.2653C33.9527 15.3262 33.3955 14.9349 32.4689 15.0711C32.2225 15.1073 31.9763 15.1454 31.7301 15.1835C31.0506 15.2886 30.3712 15.3938 29.6876 15.4592C29.393 15.4723 29.1038 15.3765 28.8753 15.19C28.4278 14.7997 28.0054 14.3822 27.5828 13.9645L27.5828 13.9645L27.5828 13.9645L27.5826 13.9643L27.5825 13.9642L27.5824 13.9641C27.3799 13.764 27.1774 13.5638 26.9721 13.3666C26.1097 12.5402 25.5055 12.5355 24.6556 13.351C24.4593 13.5419 24.2606 13.7317 24.0614 13.9219C23.6254 14.3383 23.1876 14.7565 22.7696 15.1916C22.662 15.3149 22.5228 15.4065 22.367 15.4567C22.2112 15.5069 22.0447 15.5137 21.8853 15.4765C21.2435 15.3732 20.5976 15.2858 19.9526 15.1985L19.9518 15.1984L19.951 15.1983C19.785 15.1758 19.619 15.1533 19.4531 15.1306C18.0523 14.9381 17.6203 15.2213 17.409 16.583C17.3386 17.0322 17.1852 17.148 16.7485 17.1465C14.3489 17.134 11.9484 17.1347 9.54838 17.1354H9.54832H9.54826H9.5482H9.54814H9.54808H9.54802H9.54796H9.5479H9.54784C8.64813 17.1357 7.74846 17.136 6.84891 17.1355C6.74093 17.1355 6.63232 17.1272 6.52184 17.1188C6.45938 17.114 6.39632 17.1092 6.33244 17.1058V11.7999H45.264V17.1371H44.5863C44.2477 17.1371 43.9088 17.1359 43.5699 17.1347L43.5697 17.1347H43.5696C42.8919 17.1322 42.2145 17.1298 41.5405 17.1371C40.988 17.1465 40.6374 17.5112 40.6374 18.0089C40.6374 18.5066 40.9927 18.8619 41.5421 18.8822C41.9083 18.8958 42.2551 18.8913 42.6018 18.8868L42.6021 18.8868C42.7754 18.8845 42.9487 18.8822 43.1244 18.8822H45.2781V20.6462C44.3672 20.5476 43.9728 21.1157 43.6566 21.8185C43.5442 22.0686 43.4184 22.3136 43.2926 22.5586L43.2925 22.5589C43.124 22.8871 42.9554 23.2153 42.8192 23.5558C42.6533 23.9658 42.3778 24.0973 41.9834 24.1458C41.4721 24.2082 40.9694 24.282 40.4668 24.3557L40.4667 24.3557C40.2001 24.3948 39.9334 24.434 39.6655 24.4714C39.4105 24.4923 39.1681 24.5908 38.9708 24.7537C38.7735 24.9166 38.6309 25.1359 38.562 25.3823C38.3899 25.9301 38.5777 26.373 38.9721 26.7549C39.1013 26.8805 39.231 27.0057 39.3607 27.1308C39.8356 27.589 40.3106 28.0472 40.7642 28.5267C40.9039 28.6931 40.972 28.9081 40.9536 29.1246C40.8685 29.7865 40.7507 30.4452 40.633 31.1034C40.6098 31.2326 40.5867 31.3619 40.5639 31.4911C40.4574 32.0905 40.5263 32.6321 41.0741 32.9968C41.5875 33.338 42.1008 33.2535 42.6189 32.9655C43.0471 32.7256 43.4871 32.499 43.9268 32.2725L43.9268 32.2725C44.1299 32.1679 44.3329 32.0633 44.5346 31.9575C45.264 31.5756 45.3172 31.6022 45.3172 32.4271V47.9502C45.3072 48.204 45.3208 48.4581 45.3579 48.7093C45.3986 48.8993 45.5027 49.0697 45.6531 49.1927C45.8035 49.3156 45.9912 49.3838 46.1854 49.386C46.3797 49.3882 46.5689 49.3243 46.722 49.2047C46.8751 49.0851 46.983 48.9171 47.0279 48.7281C47.069 48.4778 47.0842 48.224 47.0733 47.9706V33.5602V32.8168C47.2071 32.8543 47.338 32.9019 47.4646 32.9592C48.0171 33.2722 48.5711 33.3583 49.1049 32.9388C49.6386 32.5194 49.6511 31.9998 49.5243 31.4003C49.4475 31.0317 49.3861 30.6597 49.3246 30.2877C49.2683 29.9472 49.212 29.6066 49.144 29.2686C49.1023 29.1103 49.1082 28.9432 49.1608 28.7882C49.2134 28.6332 49.3104 28.497 49.4398 28.3968C50.0487 27.849 50.6419 27.2777 51.2038 26.6751C51.9535 25.8847 51.5872 24.7249 50.4916 24.5089C49.8428 24.3817 49.1852 24.2932 48.5334 24.2054L48.5332 24.2054ZM17.218 21.3786C18.1337 20.978 18.6267 20.3691 18.7049 19.3439C18.7478 18.7901 18.8618 18.2429 18.9801 17.6746L18.9801 17.6746C19.0347 17.4126 19.0902 17.1462 19.14 16.8726C19.4062 16.9092 19.6697 16.94 19.9307 16.9705C20.4953 17.0366 21.0479 17.1012 21.5895 17.22C22.5615 17.4313 23.3472 17.2498 23.9889 16.4547C24.3428 16.0144 24.7183 15.5927 25.1093 15.1538L25.1093 15.1538L25.1093 15.1537L25.1093 15.1537L25.1093 15.1537L25.1094 15.1537L25.1094 15.1537L25.1094 15.1536L25.1094 15.1536C25.2855 14.9559 25.4647 14.7547 25.6464 14.5468C25.9208 14.8126 26.1791 15.0576 26.4244 15.2904L26.4244 15.2904C26.9373 15.7771 27.3936 16.2102 27.8235 16.6675C28.0393 16.92 28.3194 17.1095 28.634 17.2158C28.9487 17.3222 29.2862 17.3415 29.6109 17.2717C30.2641 17.1606 30.9211 17.0732 31.6022 16.9826L31.6025 16.9825C31.8811 16.9455 32.1637 16.9079 32.4517 16.8679C32.5019 17.143 32.5558 17.4145 32.6092 17.6838C32.7325 18.3048 32.8535 18.914 32.9212 19.5286C33.0167 20.3754 33.4095 20.9138 34.1733 21.2675C34.7369 21.5269 35.2814 21.8274 35.8361 22.1333L35.8362 22.1334C36.0779 22.2668 36.3216 22.4012 36.5696 22.5337C36.4509 22.7793 36.3345 23.0218 36.2194 23.2618C35.8943 23.9394 35.5788 24.597 35.247 25.2477C35.113 25.4867 35.0425 25.7562 35.0425 26.0303C35.0425 26.3043 35.113 26.5738 35.247 26.8129C35.5693 27.4472 35.8778 28.0895 36.1957 28.7515C36.321 29.0124 36.4478 29.2763 36.5774 29.544C36.2476 29.7167 35.9275 29.8909 35.6117 30.0627L35.6116 30.0628C35.0687 30.3582 34.5385 30.6466 33.9934 30.9089C33.7071 31.0345 33.4596 31.2344 33.2766 31.4879C33.0936 31.7413 32.9817 32.0391 32.9525 32.3504C32.8518 33.0295 32.7289 33.7087 32.6035 34.4021C32.5555 34.6674 32.5072 34.9349 32.4595 35.2052C32.1714 35.1661 31.8867 35.1292 31.6045 35.0927L31.6044 35.0927L31.6033 35.0926L31.6004 35.0922L31.5999 35.0921L31.5998 35.0921L31.5998 35.0921L31.5997 35.0921L31.5997 35.0921L31.5996 35.0921L31.5996 35.0921L31.5995 35.0921L31.5995 35.0921L31.5995 35.0921C30.8779 34.9987 30.1735 34.9075 29.4747 34.7873C29.2075 34.731 28.9301 34.7446 28.6697 34.8269C28.4092 34.9091 28.1743 35.0572 27.9879 35.2568C27.4785 35.7594 26.9611 36.2546 26.4254 36.7672L26.4252 36.7674L26.425 36.7676L26.4249 36.7677C26.2184 36.9653 26.0091 37.1656 25.7966 37.3698C25.5639 37.1461 25.3322 36.9258 25.1023 36.7072C24.6196 36.2481 24.1444 35.7963 23.6821 35.3351C23.2126 34.8655 22.7211 34.6746 22.0512 34.8029C21.4047 34.9247 20.7522 35.0072 20.0755 35.0927C19.7692 35.1314 19.458 35.1707 19.14 35.2146C19.0896 34.9326 19.0365 34.6524 18.9835 34.373C18.8626 33.7345 18.7425 33.1006 18.6564 32.4615C18.5563 31.7196 18.2338 31.2094 17.5405 30.8791C16.9598 30.6028 16.3939 30.2945 15.8127 29.9777L15.8125 29.9776L15.8121 29.9774C15.5507 29.835 15.2863 29.6908 15.0159 29.5472C15.1468 29.2786 15.2737 29.0112 15.3997 28.7457L15.3997 28.7457C15.6777 28.1602 15.9513 27.5836 16.2539 27.0226C16.6108 26.3605 16.6327 25.7548 16.2665 25.0849C15.9658 24.539 15.6978 23.9757 15.4184 23.3884L15.4184 23.3884L15.4184 23.3884C15.2877 23.1136 15.1545 22.8337 15.0143 22.5478C15.1988 22.4455 15.3821 22.341 15.5651 22.2365L15.5651 22.2365L15.5651 22.2365L15.5651 22.2365L15.5651 22.2365L15.5651 22.2365L15.5651 22.2365L15.5651 22.2365L15.5652 22.2365L15.5652 22.2365C16.1071 21.9273 16.6471 21.6193 17.2133 21.3724L17.218 21.3786ZM6.54528 23.0236C6.64646 23.225 6.74576 23.4183 6.84249 23.6067L6.84249 23.6067L6.8425 23.6067L6.8425 23.6067L6.84251 23.6067L6.84251 23.6067L6.84252 23.6067L6.84252 23.6067L6.84255 23.6068C7.06453 24.0389 7.27295 24.4447 7.45935 24.8611C7.72699 25.459 8.1793 25.7439 8.81319 25.8159C9.24794 25.8652 9.6665 25.9286 10.1274 25.9984L10.1277 25.9984C10.3388 26.0304 10.5587 26.0637 10.7931 26.0976C10.6608 26.2299 10.5357 26.359 10.4146 26.4839L10.4145 26.484C10.106 26.8024 9.82278 27.0946 9.5081 27.3497C8.86013 27.8834 8.66295 28.511 8.87111 29.3218C8.96528 29.6879 9.01939 30.064 9.07793 30.4709L9.07794 30.4709L9.07795 30.471C9.106 30.666 9.13506 30.868 9.17004 31.0794C8.97541 30.9783 8.78731 30.8841 8.60468 30.7926L8.6046 30.7925C8.22185 30.6008 7.86315 30.421 7.5188 30.2155C6.86927 29.8258 6.25729 29.8007 5.60149 30.2061C5.27063 30.4112 4.92049 30.5856 4.53131 30.7794C4.34425 30.8725 4.14818 30.9702 3.94089 31.0779C3.97871 30.8371 4.01114 30.6089 4.04227 30.3899L4.04228 30.3899C4.10906 29.92 4.16984 29.4925 4.26485 29.0729C4.41041 28.4265 4.21479 27.9366 3.74525 27.5078C3.41218 27.2036 3.0925 26.8868 2.7432 26.5406C2.60007 26.3988 2.45196 26.252 2.29591 26.0991C2.51776 26.0656 2.72735 26.0312 2.9286 25.9983L2.92885 25.9982L2.92899 25.9982L2.92942 25.9982L2.92967 25.9981L2.92981 25.9981L2.93025 25.998L2.93048 25.998L2.93053 25.998C3.37596 25.925 3.78053 25.8587 4.18659 25.8221C4.89404 25.7579 5.38549 25.4543 5.67192 24.7828C5.83701 24.3998 6.03001 24.0267 6.23786 23.6249L6.23789 23.6248C6.33743 23.4324 6.44037 23.2334 6.54528 23.0236ZM47.8653 27.4843C47.3754 27.9288 47.1641 28.4234 47.3206 29.0995C47.4172 29.5117 47.4777 29.9319 47.5456 30.4031L47.5456 30.4032L47.5457 30.4034C47.5767 30.6193 47.6094 30.8459 47.6477 31.0873C47.4426 30.98 47.2483 30.8812 47.0622 30.7866L47.0621 30.7865C46.6674 30.5859 46.3098 30.404 45.9652 30.1998C45.6896 30.0132 45.3644 29.9135 45.0316 29.9135C44.6987 29.9135 44.3735 30.0132 44.0979 30.1998C43.7471 30.4144 43.3785 30.5996 42.9802 30.7998L42.9802 30.7998L42.9802 30.7998L42.9801 30.7998L42.9801 30.7998L42.98 30.7999L42.98 30.7999L42.9799 30.7999L42.9799 30.7999L42.9798 30.8C42.7973 30.8917 42.6085 30.9866 42.4123 31.0888C42.4511 30.8589 42.4849 30.6388 42.5176 30.4255L42.5177 30.4252C42.5812 30.0115 42.6406 29.624 42.7253 29.242C42.8943 28.5032 42.7253 27.9116 42.1415 27.4139C41.8337 27.1538 41.546 26.8692 41.2316 26.5582L41.2314 26.558L41.2306 26.5573L41.2302 26.5569C41.0815 26.4097 40.9267 26.2567 40.7611 26.0976C41.0087 26.0615 41.2405 26.0252 41.462 25.9905L41.4622 25.9905L41.4622 25.9905C41.9125 25.92 42.3198 25.8563 42.73 25.8143C43.3905 25.7454 43.8553 25.4512 44.1386 24.8329C44.3167 24.4339 44.5153 24.0437 44.731 23.6201L44.7311 23.6198C44.8301 23.4253 44.9327 23.2238 45.0386 23.0111C45.1448 23.2244 45.248 23.4272 45.3479 23.6234L45.348 23.6237L45.348 23.6238C45.5661 24.0522 45.7681 24.4491 45.9495 24.8548C46.214 25.4465 46.6711 25.7376 47.3049 25.8096C47.7414 25.8592 48.1608 25.9221 48.6249 25.9917C48.8349 26.0232 49.054 26.0561 49.288 26.0898C49.1339 26.2421 48.9869 26.3894 48.8443 26.5323L48.8442 26.5324L48.8439 26.5327L48.8437 26.5329C48.5072 26.8702 48.1948 27.1834 47.8684 27.4812L47.8653 27.4843ZM39.196 41.9998H38.9033H20.4596C20.2262 41.9878 19.9922 42.0051 19.7631 42.0515C19.6392 42.0811 19.5235 42.1382 19.4248 42.2187C19.326 42.2991 19.2466 42.4007 19.1924 42.5161C19.1383 42.6314 19.1109 42.7574 19.1121 42.8848C19.1134 43.0122 19.1433 43.1377 19.1996 43.2519C19.4109 43.6855 19.7897 43.759 20.2295 43.759C23.3702 43.7517 26.5125 43.7517 29.6564 43.759H39.2038C39.8706 43.759 40.2337 43.4554 40.2494 42.9185C40.265 42.3817 39.869 42.0186 39.196 41.9998ZM38.9456 50.2988H20.3829C20.1886 50.3119 19.9935 50.3003 19.8022 50.2644C19.3561 50.1517 19.0964 49.8387 19.123 49.3691C19.1496 48.8996 19.425 48.6273 19.8946 48.5521C20.0303 48.5388 20.1669 48.5357 20.3031 48.5427H39.0473C39.1835 48.5367 39.32 48.5394 39.4558 48.5506C39.916 48.6116 40.2024 48.8777 40.2384 49.3472C40.276 49.8496 39.9989 50.1611 39.5294 50.2738C39.3364 50.3042 39.1405 50.3126 38.9456 50.2988ZM20.0243 56.8311C20.1151 56.8395 20.2066 56.8367 20.2979 56.8339H20.2981H20.2983H20.2985H20.2986H20.2988H20.299C20.3442 56.8325 20.3893 56.8311 20.4343 56.8311H38.9344C38.9717 56.8311 39.01 56.8317 39.0489 56.8323H39.0491H39.0493H39.0495C39.2718 56.8358 39.5121 56.8395 39.6732 56.7356C39.9095 56.5791 40.1709 56.3084 40.2038 56.0564C40.209 55.9081 40.1822 55.7605 40.1252 55.6236C40.0682 55.4866 39.9824 55.3636 39.8735 55.2628C39.6841 55.1063 39.3304 55.0844 39.0487 55.0844C36.4932 55.0755 33.9378 55.0759 31.3824 55.0764L29.6813 55.0766H26.0517H20.0806C19.5062 55.0766 19.1415 55.399 19.1165 55.8842C19.0914 56.3694 19.4436 56.7732 20.0243 56.8311ZM20.5268 63.3435C20.3122 63.3501 20.0973 63.3433 19.8835 63.3231C19.6755 63.3118 19.4801 63.2201 19.3384 63.0674C19.1968 62.9146 19.1201 62.7128 19.1244 62.5046C19.1041 62.035 19.3576 61.7298 19.8193 61.6281C20.011 61.5951 20.2057 61.5825 20.4 61.5905H38.9596C39.1927 61.5797 39.4262 61.6023 39.6529 61.6578C40.0818 61.7846 40.2759 62.1117 40.2383 62.5531C40.2341 62.7408 40.1625 62.9208 40.0367 63.0601C39.9108 63.1995 39.7391 63.289 39.5528 63.3122C39.3396 63.3407 39.1244 63.3511 38.9095 63.3435H20.5268ZM17.0287 54.5634V54.446C16.9849 53.7135 16.5357 53.2456 15.8001 53.2315C14.7295 53.2111 13.6558 53.2127 12.5837 53.2315C11.845 53.244 11.366 53.6901 11.3441 54.4319C11.3097 55.5275 11.3112 56.6232 11.3441 57.7062C11.366 58.4466 11.8277 58.9083 12.5696 58.9318C13.6423 58.9651 14.7144 58.9651 15.786 58.9318C16.578 58.9067 17.0131 58.4137 17.0303 57.6045C17.0386 57.2664 17.0359 56.9284 17.0331 56.5903C17.0317 56.4212 17.0303 56.2522 17.0303 56.0832L17.0287 54.5634ZM15.2382 57.1444H13.1221V55.0158H15.2382V57.1444ZM15.8156 40.1752C16.5622 40.1971 16.9957 40.6667 17.0223 41.4086C17.0371 41.8222 17.0306 42.2367 17.0241 42.6499C17.0223 42.7621 17.0205 42.8743 17.0192 42.9862C17.0192 43.1744 17.0218 43.3628 17.0244 43.5512L17.0244 43.5516C17.0296 43.9286 17.0348 44.3057 17.0192 44.6813C16.9879 45.3872 16.5262 45.8442 15.8203 45.8567C14.7289 45.8755 13.6374 45.8755 12.546 45.8567C11.8401 45.8442 11.3674 45.4044 11.3439 44.686C11.3095 43.5758 11.3095 42.4656 11.3439 41.3554C11.3659 40.637 11.8198 40.1956 12.5429 40.1752C13.6322 40.1455 14.72 40.1439 15.8156 40.1752ZM13.1314 44.0803H15.2412V41.9626H13.1314V44.0803ZM11.3408 51.1971C11.3627 51.9327 11.8479 52.3898 12.5803 52.4038C13.653 52.4237 14.7257 52.4237 15.7983 52.4038C16.5245 52.3882 16.9941 51.9046 17.0207 51.1799C17.0342 50.8295 17.0297 50.479 17.0252 50.1281V50.128V50.1279V50.1278V50.1277C17.0229 49.9522 17.0207 49.7765 17.0207 49.6007C17.0207 49.4254 17.0217 49.25 17.0227 49.0745V49.0742V49.0742V49.0741C17.0248 48.7231 17.0269 48.3719 17.0207 48.0214C17.0019 47.1919 16.5418 46.7067 15.7185 46.6895C14.6855 46.6686 13.6519 46.6686 12.6179 46.6895C11.8353 46.7067 11.358 47.159 11.3345 47.9197C11.3079 49.0059 11.3063 50.1015 11.3408 51.1971ZM13.1219 48.4706H15.2364V50.6149H13.1219V48.4706ZM15.7733 59.7633C16.5825 59.7821 17.0066 60.2454 17.0254 61.0702C17.034 61.431 17.0315 61.8022 17.0291 62.1629L17.0291 62.1634C17.028 62.3282 17.027 62.4909 17.027 62.6494C17.027 62.8178 17.0285 62.9864 17.0301 63.1551C17.0332 63.4928 17.0364 63.831 17.027 64.1692C16.9988 64.9768 16.5637 65.4307 15.7467 65.4464C14.6933 65.4683 13.6416 65.4698 12.5882 65.4464C11.8056 65.426 11.3564 64.9847 11.3361 64.1943C11.3048 63.1221 11.3032 62.05 11.3361 60.9779C11.358 60.2219 11.8072 59.7821 12.5569 59.7633C13.6295 59.7404 14.7017 59.7404 15.7733 59.7633ZM13.1376 63.6778H15.2333V61.557H13.1376V63.6778ZM23.776 32.8133C25.2941 33.2638 26.9196 33.1917 28.3919 32.6085C29.8642 32.0253 31.0981 30.9648 31.8959 29.5969C32.0705 29.3153 32.2152 29.0163 32.3279 28.7048C32.4735 28.2478 32.3514 27.8471 31.8959 27.617C31.6909 27.5187 31.4557 27.5041 31.2401 27.5763C31.0245 27.6484 30.8454 27.8017 30.7409 28.0036C30.6824 28.1028 30.634 28.2084 30.5855 28.3143C30.5445 28.4038 30.5034 28.4935 30.456 28.5796C30.0068 29.4045 29.3469 30.0956 28.5435 30.5824C27.7402 31.0692 26.822 31.3343 25.8828 31.3506C24.9436 31.3669 24.0169 31.1338 23.1971 30.6752C22.3774 30.2166 21.6938 29.5488 21.2163 28.7399C20.7387 27.931 20.4842 27.01 20.4786 26.0707C20.4731 25.1313 20.7167 24.2073 21.1847 23.3928C21.6526 22.5784 22.3282 21.9025 23.1425 21.4343C23.9568 20.966 24.8807 20.722 25.8201 20.7272C28.0629 20.7366 30.0287 22.1452 30.8176 24.3067C31.0868 25.047 31.5062 25.3162 32.0603 25.1049C32.5658 24.9124 32.7099 24.4257 32.4673 23.7151C31.5188 20.9213 28.8377 19.0087 25.6886 18.9648C25.6137 18.971 25.5271 18.9758 25.4329 18.9811L25.4328 18.9811C25.214 18.9934 24.9537 19.0079 24.701 19.0462C21.5707 19.5158 18.9788 22.2626 18.7534 25.3272C18.5108 28.8143 20.5236 31.8226 23.776 32.8133ZM26.025 25.9256C26.6682 25.2772 27.2834 24.657 27.902 24.0395C28.2197 23.7218 28.5891 23.5935 29.018 23.8329C29.1955 23.9207 29.3348 24.0704 29.4098 24.2537C29.4847 24.437 29.4901 24.6414 29.4249 24.8284C29.3623 25.0126 29.2547 25.1783 29.1119 25.3104C28.13 26.3101 27.1387 27.3013 26.1381 28.2842C25.6232 28.7913 25.1834 28.7882 24.6716 28.2842C23.9339 27.559 23.2035 26.8286 22.4804 26.093C22.0437 25.647 22.0139 25.1179 22.3849 24.7533C22.7558 24.3886 23.277 24.4199 23.7231 24.8675C24.0958 25.2445 24.4583 25.6286 24.8314 26.024C25.0067 26.2098 25.1844 26.398 25.3665 26.5892C25.59 26.3641 25.8091 26.1433 26.025 25.9256Z" fill="#245F12"/>
<circle opacity="0.4" cx="26" cy="26" r="8" fill="#245F12"/>
<path opacity="0.4" d="M5.56846 23.3864C5.89967 22.5379 7.10034 22.5379 7.43154 23.3864L7.91726 24.6308C8.05939 24.9949 8.40063 25.2428 8.79084 25.2655L10.1244 25.3429C11.0337 25.3957 11.4047 26.5376 10.7001 27.1148L9.66676 27.9613C9.36439 28.2089 9.23405 28.6101 9.33308 28.9882L9.67152 30.2804C9.9023 31.1615 8.93094 31.8673 8.16425 31.3755L7.0399 30.6543C6.7109 30.4433 6.2891 30.4433 5.9601 30.6543L4.83575 31.3755C4.06906 31.8673 3.0977 31.1615 3.32848 30.2804L3.66692 28.9882C3.76595 28.6101 3.63561 28.2089 3.33324 27.9613L2.29991 27.1148C1.59529 26.5376 1.96632 25.3957 2.87564 25.3429L4.20916 25.2655C4.59937 25.2428 4.94061 24.9949 5.08274 24.6308L5.56846 23.3864Z" fill="#245F12"/>
<path opacity="0.4" d="M44.5685 23.3864C44.8997 22.5379 46.1003 22.5379 46.4315 23.3864L46.9173 24.6308C47.0594 24.9949 47.4006 25.2428 47.7908 25.2655L49.1244 25.3429C50.0337 25.3957 50.4047 26.5376 49.7001 27.1148L48.6668 27.9613C48.3644 28.2089 48.234 28.6101 48.3331 28.9882L48.6715 30.2804C48.9023 31.1615 47.9309 31.8673 47.1643 31.3755L46.0399 30.6543C45.7109 30.4433 45.2891 30.4433 44.9601 30.6543L43.8357 31.3755C43.0691 31.8673 42.0977 31.1615 42.3285 30.2804L42.6669 28.9882C42.766 28.6101 42.6356 28.2089 42.3332 27.9613L41.2999 27.1148C40.5953 26.5376 40.9663 25.3957 41.8756 25.3429L43.2092 25.2655C43.5994 25.2428 43.9406 24.9949 44.0827 24.6308L44.5685 23.3864Z" fill="#245F12"/>
</svg>
