<svg width="13" height="14" viewBox="0 0 13 14" fill="none" xmlns="http://www.w3.org/2000/svg">
<path d="M3.18586 9.3287C4.23416 9.3287 5.12172 8.49784 5.12172 7.42705C5.12172 6.35625 4.23416 5.52539 3.18586 5.52539C2.13755 5.52539 1.25 6.35625 1.25 7.42705C1.25 8.49784 2.13755 9.3287 3.18586 9.3287Z" stroke="#599E43" stroke-width="1.5" stroke-linecap="round" stroke-linejoin="round"/>
<path d="M9.99345 5.0533C11.0437 5.0533 11.8951 4.2019 11.8951 3.15165C11.8951 2.10139 11.0437 1.25 9.99345 1.25C8.9432 1.25 8.0918 2.10139 8.0918 3.15165C8.0918 4.2019 8.94319 5.0533 9.99345 5.0533Z" stroke="#599E43" stroke-width="1.5" stroke-linecap="round" stroke-linejoin="round"/>
<path d="M9.99345 12.7506C11.0437 12.7506 11.8951 11.8992 11.8951 10.8489C11.8951 9.79865 11.0437 8.94727 9.99345 8.94727C8.9432 8.94727 8.0918 9.79865 8.0918 10.8489C8.0918 11.8992 8.94318 12.7506 9.99345 12.7506Z" stroke="#599E43" stroke-width="1.5" stroke-linecap="round" stroke-linejoin="round"/>
<path d="M5.31836 6.26451L8.51106 4.04102" stroke="#599E43" stroke-width="1.5" stroke-linecap="round" stroke-linejoin="round"/>
<path d="M8.51106 10.2665L5.31836 8.04297" stroke="#599E43" stroke-width="1.5" stroke-linecap="round" stroke-linejoin="round"/>
</svg>
