<svg width="36" height="39" viewBox="0 0 36 39" fill="none" xmlns="http://www.w3.org/2000/svg">
<path d="M17.8633 38.2336L17.6499 38.6857C17.7166 38.7172 17.7895 38.7336 17.8633 38.7336V38.2336ZM1 10.5251L0.911858 10.033C0.671449 10.076 0.497325 10.2864 0.500031 10.5307L1 10.5251ZM17.9434 1.26757L18.3004 1.61768C18.3921 1.5242 18.4434 1.3985 18.4434 1.26757H17.9434ZM17.9434 1.23291L18.3008 0.88326C18.1587 0.737985 17.9428 0.693186 17.7546 0.769927C17.5664 0.846668 17.4434 1.02968 17.4434 1.23291H17.9434ZM17.9604 1.25025L17.6032 1.6001C17.6972 1.69613 17.826 1.75025 17.9604 1.75025C18.0948 1.75025 18.2236 1.69613 18.3176 1.6001L17.9604 1.25025ZM17.9774 1.23291H18.4774C18.4774 1.02968 18.3543 0.846668 18.1662 0.769927C17.978 0.693186 17.7621 0.737985 17.6199 0.88326L17.9774 1.23291ZM17.9774 1.26757H17.4774C17.4774 1.3985 17.5287 1.5242 17.6204 1.61768L17.9774 1.26757ZM35.0116 10.5412H35.5116C35.5116 10.2985 35.3372 10.0908 35.0981 10.0488L35.0116 10.5412ZM35.0116 12.1032L35.5107 12.1334C35.5113 12.1234 35.5116 12.1133 35.5116 12.1032H35.0116ZM18.1281 38.2336V38.7336C18.2017 38.7336 18.2745 38.7173 18.3411 38.6859L18.1281 38.2336ZM17.8633 38.7336H17.9434V37.7336H17.8633V38.7336ZM0.500031 10.5307C0.639707 23.1392 7.64533 33.9639 17.6499 38.6857L18.0767 37.7814C8.44044 33.2333 1.63568 22.7702 1.49997 10.5196L0.500031 10.5307ZM17.5864 0.91747C12.9256 5.66977 7.19648 8.90744 0.911858 10.033L1.08814 11.0173C7.60092 9.85092 13.512 6.49997 18.3004 1.61768L17.5864 0.91747ZM18.4434 1.26757V1.23291H17.4434V1.26757H18.4434ZM17.586 1.58256C17.5917 1.58843 17.5975 1.59428 17.6032 1.6001L18.3176 0.900406C18.312 0.894672 18.3064 0.888959 18.3008 0.88326L17.586 1.58256ZM17.6199 0.88326C17.6144 0.888959 17.6088 0.894671 17.6032 0.900406L18.3176 1.6001C18.3233 1.59428 18.329 1.58843 18.3348 1.58256L17.6199 0.88326ZM18.4774 1.26757V1.23291H17.4774V1.26757H18.4774ZM17.6204 1.61768C22.4314 6.52306 28.3758 9.88259 34.925 11.0337L35.0981 10.0488C28.7785 8.93803 23.0172 5.69224 18.3343 0.91747L17.6204 1.61768ZM34.5116 10.5412V12.1032H35.5116V10.5412H34.5116ZM34.5125 12.073C33.8115 23.655 27.1594 33.4279 17.9151 37.7812L18.3411 38.6859C27.9376 34.1668 34.7891 24.0559 35.5107 12.1334L34.5125 12.073ZM18.1281 37.7336H17.9774V38.7336H18.1281V37.7336ZM17.9774 37.7336H17.9434V38.7336H17.9774V37.7336Z" fill="#599E43"/>
<path opacity="0.4" fill-rule="evenodd" clip-rule="evenodd" d="M17.953 35.3101H17.8867C9.61835 31.4077 3.80449 22.4462 3.68848 11.9811C9.07541 11.0164 13.9753 8.24308 17.953 4.18771V4.15825C17.9578 4.16317 17.9626 4.16808 17.9674 4.17299C17.9726 4.16774 17.9777 4.16248 17.9828 4.15723V4.18874C21.9793 8.26308 26.9067 11.0432 32.3236 11.9952V13.3147C31.7232 23.2075 26.0391 31.576 18.1088 35.3106H17.953V35.3101Z" fill="#599E43"/>
<path fill-rule="evenodd" clip-rule="evenodd" d="M25.925 13.5302C26.5536 13.9894 26.691 14.8712 26.2318 15.4998L18.8318 25.6307C18.5969 25.9524 18.2368 26.1596 17.8407 26.2012C17.4445 26.2427 17.0493 26.1147 16.7527 25.8488L11.6432 21.2679C11.0636 20.7482 11.015 19.8571 11.5346 19.2775C12.0543 18.6979 12.9454 18.6493 13.525 19.1689L17.4744 22.7098L23.9554 13.837C24.4145 13.2084 25.2964 13.071 25.925 13.5302Z" fill="#599E43"/>
</svg>
