<svg width="28" height="40" viewBox="0 0 28 40" fill="none" xmlns="http://www.w3.org/2000/svg">
<path d="M17.1947 24.5969L15.6889 21.7203L12.6922 21.6152L11.3665 23.7765L12.4871 24.4668L13.4126 22.956L14.8784 23.006L15.944 25.0522L15.1886 24.8921L14.9085 26.1778L17.5199 26.7381L18.6856 24.6169L17.5299 23.9816L17.1947 24.5969Z" fill="white"/>
<path d="M19.7407 29.0345L18.5 26.9033L17.3594 27.5637L18.2199 29.0345L17.4795 30.3002L15.1732 30.2752L15.6784 29.6799L14.6729 28.8294L12.9419 30.8656L14.2626 32.8967L15.3683 32.1763L14.9881 31.586L18.2349 31.626L19.7407 29.0345Z" fill="white"/>
<path d="M9.7799 31.7112L12.2913 31.6912L12.2763 30.3754L10.5353 30.3904L9.79992 29.1247L10.9656 27.1336L11.2307 27.864L12.4664 27.4138L11.5559 24.9023L9.13954 25.0424L9.21458 26.3582L9.91497 26.3181L8.27905 29.1197L9.7799 31.7112Z" fill="white"/>
<path d="M9.90513 13.529V10.9975C9.90513 10.8649 9.95785 10.7376 10.0517 10.6438C10.1455 10.55 10.2727 10.4973 10.4054 10.4973H17.6195C17.7522 10.4973 17.8794 10.55 17.9733 10.6438C18.0671 10.7376 18.1198 10.8649 18.1198 10.9975V12.3183H19.4405V10.9975C19.4392 10.5168 19.2473 10.0562 18.9069 9.71667C18.5664 9.37718 18.1053 9.18652 17.6245 9.18652H10.4004C9.91963 9.18652 9.4585 9.37718 9.11807 9.71667C8.77764 10.0562 8.5857 10.5168 8.58438 10.9975V13.529H0.0595703V14.8497H8.56438H9.88513H27.9403V13.529H9.90513Z" fill="white"/>
<path fill-rule="evenodd" clip-rule="evenodd" d="M14.5312 0.0607419C14.8148 0.202554 14.9298 0.547439 14.788 0.831064L14.3551 1.69689C14.103 2.20093 14.2018 2.80969 14.6003 3.20817C15.3762 3.98404 15.5437 5.18025 15.0108 6.13943L14.5452 6.97754C14.3912 7.25474 14.0417 7.35461 13.7645 7.20061C13.4873 7.04662 13.3874 6.69706 13.5414 6.41987L14.007 5.58175C14.2909 5.07076 14.2017 4.4335 13.7883 4.02016C13.0403 3.27217 12.8549 2.12947 13.328 1.18334L13.7609 0.317516C13.9027 0.0338912 14.2476 -0.0810704 14.5312 0.0607419ZM26.0976 5.37131C26.2724 5.63594 26.1995 5.9921 25.9349 6.16682L25.127 6.70018C24.6568 7.01069 24.4379 7.58728 24.5838 8.13161C24.8678 9.19148 24.4148 10.3112 23.4737 10.8754L22.6514 11.3684C22.3794 11.5315 22.0268 11.4432 21.8637 11.1713C21.7006 10.8993 21.7889 10.5466 22.0609 10.3836L22.8832 9.89056C23.3845 9.58997 23.6259 8.99345 23.4746 8.42882C23.2008 7.40706 23.6116 6.32473 24.4943 5.74189L25.3021 5.20852C25.5668 5.0338 25.9229 5.10669 26.0976 5.37131ZM2.26575 6.40545C2.16547 6.10462 1.84031 5.94204 1.53948 6.04232C1.23865 6.1426 1.07607 6.46776 1.17635 6.76859L1.48246 7.68693C1.81697 8.69046 2.7561 9.36735 3.81391 9.36735C4.39846 9.36735 4.91219 9.75485 5.07278 10.3169L5.33617 11.2388C5.42329 11.5437 5.74108 11.7202 6.04598 11.6331C6.35088 11.546 6.52743 11.2282 6.44032 10.9233L6.17692 10.0014C5.87548 8.9464 4.91117 8.21902 3.81391 8.21902C3.25038 8.21902 2.75007 7.85841 2.57186 7.3238L2.26575 6.40545Z" fill="white"/>
<path d="M22.0726 36.1926C22.0171 36.8755 21.7061 37.5125 21.2016 37.9762C20.6971 38.4399 20.0362 38.6962 19.351 38.694H8.695C8.00924 38.6963 7.34777 38.4402 6.84245 37.9766C6.33713 37.513 6.02507 36.876 5.96845 36.1926L4.19746 16.6265L2.88672 16.7416L4.65771 36.3126C4.74443 37.322 5.20791 38.2617 5.95599 38.9449C6.70407 39.6281 7.68191 40.0047 8.695 39.9997H19.351C20.3632 40.0034 21.3398 39.6263 22.0868 38.9432C22.8339 38.2602 23.2966 37.3211 23.3833 36.3126L25.0743 16.8816L23.7635 16.7666L22.0726 36.1926Z" fill="white"/>
<path opacity="0.4" d="M21.4143 20.6597H6.5061L7.64549 35.8514C7.68462 36.3732 8.11941 36.7766 8.64269 36.7766H19.2777C19.801 36.7766 20.2358 36.3732 20.2749 35.8514L21.4143 20.6597Z" fill="white"/>
</svg>
