<svg width="35" height="48" viewBox="0 0 35 48" fill="none" xmlns="http://www.w3.org/2000/svg">
<path d="M21.2633 28.6361L19.3946 25.0664L15.6759 24.936L14.0308 27.618L15.4214 28.4747L16.5699 26.5998L18.3889 26.6619L19.7112 29.201L18.7738 29.0024L18.4261 30.5979L21.6668 31.2932L23.1133 28.6609L21.6792 27.8725L21.2633 28.6361Z" fill="#599E43"/>
<path d="M24.4232 34.1422L22.8836 31.4976L21.4681 32.317L22.5359 34.1422L21.6171 35.7129L18.7552 35.6818L19.3822 34.9431L18.1343 33.8877L15.9863 36.4144L17.6253 38.9349L18.9973 38.0409L18.5255 37.3084L22.5545 37.3581L24.4232 34.1422Z" fill="#599E43"/>
<path d="M12.0622 37.4639L15.1786 37.4391L15.16 35.8064L12.9996 35.825L12.087 34.2543L13.5335 31.7835L13.8625 32.6899L15.3959 32.1311L14.266 29.0146L11.2675 29.1885L11.3606 30.8212L12.2298 30.7716L10.1997 34.2481L12.0622 37.4639Z" fill="#599E43"/>
<path d="M12.2176 15.1387V11.9973C12.2176 11.8327 12.283 11.6748 12.3995 11.5584C12.5159 11.4419 12.6738 11.3765 12.8384 11.3765H21.7906C21.9552 11.3765 22.1132 11.4419 22.2296 11.5584C22.346 11.6748 22.4114 11.8327 22.4114 11.9973V13.6363H24.0504V11.9973C24.0487 11.4007 23.8106 10.8292 23.3881 10.4079C22.9657 9.98659 22.3934 9.75 21.7968 9.75H12.8322C12.2356 9.75 11.6634 9.98659 11.2409 10.4079C10.8185 10.8292 10.5803 11.4007 10.5787 11.9973V15.1387H0V16.7776H10.5539H12.1928H34.598V15.1387H12.2176Z" fill="#599E43"/>
<path fill-rule="evenodd" clip-rule="evenodd" d="M18.2243 0.0729617C18.565 0.243303 18.703 0.657571 18.5327 0.998254L18.0127 2.03826C17.71 2.6437 17.8286 3.37493 18.3073 3.85357C19.2392 4.78554 19.4405 6.2224 18.8004 7.37453L18.2411 8.38126C18.0561 8.71422 17.6363 8.83419 17.3033 8.64921C16.9703 8.46423 16.8504 8.04435 17.0354 7.71139L17.5946 6.70467C17.9356 6.09088 17.8284 5.32541 17.3319 4.82892C16.4335 3.93046 16.2107 2.55787 16.779 1.4214L17.299 0.381392C17.4693 0.0407093 17.8836 -0.0973799 18.2243 0.0729617ZM32.1172 6.45198C32.3271 6.76984 32.2396 7.19765 31.9217 7.40752L30.9514 8.04819C30.3865 8.42116 30.1236 9.11375 30.2988 9.76759C30.6399 11.0407 30.0958 12.3857 28.9654 13.0634L27.9777 13.6556C27.651 13.8515 27.2274 13.7454 27.0315 13.4187C26.8357 13.0921 26.9417 12.6685 27.2684 12.4726L28.2561 11.8804C28.8583 11.5193 29.1482 10.8028 28.9665 10.1246C28.6376 8.89727 29.131 7.59721 30.1914 6.89711L31.1617 6.25644C31.4796 6.04657 31.9074 6.13412 32.1172 6.45198ZM3.49108 7.69362C3.37063 7.33227 2.98005 7.13698 2.6187 7.25743C2.25735 7.37788 2.06207 7.76846 2.18252 8.1298L2.55021 9.2329C2.95202 10.4383 4.08008 11.2514 5.3507 11.2514C6.05284 11.2514 6.66992 11.7168 6.86281 12.392L7.1792 13.4993C7.28384 13.8655 7.66556 14.0776 8.0318 13.973C8.39804 13.8683 8.61011 13.4866 8.50547 13.1204L8.18909 12.013C7.827 10.7457 6.66869 9.87203 5.3507 9.87203C4.67379 9.87203 4.07283 9.43888 3.85877 8.79671L3.49108 7.69362Z" fill="#599E43"/>
<path d="M27.3165 43.0252C27.2478 43.8728 26.8618 44.6632 26.2358 45.2386C25.6097 45.814 24.7896 46.1321 23.9393 46.1293H10.716C9.86498 46.1322 9.04414 45.8143 8.41707 45.239C7.79001 44.6637 7.40276 43.8733 7.3325 43.0252L5.13483 18.7451L3.5083 18.8879L5.70597 43.1742C5.81358 44.4268 6.38874 45.5929 7.31704 46.4407C8.24535 47.2885 9.45879 47.7558 10.716 47.7496H23.9393C25.1954 47.7542 26.4073 47.2862 27.3343 46.4386C28.2613 45.591 28.8355 44.4257 28.9431 43.1742L31.0414 19.0617L29.4149 18.919L27.3165 43.0252Z" fill="#599E43"/>
<path opacity="0.4" d="M26.5 23.75H8L9.43061 42.8248C9.46974 43.3466 9.90454 43.75 10.4278 43.75H24.0722C24.5955 43.75 25.0303 43.3466 25.0694 42.8248L26.5 23.75Z" fill="#599E43"/>
</svg>
