<svg width="40" height="40" viewBox="0 0 40 40" fill="none" xmlns="http://www.w3.org/2000/svg">
<path fill-rule="evenodd" clip-rule="evenodd" d="M13.9419 0C14.3228 0 14.6316 0.308769 14.6316 0.689655V5.04834H17.2912V0.689655C17.2912 0.308769 17.6 0 17.9809 0C18.3618 0 18.6705 0.308769 18.6705 0.689655V5.04834H21.3296V0.689655C21.3296 0.308769 21.6384 0 22.0192 0C22.4001 0 22.7089 0.308769 22.7089 0.689655V5.04834H25.3684V0.689655C25.3684 0.308769 25.6772 0 26.0581 0C26.4389 0 26.7477 0.308769 26.7477 0.689655V5.04834H28.6181C32.0461 5.04834 34.825 7.82726 34.825 11.2552V13.252H39.3103C39.6912 13.252 40 13.5607 40 13.9416C40 14.3225 39.6912 14.6313 39.3103 14.6313L34.825 14.6313V17.291H39.3103C39.6912 17.291 40 17.5998 40 17.9807C40 18.3616 39.6912 18.6703 39.3103 18.6703H34.825V21.3296H39.3103C39.6912 21.3296 40 21.6384 40 22.0192C40 22.4001 39.6912 22.7089 39.3103 22.7089H34.825V25.3686H39.3103C39.6912 25.3686 40 25.6773 40 26.0582C40 26.4391 39.6912 26.7479 39.3103 26.7479H34.825V28.4921C34.825 31.9201 32.0461 34.699 28.6181 34.699H26.7477V39.3103C26.7477 39.6912 26.4389 40 26.0581 40C25.6772 40 25.3684 39.6912 25.3684 39.3103V34.699H22.7089V39.3104C22.7089 39.6913 22.4001 40 22.0192 40C21.6384 40 21.3296 39.6913 21.3296 39.3104V34.699H18.6705V39.3103C18.6705 39.6912 18.3618 40 17.9809 40C17.6 40 17.2912 39.6912 17.2912 39.3103V34.699H14.6316V39.3103C14.6316 39.6912 14.3228 40 13.9419 40C13.5611 40 13.2523 39.6912 13.2523 39.3103V34.699H11.3812C7.95325 34.699 5.17432 31.9201 5.17432 28.4921V26.7479H0.68969C0.308803 26.7479 3.47623e-05 26.4391 3.4779e-05 26.0582C3.47956e-05 25.6773 0.308804 25.3686 0.68969 25.3686H5.17432V22.7089H0.689622C0.308736 22.7089 -3.24717e-05 22.4001 -3.24551e-05 22.0192C-3.24384e-05 21.6384 0.308736 21.3296 0.689622 21.3296H5.17432V18.6703H0.689622C0.308736 18.6703 -3.24717e-05 18.3616 -3.24551e-05 17.9807C-3.24384e-05 17.5998 0.308736 17.291 0.689622 17.291H5.17432V14.6313L0.689622 14.6313C0.308736 14.6313 -3.24717e-05 14.3225 -3.24551e-05 13.9416C-3.24384e-05 13.5607 0.308736 13.252 0.689622 13.252H5.17432V11.2552C5.17432 7.82727 7.95324 5.04834 11.3812 5.04834H13.2523V0.689655C13.2523 0.308769 13.5611 0 13.9419 0ZM13.9419 6.42777L13.9291 6.42765H11.3812C8.71501 6.42765 6.55363 8.58904 6.55363 11.2552V28.4921C6.55363 31.1583 8.71502 33.3197 11.3812 33.3197H28.6181C31.2843 33.3197 33.4457 31.1583 33.4457 28.4921V11.2552C33.4457 8.58904 31.2843 6.42765 28.6181 6.42765H26.0709L26.0581 6.42777L26.0453 6.42765H22.032L22.0192 6.42777L22.0064 6.42765H17.9937L17.9809 6.42777L17.9681 6.42765H13.9547L13.9419 6.42777ZM13.1033 10.3447C11.5798 10.3447 10.3447 11.5798 10.3447 13.1033V27.1399C10.3447 28.6634 11.5798 29.8985 13.1033 29.8985H27.1399C28.6634 29.8985 29.8985 28.6634 29.8985 27.1399V13.1033C29.8985 11.5798 28.6634 10.3447 27.1399 10.3447H13.1033ZM11.724 13.1033C11.724 12.3416 12.3416 11.724 13.1033 11.724H27.1399C27.9016 11.724 28.5192 12.3416 28.5192 13.1033V27.1399C28.5192 27.9016 27.9016 28.5192 27.1399 28.5192H13.1033C12.3416 28.5192 11.724 27.9016 11.724 27.1399V13.1033Z" fill="#599E43"/>
<path opacity="0.4" d="M15.1724 17.2413C15.1724 16.0987 16.0987 15.1724 17.2413 15.1724H22.7586C23.9012 15.1724 24.8275 16.0987 24.8275 17.2413V22.7586C24.8275 23.9012 23.9012 24.8275 22.7586 24.8275H17.2413C16.0987 24.8275 15.1724 23.9012 15.1724 22.7586V17.2413Z" fill="#599E43"/>
</svg>
