<svg width="28" height="47" viewBox="0 0 28 47" fill="none" xmlns="http://www.w3.org/2000/svg">
<rect x="8" y="42" width="19" height="4" stroke="#599E43" stroke-width="1.5" stroke-linejoin="round"/>
<circle opacity="0.4" cx="12" cy="9" r="9" fill="#599E43"/>
<path d="M24.3333 42V38.4828C24.3333 38.0245 24.4786 37.5779 24.7481 37.2072V37.2072C26.0961 35.3537 26.8222 33.1208 26.8222 30.829V19.7331C26.8222 18.7998 26.3244 16.9331 24.3333 16.9331C23.0889 16.9331 22.7778 18.1281 22.7778 19.1109C22.7778 17.8664 22.4667 15.6887 20.6 15.6887C18.8578 15.6887 18.4222 17.2266 18.4222 18.4887C18.5259 17.2442 18.75 14.5 16.5 14.5C14.25 14.5 14 15.9998 14 16.9331V9.77222C14 8.51731 12.9827 7.5 11.7278 7.5V7.5C10.4729 7.5 9.45555 8.51731 9.45555 9.77222V25.2333L5.66959 20.6759C4.83311 19.6689 3.31215 19.5987 2.3865 20.5244V20.5244C1.59417 21.3167 1.5151 22.5748 2.20198 23.4601L4.22188 26.0635C5.70542 27.9756 6.48805 30.3272 7.19357 32.6422C7.57166 33.8829 8.12444 35.1813 8.90346 36.2267C9.75357 37.3674 10.5778 38.6524 10.5778 40.075V42H24.3333Z" stroke="#599E43" stroke-width="1.5" stroke-linejoin="round"/>
<path d="M14 23V17" stroke="#599E43" stroke-width="1.5" stroke-linecap="round" stroke-linejoin="round"/>
<path d="M18.4224 22.5333V16.311" stroke="#599E43" stroke-width="1.5" stroke-linecap="round" stroke-linejoin="round"/>
<path d="M22.7778 22.5331L22.7778 18.7998" stroke="#599E43" stroke-width="1.5" stroke-linecap="round" stroke-linejoin="round"/>
</svg>
