<svg width="40" height="35" viewBox="0 0 40 35" fill="none" xmlns="http://www.w3.org/2000/svg">
<path d="M39.4702 14.1769L38.8001 13.4167C38.4471 13.0147 37.9626 12.7515 37.4333 12.6741C36.904 12.5967 36.3645 12.7102 35.9112 12.9943L26.7378 18.727L27.5206 19.9828L36.6545 14.2557C36.811 14.1578 36.9972 14.1187 37.1799 14.1455C37.3625 14.1724 37.5296 14.2633 37.6513 14.4021L38.3158 15.1568C38.4509 15.3076 38.5214 15.5054 38.5119 15.7077C38.5024 15.91 38.4137 16.1005 38.2651 16.238L28.2076 25.6929C27.3486 26.4956 26.2554 27.0027 25.0878 27.1402L10.5703 28.762L10.7392 30.2374L25.2511 28.5874C26.7278 28.4133 28.1095 27.7698 29.1931 26.7516L39.2675 17.291C39.6968 16.8986 39.9577 16.3552 39.9955 15.7747C40.0332 15.1943 39.845 14.6217 39.4702 14.1769Z" fill="#599E43"/>
<path d="M7.56288 23.1308C8.13457 21.9205 8.97163 20.8546 10.0119 20.0123C11.0521 19.1699 12.2688 18.5729 13.5715 18.2653C15.4185 17.843 17.0741 18.1471 18.2342 19.127L18.4763 19.3353L24.1076 18.699C24.2223 18.6863 24.3374 18.7186 24.4287 18.7891C24.4734 18.8247 24.5104 18.869 24.5375 18.9193C24.5646 18.9697 24.5812 19.025 24.5863 19.0819L24.7891 20.867C24.796 20.9238 24.7915 20.9814 24.7761 21.0365C24.7606 21.0916 24.7344 21.1431 24.6989 21.188C24.6634 21.2327 24.619 21.2698 24.5687 21.2969C24.5184 21.324 24.4631 21.3406 24.4061 21.3457L17.1811 22.1678L17.3501 23.6376L24.5751 22.8211C24.8251 22.7931 25.0671 22.7161 25.2873 22.5945C25.5075 22.4729 25.7016 22.3091 25.8585 22.1125C26.0154 21.9158 26.132 21.6902 26.2016 21.4485C26.2713 21.2068 26.2927 20.9537 26.2645 20.7037L26.0617 18.913C26.0023 18.4082 25.7459 17.9474 25.3482 17.631C24.9505 17.3145 24.4439 17.1681 23.9387 17.2236L18.9325 17.7867C18.114 17.2146 17.1789 16.8311 16.1945 16.6636C15.2101 16.4961 14.2008 16.5489 13.2392 16.8181C10.5275 17.4714 8.18376 19.1696 6.71818 21.5428L6.30144 20.2814L0 22.3762L4.0264 34.4948L10.3278 32.4056L7.3714 23.5194L7.56288 23.1308ZM4.96682 32.6308L1.87524 23.3223L5.36102 22.1622L8.4526 31.4708L4.96682 32.6308Z" fill="#599E43"/>
<path d="M15.2556 11.3504C15.6611 11.3509 16.0654 11.3055 16.4607 11.2152C19.7438 10.4662 23.0381 7.66746 23.5505 7.21695C24.7218 8.67546 24.7218 10.7816 24.6036 11.9641C23.7124 12.1527 22.881 12.5569 22.1821 13.1411C21.7467 13.4798 21.3998 13.9191 21.1712 14.4212C20.9427 14.9234 20.8394 15.4735 20.87 16.0243L22.3454 15.9004C22.3392 15.5842 22.4085 15.2712 22.5476 14.9871C22.6867 14.7031 22.8915 14.4563 23.1451 14.2674C23.855 13.6956 24.7244 13.3573 25.6341 13.2988C27.5206 13.1411 29.1987 14.0646 29.3057 15.3148L30.7811 15.1909C30.6178 13.2594 28.5793 11.8121 26.1128 11.8121C26.2516 10.3438 26.0252 8.8639 25.4539 7.50416C27.1931 8.10814 29.0141 8.44424 30.8543 8.50091C31.1246 8.50091 31.3893 8.50091 31.654 8.50091C32.897 8.41121 34.0616 7.86005 34.9191 6.95567C35.7766 6.05128 36.2651 4.859 36.2885 3.61294V3.30319L36.0802 3.07795C36.0013 2.99912 34.1599 1.07884 31.699 1H31.5245C28.7088 1 25.1836 3.10049 23.6857 5.12776C23.3681 4.07243 23.3486 2.94983 23.6294 1.88412L22.1765 1.59692C21.9188 2.7176 21.8958 3.87948 22.1089 5.00949C19.8082 3.62847 17.0691 3.17162 14.4447 3.73117C12.2203 4.2943 10.2663 7.27327 10.0523 7.61115L9.7876 8.02223L10.0636 8.4277C10.1368 8.5178 12.0964 11.3504 15.2556 11.3504ZM31.5245 2.43598H31.6596C32.8224 2.54861 33.9163 3.03915 34.7737 3.83253C34.6962 4.65687 34.3267 5.42642 33.732 6.00253C33.1373 6.57864 32.3565 6.92343 31.5301 6.97481C29.1987 7.17754 26.3831 6.27091 25.0203 5.75846C26.3042 4.14228 29.2607 2.43598 31.5019 2.43598H31.5245ZM14.8051 5.11085C16.9901 4.54772 19.8733 5.17841 21.9231 6.60876C20.7968 7.50977 18.3923 9.2386 16.1116 9.75668C13.8309 10.2748 12.2316 8.69236 11.6065 7.9265C12.2598 6.99734 13.6 5.43747 14.8051 5.11085Z" fill="#599E43"/>
<path opacity="0.4" d="M15.5 2.5C11.5 2.5 8.33333 6.5 7.5 8.5C8.83333 9.83333 12.5 13.5 16.5 12.5C19.9925 11.6269 23 8.5 24 6.5C22.8333 5.16667 19.5 2.5 15.5 2.5Z" fill="#599E43"/>
<path opacity="0.4" d="M31.7273 10C35.3636 10 38.2424 6.06708 39 4.10062C37.7879 2.78965 34.4545 -0.815521 30.8182 0.167707C27.6432 1.02619 24.9091 4.10062 24 6.06708C25.0606 7.37806 28.0909 10 31.7273 10Z" fill="#599E43"/>
</svg>
