<svg width="40" height="40" viewBox="0 0 40 40" fill="none" xmlns="http://www.w3.org/2000/svg">
<path d="M20.5082 4.90005C20.3625 4.78788 20.1837 4.72705 19.9998 4.72705C19.8159 4.72705 19.6372 4.78788 19.4915 4.90005C19.0665 5.22505 9.1665 13.0167 9.1665 21.1084C9.1665 23.9816 10.3079 26.7371 12.3395 28.7687C14.3712 30.8004 17.1267 31.9417 19.9998 31.9417C22.873 31.9417 25.6285 30.8004 27.6602 28.7687C29.6918 26.7371 30.8332 23.9816 30.8332 21.1084C30.8332 13.0167 20.9332 5.22505 20.5082 4.90005ZM19.9998 30.2751C12.3748 30.2751 4.00817 20.1417 19.9998 6.66672C35.9498 20.1084 27.6498 30.2751 19.9998 30.2751Z" fill="white"/>
<path d="M20.5082 4.90005C20.3625 4.78788 20.1837 4.72705 19.9998 4.72705C19.8159 4.72705 19.6372 4.78788 19.4915 4.90005C19.0665 5.22505 9.1665 13.0167 9.1665 21.1084C9.1665 23.9816 10.3079 26.7371 12.3395 28.7687C14.3712 30.8004 17.1267 31.9417 19.9998 31.9417C22.873 31.9417 25.6285 30.8004 27.6602 28.7687C29.6918 26.7371 30.8332 23.9816 30.8332 21.1084C30.8332 13.0167 20.9332 5.22505 20.5082 4.90005ZM19.9998 30.2751C12.3748 30.2751 4.00817 20.1417 19.9998 6.66672C35.9498 20.1084 27.6498 30.2751 19.9998 30.2751Z" fill="white"/>
<path opacity="0.4" d="M20.0033 27.5002C14.4257 27.5002 8.30552 20.3464 20.0033 10.8335C31.6707 20.3228 25.5993 27.5002 20.0033 27.5002Z" fill="white"/>
<path fill-rule="evenodd" clip-rule="evenodd" d="M35.7069 3.45989C36.0975 3.85041 36.0975 4.48357 35.7069 4.8741L4.87361 35.7074C4.48309 36.098 3.84992 36.098 3.4594 35.7074C3.06887 35.3169 3.06887 34.6837 3.4594 34.2932L34.2927 3.45989C34.6833 3.06936 35.3164 3.06936 35.7069 3.45989Z" fill="white"/>
</svg>
