<svg xmlns="http://www.w3.org/2000/svg" viewBox="0 0 1627.68 274.54"><defs><style>.cls-1{fill:#5a9e44;}</style></defs><title>Asset 1</title><g id="Layer_2" data-name="Layer 2"><g id="_4._W2G_Full_Horizontal" data-name="4. W2G Full Horizontal"><path class="cls-1" d="M290.62,232.73l23.95-26.81a272.89,272.89,0,0,0,18.33-22.56A143.34,143.34,0,0,0,345,163.88a85.64,85.64,0,0,0,6.67-17.17,63.06,63.06,0,0,0,2.07-14.65c-13-10.09-17.13-24.94-17.1-41.22a59.57,59.57,0,0,0-13-9.21,65.62,65.62,0,0,0-31-7.23c-1.05,0-2.09,0-3.13,0l-14.32,47.51.51-.31a23.82,23.82,0,0,1,11.94-3.33q7.23,0,11.81,2.36a16.32,16.32,0,0,1,6.94,6.53,19.33,19.33,0,0,1,2.36,9.72,28.1,28.1,0,0,1-3.19,11.94,89.45,89.45,0,0,1-8.33,13.75q-5.15,7.09-10.7,13.75T276,188.29l-31.16,34.4-15.24,50.79v.25H361.68v-41Z"/><path class="cls-1" d="M573.18,177.84c-.1-3.32-.23-6.88-.42-10.48s-.48-4.63-.85-8.63H477.68v40h48.63a32,32,0,0,1-3.19,10.81A32.82,32.82,0,0,1,514,220.28a45.39,45.39,0,0,1-13.37,7.22,48.17,48.17,0,0,1-16.35,2.62,59.61,59.61,0,0,1-23.33-4.6,58.69,58.69,0,0,1-31.57-31.6,60.33,60.33,0,0,1-4.55-23.61,73,73,0,0,1,.46-8.05c-13.75,4-29.75,1.86-48.77-10.3a113.05,113.05,0,0,0-1.46,18.34,110.81,110.81,0,0,0,7.39,41A94.7,94.7,0,0,0,403.82,244,97.27,97.27,0,0,0,437,265.58q19.2,7.68,43.09,7.68a104.61,104.61,0,0,0,37-6.4,89.9,89.9,0,0,0,29.72-18.06,81.19,81.19,0,0,0,19.63-27.73,88.13,88.13,0,0,0,7-35.41Q573.33,182.83,573.18,177.84Z"/><path class="cls-1" d="M375.29,75.23A61.42,61.42,0,0,1,381,70c-3.69-14.46-8-28.07-11.85-38.79-5-14.12-8.95-23.28-8.95-23.28s4.34,9,9.89,22.93c4.14,10.31,8.91,23.35,13.13,37.33,7.95-6,17.39-10.46,27.48-13.69C390.9,24.08,356.49,0,356.49,0s.54,11.53-3.15,29.44c-6.4,31.13-21.88,75.87,6.85,96.84C357.86,105.54,362.91,88.39,375.29,75.23Z"/><path class="cls-1" d="M369,134.81c-.42.45-.87.9-1.27,1.34q-2.29,2.34-4.19,4.65c-1.29,1.53-2.55,2.93-3.58,4.4s-2.06,2.78-3,4l-2.31,3.6a57.63,57.63,0,0,0-3,5.24l-1,1.89,6.66,3s.29-.61.85-1.73a50.91,50.91,0,0,1,2.51-4.87l2-3.4,2.63-3.86c.9-1.4,2-2.78,3.2-4.27s2.4-3,3.79-4.58,2.79-3.19,4.38-4.78,3.18-3.3,4.94-4.93,3.52-3.35,5.44-5,3.86-3.35,5.9-5a288.27,288.27,0,0,1,26.8-19.35,489.81,489.81,0,0,1,54.51-29.9C489.62,64.08,500.19,60,500.19,60s-10.44,4.44-25.58,12.17A486.63,486.63,0,0,0,421,103.68a290.24,290.24,0,0,0-26.2,20.15c-2,1.72-3.92,3.43-5.74,5.18s-3.62,3.44-5.28,5.16-3.3,3.39-4.79,5.07c-1.29,1.36-2.44,2.75-3.56,4.11C436.83,187.28,465.33,121,489,83c11-17.64,20.43-26.71,20.43-26.71S347.09,32,369,134.81Z"/><path d="M60,273.29,0,74.2H49.49L79.64,178.86q2.55,9.1,4.26,18.63t2.85,17.64q1.13,8.1,1.42,12.65l-6.54.29q2-10.81,3.13-19.06t2.84-15.5a148.76,148.76,0,0,1,4.27-14.65l29.86-78.78h39L190,178.86q3.4,9.39,5.54,17.78T199,212.28q1.28,7.26,2.13,14.36l-6,1.14c.37-3.6.71-6.82,1-9.67s.52-5.64.71-8.39.47-5.59.86-8.53.94-6.26,1.7-10,1.8-7.91,3.13-12.65L232.08,74.2h48.63l-60,199.09h-37L136.23,159l5.41.57L98.12,273.29Z"/><path d="M657.67,272.91l-34.85-114H636.5L658.81,234a69.41,69.41,0,0,1,2.61,9.2c.65,3.09,1.3,6.08,2,8.95s1.31,5.57,2,8.07h-3.75q2.61-8.47,4.24-13.36c1.08-3.26,2-5.91,2.68-8s1.39-3.85,2-5.37l20.2-51.63H702l19.71,51.63q1.3,3.09,2.53,6.59c.81,2.34,1.67,5,2.6,8s2.14,6.71,3.66,11.16l-3.41.81q1-4.73,1.54-7.41c.38-1.79.71-3.23,1-4.31s.51-2.18.73-3.26.57-2.5,1.06-4.24,1.22-4.12,2.2-7.16l22.15-74.76h13.84l-34.85,114h-9.45l-30.62-74.76,2.12.49L667,272.91Z"/><path d="M805.55,274.54a32.68,32.68,0,0,1-14.81-3.26,26.08,26.08,0,0,1-10.35-9,24.08,24.08,0,0,1-3.83-13.6,25.61,25.61,0,0,1,2.36-11.24,21.44,21.44,0,0,1,6.93-8.14,33.35,33.35,0,0,1,11.56-5,67.55,67.55,0,0,1,16-1.71h27l-1,10.26H811.74a45.67,45.67,0,0,0-10,1,21.53,21.53,0,0,0-7.33,3,13.12,13.12,0,0,0-6.11,11.65,14.09,14.09,0,0,0,2.36,8.06,15.34,15.34,0,0,0,6.36,5.38,21.1,21.1,0,0,0,9,1.87,33.34,33.34,0,0,0,12.54-2.36,35.59,35.59,0,0,0,10.51-6.52,34,34,0,0,0,7.41-9.36l3.42,7.82a43.56,43.56,0,0,1-9,10.91,44.38,44.38,0,0,1-11.81,7.49A34.14,34.14,0,0,1,805.55,274.54Zm29.32-1.63v-57A16.76,16.76,0,0,0,829,202.55q-5.87-5-15.47-5.05a32,32,0,0,0-14.5,3.26,33.74,33.74,0,0,0-11.56,9.77l-8.15-8.14a49.43,49.43,0,0,1,16-12.38,44.35,44.35,0,0,1,19-4.07,40.7,40.7,0,0,1,16.94,3.26,24.45,24.45,0,0,1,11,9.44,28,28,0,0,1,3.83,15v59.29Z"/><path d="M896.59,274.54a47.38,47.38,0,0,1-19.38-3.83,34.7,34.7,0,0,1-14-11l8.47-7.33a30.12,30.12,0,0,0,11.23,8.79,35.87,35.87,0,0,0,14.82,2.94,24.15,24.15,0,0,0,7.5-1.07,16.64,16.64,0,0,0,5.53-2.93,11.2,11.2,0,0,0,3.34-4.39,14,14,0,0,0,1.06-5.46,10.36,10.36,0,0,0-4.23-8.63,29.67,29.67,0,0,0-6.27-3.18,89.84,89.84,0,0,0-9.69-3,74.79,74.79,0,0,1-14.74-5,30,30,0,0,1-9.37-6.59,20.35,20.35,0,0,1-3.91-6.43,22.06,22.06,0,0,1-1.3-7.74,20.47,20.47,0,0,1,3.91-12.38A25.86,25.86,0,0,1,880.23,189a37.37,37.37,0,0,1,15.39-3,42.54,42.54,0,0,1,11.64,1.63,40.19,40.19,0,0,1,10.67,4.72,34.93,34.93,0,0,1,8.47,7.49l-7.17,7.82a46.21,46.21,0,0,0-7.25-5.94,34.1,34.1,0,0,0-7.89-3.91,24.57,24.57,0,0,0-8-1.39,30.1,30.1,0,0,0-7.66.9,17.19,17.19,0,0,0-5.78,2.6,10.85,10.85,0,0,0-3.5,4.08,12.38,12.38,0,0,0-1.14,5.45,13.16,13.16,0,0,0,1.14,4.48,9.74,9.74,0,0,0,2.77,3.67,27.18,27.18,0,0,0,6.51,3.5,63.6,63.6,0,0,0,10.26,3,82.65,82.65,0,0,1,13.19,4.32,27.8,27.8,0,0,1,8.64,5.62,16.62,16.62,0,0,1,4.88,6.83,25.39,25.39,0,0,1,1.47,9,22.16,22.16,0,0,1-3.91,13,25.65,25.65,0,0,1-10.75,8.71A37.61,37.61,0,0,1,896.59,274.54Z"/><path d="M938.45,199.46V187.4h53.42v12.06Zm19.71,73.45V165.58h12.37V272.91Z"/><path d="M1044.8,274.54a45.55,45.55,0,0,1-22.8-5.62,40.44,40.44,0,0,1-15.56-15.55,45.26,45.26,0,0,1-5.61-22.64,50,50,0,0,1,3.17-18.16,43,43,0,0,1,8.79-14.17,38.84,38.84,0,0,1,13.44-9.2,44,44,0,0,1,17.1-3.26,39.51,39.51,0,0,1,15.23,2.93,35.67,35.67,0,0,1,12.3,8.39,37.5,37.5,0,0,1,8,12.86,42.1,42.1,0,0,1,2.44,16.37l-.16,6.19h-71.34l-2.6-10.1h63.68l-2.28,2.77.16-4.07a23.9,23.9,0,0,0-3.91-12.38,26,26,0,0,0-9.2-8.47,25.13,25.13,0,0,0-12.3-3.09,31.74,31.74,0,0,0-16.28,4,25.6,25.6,0,0,0-10.35,11.24,41.16,41.16,0,0,0-3.66,17.34,37.14,37.14,0,0,0,4.23,17.51A29.11,29.11,0,0,0,1028.76,259a34.49,34.49,0,0,0,17.18,4.15,35.29,35.29,0,0,0,13-2.36,41.22,41.22,0,0,0,12.21-7.89l6.19,8.79a39.3,39.3,0,0,1-9.2,6.76,52.58,52.58,0,0,1-11.32,4.48A46.25,46.25,0,0,1,1044.8,274.54Z"/><path d="M1101.8,272.91l-3.91-9.61,39.09-43q2.6-2.93,5.62-6.68t5.78-8a53.72,53.72,0,0,0,4.56-8.55,22.27,22.27,0,0,0,1.79-8.55,18,18,0,0,0-10.34-16.86,25.48,25.48,0,0,0-11.32-2.36,22.92,22.92,0,0,0-10.59,2.68,29.44,29.44,0,0,0-9.52,8.15,40.52,40.52,0,0,0-6.76,13.43l-10.1-6.19a47.12,47.12,0,0,1,8.47-16.53,35.55,35.55,0,0,1,13.27-10.17,40.82,40.82,0,0,1,16.69-3.42,37,37,0,0,1,17.19,3.9,30.05,30.05,0,0,1,11.89,10.75,28.73,28.73,0,0,1,4.31,15.64,37.18,37.18,0,0,1-1.38,10,48.5,48.5,0,0,1-4.16,10.1,81.1,81.1,0,0,1-6.75,10.42q-4,5.29-9.2,11l-33.07,35.5-2.11-4.07H1171v12.38Z"/><path d="M1243,274.54a59.26,59.26,0,0,1-23-4.4,56.47,56.47,0,0,1-18.49-12.3,55,55,0,0,1-12.21-18.56,64.08,64.08,0,0,1,0-46.26,55.36,55.36,0,0,1,30.54-30.86,59.26,59.26,0,0,1,23-4.4,57.78,57.78,0,0,1,17,2.53,55.93,55.93,0,0,1,14.9,7A46.33,46.33,0,0,1,1286,177.8l-8.47,8.63a53.34,53.34,0,0,0-16-11.89,42.87,42.87,0,0,0-18.65-4.24,45.41,45.41,0,0,0-17.76,3.42,43.18,43.18,0,0,0-23.69,24.19,48.55,48.55,0,0,0-3.34,18.16,46.32,46.32,0,0,0,3.5,18,45.71,45.71,0,0,0,9.69,14.65A44.65,44.65,0,0,0,1243.33,262a44,44,0,0,0,15.06-2.45,35.35,35.35,0,0,0,11.81-7,31.2,31.2,0,0,0,7.73-10.67,32,32,0,0,0,2.69-13.11v-3.26l2,1.79h-39.42V214.44h50.65a21.11,21.11,0,0,1,.41,2.93c0,.87.11,1.69.16,2.44s.09,1.47.09,2.12a59.3,59.3,0,0,1-3.83,21.91,46.71,46.71,0,0,1-27,27A55.91,55.91,0,0,1,1243,274.54Z"/><path d="M1313,272.91V187.4h12.38l.16,24.76-1.46-4.23a30.71,30.71,0,0,1,5.61-10.92,30.23,30.23,0,0,1,9.7-8.06,26.34,26.34,0,0,1,12.54-3,31.9,31.9,0,0,1,5.21.41,20.22,20.22,0,0,1,4.07,1.05L1358,200.92a46.63,46.63,0,0,0-4.64-1.38,19.1,19.1,0,0,0-4.48-.57,21.75,21.75,0,0,0-9.36,2,23.39,23.39,0,0,0-7.42,5.46,25.39,25.39,0,0,0-4.8,7.74,23.84,23.84,0,0,0-1.71,8.87v49.84Z"/><path d="M1409,274.54a45.55,45.55,0,0,1-22.8-5.62,40.34,40.34,0,0,1-15.55-15.55,45.16,45.16,0,0,1-5.62-22.64,50,50,0,0,1,3.17-18.16,42.81,42.81,0,0,1,8.8-14.17,38.71,38.71,0,0,1,13.43-9.2,44.08,44.08,0,0,1,17.1-3.26,39.51,39.51,0,0,1,15.23,2.93,35.57,35.57,0,0,1,12.3,8.39,37.5,37.5,0,0,1,8,12.86,42.1,42.1,0,0,1,2.44,16.37l-.16,6.19H1374l-2.61-10.1H1435l-2.28,2.77.16-4.07A23.9,23.9,0,0,0,1429,208.9a26,26,0,0,0-9.2-8.47,25.13,25.13,0,0,0-12.3-3.09,31.76,31.76,0,0,0-16.28,4,25.66,25.66,0,0,0-10.35,11.24,41.16,41.16,0,0,0-3.66,17.34,37.14,37.14,0,0,0,4.23,17.51A29.11,29.11,0,0,0,1392.92,259a34.52,34.52,0,0,0,17.18,4.15,35.29,35.29,0,0,0,13-2.36,41.09,41.09,0,0,0,12.21-7.89l6.19,8.79a38.89,38.89,0,0,1-9.2,6.76,52.58,52.58,0,0,1-11.32,4.48A46.25,46.25,0,0,1,1409,274.54Z"/><path d="M1502.12,274.54a45.55,45.55,0,0,1-22.8-5.62,40.44,40.44,0,0,1-15.56-15.55,45.26,45.26,0,0,1-5.62-22.64,50,50,0,0,1,3.18-18.16,43,43,0,0,1,8.79-14.17,38.84,38.84,0,0,1,13.44-9.2,44,44,0,0,1,17.1-3.26,39.54,39.54,0,0,1,15.23,2.93,35.53,35.53,0,0,1,12.29,8.39,37.38,37.38,0,0,1,8,12.86,42.29,42.29,0,0,1,2.44,16.37l-.16,6.19H1467.1l-2.6-10.1h63.67l-2.28,2.77.17-4.07a23.9,23.9,0,0,0-3.91-12.38,26.12,26.12,0,0,0-9.2-8.47,25.13,25.13,0,0,0-12.3-3.09,31.77,31.77,0,0,0-16.29,4A25.64,25.64,0,0,0,1474,212.57a41,41,0,0,0-3.66,17.34,37,37,0,0,0,4.23,17.51A29,29,0,0,0,1486.08,259a34.49,34.49,0,0,0,17.18,4.15,35.33,35.33,0,0,0,13-2.36,41.22,41.22,0,0,0,12.21-7.89l6.19,8.79a39.09,39.09,0,0,1-9.2,6.76,52.78,52.78,0,0,1-11.32,4.48A46.31,46.31,0,0,1,1502.12,274.54Z"/><path d="M1556.35,272.91V187.4h12.38v18.25l-2.44,1.46a25.43,25.43,0,0,1,6.51-10.42,38,38,0,0,1,11.4-7.74,33.25,33.25,0,0,1,13.84-3q9.62,0,16.21,3.66a23.42,23.42,0,0,1,10,11.32q3.42,7.67,3.42,19.38v52.61h-12.37V221.12q0-8.31-2.37-13.68a15.45,15.45,0,0,0-7-7.82,23.58,23.58,0,0,0-11.64-2.28,28.09,28.09,0,0,0-10.18,1.79,26.51,26.51,0,0,0-8.06,4.81,23.88,23.88,0,0,0-5.38,6.67,15.36,15.36,0,0,0-2,7.25v55.05h-12.38Z"/></g></g></svg>